<svg width="539" height="82" viewBox="0 0 539 82" fill="none" xmlns="http://www.w3.org/2000/svg">
<path d="M11.6172 52.8223H10.6172V53.8223H11.6172V52.8223ZM11.6172 39.2334V38.2334H10.6172V39.2334H11.6172ZM38.2578 37.7832L37.7826 36.9033L37.7752 36.9074L38.2578 37.7832ZM42.1787 33.8086L41.2843 33.3614L41.2805 33.369L42.1787 33.8086ZM42.1787 21.8311L41.2587 22.2229L41.2631 22.2333L41.2678 22.2436L42.1787 21.8311ZM38.2578 17.1582L37.6992 17.9877L37.707 17.9928L38.2578 17.1582ZM17.9551 15.3857V14.3857H16.9551V15.3857H17.9551ZM17.9551 80V81H18.9551V80H17.9551ZM0.445312 80H-0.554688V81H0.445312V80ZM0.445312 1.79688V0.796875H-0.554688V1.79688H0.445312ZM47.2812 5.18066L46.8283 6.0722L46.8312 6.07366L47.2812 5.18066ZM57.54 14.4727L56.6825 14.9872L56.6881 14.9963L57.54 14.4727ZM57.54 41.0596L56.6994 40.518L56.6957 40.5237L57.54 41.0596ZM47.2812 49.7607L47.6989 50.6693L47.7021 50.6679L47.2812 49.7607ZM31.2754 51.8223H11.6172V53.8223H31.2754V51.8223ZM12.6172 52.8223V39.2334H10.6172V52.8223H12.6172ZM11.6172 40.2334H31.2754V38.2334H11.6172V40.2334ZM31.2754 40.2334C34.2739 40.2334 36.7865 39.7357 38.7404 38.659L37.7752 36.9074C36.22 37.7643 34.0777 38.2334 31.2754 38.2334V40.2334ZM38.733 38.6631C40.6902 37.6062 42.1537 36.1347 43.0769 34.2481L41.2805 33.369C40.5566 34.8484 39.4062 36.0266 37.7827 36.9033L38.733 38.6631ZM43.0731 34.2558C44.0098 32.3825 44.4678 30.293 44.4678 28.0078H42.4678C42.4678 30.0195 42.0664 31.7972 41.2843 33.3614L43.0731 34.2558ZM44.4678 28.0078C44.4678 25.655 44.0115 23.4543 43.0897 21.4185L41.2678 22.2436C42.0646 24.0034 42.4678 25.9205 42.4678 28.0078H44.4678ZM43.0987 21.4392C42.1966 19.321 40.7593 17.611 38.8087 16.3236L37.707 17.9928C39.3371 19.0687 40.5137 20.4739 41.2587 22.2229L43.0987 21.4392ZM38.8164 16.3288C36.8459 15.0017 34.3031 14.3857 31.2754 14.3857V16.3857C34.0485 16.3857 36.1606 16.9514 37.6992 17.9876L38.8164 16.3288ZM31.2754 14.3857H17.9551V16.3857H31.2754V14.3857ZM16.9551 15.3857V80H18.9551V15.3857H16.9551ZM17.9551 79H0.445312V81H17.9551V79ZM1.44531 80V1.79688H-0.554688V80H1.44531ZM0.445312 2.79688H31.2754V0.796875H0.445312V2.79688ZM31.2754 2.79688C37.3871 2.79688 42.5593 3.90329 46.8283 6.0722L47.7342 4.28913C43.1229 1.94631 37.6246 0.796875 31.2754 0.796875V2.79688ZM46.8312 6.07366C51.1542 8.25247 54.4254 11.2252 56.6825 14.9872L58.3975 13.9582C55.9281 9.84251 52.3601 6.62058 47.7313 4.28767L46.8312 6.07366ZM56.6881 14.9963C58.9807 18.726 60.1387 23.017 60.1387 27.9004H62.1387C62.1387 22.6862 60.8976 18.0253 58.392 13.949L56.6881 14.9963ZM60.1387 27.9004C60.1387 32.7847 58.9805 36.9772 56.6994 40.518L58.3807 41.6011C60.8978 37.694 62.1387 33.1137 62.1387 27.9004H60.1387ZM56.6957 40.5237C54.447 44.0672 51.1838 46.8476 46.8604 48.8536L47.7021 50.6679C52.3305 48.5203 55.9065 45.4999 58.3844 41.5954L56.6957 40.5237ZM46.8636 48.8521C42.5853 50.8188 37.3999 51.8223 31.2754 51.8223V53.8223C37.6118 53.8223 43.097 52.7847 47.6989 50.6693L46.8636 48.8521ZM71.7734 1.79688V0.796875H70.7734V1.79688H71.7734ZM117.32 4.48242L116.941 5.40773L116.944 5.40881L117.32 4.48242ZM123.014 43.8525L122.401 43.062L122.396 43.0662L123.014 43.8525ZM114.205 48.6328L113.865 47.6924L113.793 47.7186L113.725 47.7556L114.205 48.6328ZM108.512 51.748V52.748H108.767L108.992 52.6253L108.512 51.748ZM82.9453 51.748L81.9453 51.756L81.9532 52.748H82.9453V51.748ZM82.8379 38.1592V37.1592H81.83L81.8379 38.1671L82.8379 38.1592ZM112.218 32.8418L111.331 32.3798L111.327 32.387L112.218 32.8418ZM108.243 16.7822L107.767 17.6615L107.778 17.6674L107.789 17.673L108.243 16.7822ZM89.2832 15.3857V14.3857H88.2832V15.3857H89.2832ZM89.2832 80V81H90.2832V80H89.2832ZM71.7734 80H70.7734V81H71.7734V80ZM115.064 80L114.172 80.4511L114.449 81H115.064V80ZM97.501 45.249L97.4981 44.249L95.8775 44.2537L96.6085 45.7001L97.501 45.249ZM115.978 45.1953L116.863 44.7308L116.581 44.1936L115.975 44.1953L115.978 45.1953ZM133.81 79.1943H134.81V78.948L134.695 78.7299L133.81 79.1943ZM133.81 80V81H134.81V80H133.81ZM71.7734 2.79688H101.798V0.796875H71.7734V2.79688ZM101.798 2.79688C107.681 2.79688 112.72 3.67792 116.941 5.40773L117.7 3.55712C113.183 1.70619 107.874 0.796875 101.798 0.796875V2.79688ZM116.944 5.40881C121.187 7.13391 124.403 9.66595 126.642 12.9902L128.301 11.873C125.813 8.1791 122.262 5.41166 117.697 3.55604L116.944 5.40881ZM126.642 12.9902C128.872 16.3012 130.017 20.4284 130.017 25.4297H132.017C132.017 20.1184 130.798 15.5803 128.301 11.873L126.642 12.9902ZM130.017 25.4297C130.017 29.6224 129.335 33.1227 128.015 35.9656L129.829 36.8078C131.302 33.6351 132.017 29.8307 132.017 25.4297H130.017ZM128.015 35.9656C126.683 38.8332 124.813 41.1935 122.401 43.062L123.626 44.6431C126.299 42.5727 128.367 39.9559 129.829 36.8078L128.015 35.9656ZM122.396 43.0662C119.983 44.9623 117.143 46.5068 113.865 47.6924L114.545 49.5732C117.999 48.3239 121.032 46.6816 123.631 44.6389L122.396 43.0662ZM113.725 47.7556L108.032 50.8708L108.992 52.6253L114.685 49.5101L113.725 47.7556ZM108.512 50.748H82.9453V52.748H108.512V50.748ZM83.9453 51.7401L83.8379 38.1513L81.8379 38.1671L81.9453 51.756L83.9453 51.7401ZM82.8379 39.1592H101.852V37.1592H82.8379V39.1592ZM101.852 39.1592C104.578 39.1592 106.921 38.6744 108.827 37.642L107.874 35.8834C106.343 36.713 104.353 37.1592 101.852 37.1592V39.1592ZM108.827 37.642C110.717 36.6182 112.154 35.1661 113.108 33.2966L111.327 32.387C110.563 33.8833 109.422 35.0452 107.874 35.8834L108.827 37.642ZM113.105 33.3037C114.087 31.4185 114.561 29.2494 114.561 26.8262H112.561C112.561 28.9863 112.139 30.8276 111.331 32.3799L113.105 33.3037ZM114.561 26.8262C114.561 24.3369 114.089 22.1306 113.105 20.2412L111.331 21.1651C112.137 22.7132 112.561 24.5889 112.561 26.8262H114.561ZM113.105 20.2412C112.112 18.3348 110.634 16.8795 108.698 15.8915L107.789 17.673C109.361 18.4753 110.533 19.634 111.331 21.1651L113.105 20.2412ZM108.719 15.9029C106.815 14.8715 104.491 14.3857 101.798 14.3857V16.3857C104.261 16.3857 106.234 16.831 107.767 17.6615L108.719 15.9029ZM101.798 14.3857H89.2832V16.3857H101.798V14.3857ZM88.2832 15.3857V80H90.2832V15.3857H88.2832ZM89.2832 79H71.7734V81H89.2832V79ZM72.7734 80V1.79688H70.7734V80H72.7734ZM115.957 79.5489L98.3935 44.798L96.6085 45.7001L114.172 80.4511L115.957 79.5489ZM97.5039 46.249L115.98 46.1953L115.975 44.1953L97.4981 44.249L97.5039 46.249ZM115.092 45.6598L132.924 79.6588L134.695 78.7299L116.863 44.7308L115.092 45.6598ZM132.81 79.1943V80H134.81V79.1943H132.81ZM133.81 79H115.064V81H133.81V79ZM205.621 58.6768L204.677 58.3477L204.675 58.3541L205.621 58.6768ZM198.692 70.7617L197.95 70.0914L197.946 70.0959L198.692 70.7617ZM188.058 78.4424L188.453 79.3611L188.456 79.3595L188.058 78.4424ZM160.826 78.4424L160.427 79.3595L160.434 79.3624L160.826 78.4424ZM150.084 70.7617L149.342 71.432L149.346 71.4364L150.084 70.7617ZM143.102 23.1738L144.046 23.5029L144.047 23.5007L143.102 23.1738ZM150.03 11.0352L149.288 10.3649L149.284 10.3693L150.03 11.0352ZM160.719 3.4082L161.111 4.3282L161.117 4.32527L160.719 3.4082ZM188.004 3.4082L187.605 4.3253L187.612 4.32817L188.004 3.4082ZM198.639 11.0352L197.893 11.701L197.897 11.7054L198.639 11.0352ZM205.621 23.1738L204.676 23.5007L204.677 23.5029L205.621 23.1738ZM189.347 28.5449L188.373 28.7714L188.373 28.774L189.347 28.5449ZM181.183 16.1377L180.71 17.0193L180.723 17.0257L181.183 16.1377ZM167.433 16.1377L167.899 17.0224L167.911 17.0156L167.433 16.1377ZM162.438 20.8105L161.601 20.2625L161.594 20.2727L162.438 20.8105ZM159.376 28.5449L158.402 28.3184L158.4 28.3268L159.376 28.5449ZM159.376 53.1982L158.399 53.414L158.403 53.4273L159.376 53.1982ZM167.486 65.7129L167.007 66.5908L167.014 66.5944L167.486 65.7129ZM181.236 65.7129L180.764 64.8314L180.757 64.835L181.236 65.7129ZM189.347 53.1982L188.373 52.9717L188.371 52.9801L189.347 53.1982ZM207.092 39.1797V42.6709H209.092V39.1797H207.092ZM207.092 42.6709C207.092 48.5233 206.281 53.7446 204.677 58.3477L206.565 59.0058C208.256 54.1557 209.092 48.7065 209.092 42.6709H207.092ZM204.675 58.3541C203.102 62.9666 200.857 66.873 197.95 70.0914L199.434 71.432C202.543 67.9903 204.917 63.84 206.568 58.9994L204.675 58.3541ZM197.946 70.0959C195.071 73.3174 191.645 75.7922 187.659 77.5253L188.456 79.3595C192.706 77.5118 196.37 74.8662 199.438 71.4276L197.946 70.0959ZM187.663 77.5237C183.72 79.2185 179.327 80.0742 174.469 80.0742V82.0742C179.565 82.0742 184.232 81.1754 188.453 79.3611L187.663 77.5237ZM174.469 80.0742C169.611 80.0742 165.199 79.2185 161.218 77.5224L160.434 79.3624C164.689 81.1753 169.372 82.0742 174.469 82.0742V80.0742ZM161.225 77.5253C157.237 75.7913 153.771 73.3139 150.822 70.0871L149.346 71.4364C152.484 74.8697 156.18 77.5128 160.427 79.3595L161.225 77.5253ZM150.826 70.0914C147.918 66.8713 145.654 62.9627 144.046 58.3477L142.157 59.0058C143.843 63.8439 146.235 67.992 149.342 71.432L150.826 70.0914ZM144.046 58.3477C142.442 53.7446 141.631 48.5233 141.631 42.6709H139.631C139.631 48.7065 140.467 54.1557 142.157 59.0058L144.046 58.3477ZM141.631 42.6709V39.1797H139.631V42.6709H141.631ZM141.631 39.1797C141.631 33.3273 142.442 28.1059 144.046 23.5029L142.157 22.8448C140.467 27.6948 139.631 33.1441 139.631 39.1797H141.631ZM144.047 23.5007C145.656 18.8473 147.903 14.9204 150.776 11.701L149.284 10.3693C146.213 13.81 143.841 17.9756 142.156 22.847L144.047 23.5007ZM150.772 11.7054C153.683 8.48272 157.127 6.02573 161.111 4.32817L160.327 2.48823C156.075 4.29979 152.393 6.92744 149.288 10.3649L150.772 11.7054ZM161.117 4.32527C165.096 2.59527 169.506 1.72266 174.361 1.72266V-0.277344C169.262 -0.277344 164.577 0.640407 160.32 2.49113L161.117 4.32527ZM174.361 1.72266C179.216 1.72266 183.626 2.59527 187.605 4.32527L188.403 2.49113C184.146 0.640407 179.461 -0.277344 174.361 -0.277344V1.72266ZM187.612 4.32817C191.595 6.02526 195.019 8.48096 197.893 11.701L199.385 10.3693C196.315 6.92919 192.649 4.30026 188.396 2.48823L187.612 4.32817ZM197.897 11.7054C200.804 14.9243 203.067 18.8497 204.676 23.5007L206.566 22.847C204.881 17.9732 202.489 13.8062 199.381 10.3649L197.897 11.7054ZM204.677 23.5029C206.281 28.1059 207.092 33.3273 207.092 39.1797H209.092C209.092 33.1441 208.256 27.6948 206.565 22.8448L204.677 23.5029ZM191.421 42.6709V39.0723H189.421V42.6709H191.421ZM191.421 39.0723C191.421 35.0402 191.058 31.4516 190.32 28.3159L188.373 28.774C189.068 31.7255 189.421 35.1551 189.421 39.0723H191.421ZM190.321 28.3184C189.585 25.1544 188.508 22.4603 187.068 20.2625L185.395 21.3586C186.676 23.3144 187.676 25.7766 188.373 28.7714L190.321 28.3184ZM187.068 20.2625C185.623 18.0566 183.815 16.3749 181.642 15.2497L180.723 17.0257C182.56 17.9773 184.119 19.4109 185.395 21.3586L187.068 20.2625ZM181.655 15.2562C179.488 14.0954 177.049 13.5264 174.361 13.5264V15.5264C176.759 15.5264 178.867 16.0316 180.71 17.0192L181.655 15.2562ZM174.361 13.5264C171.575 13.5264 169.095 14.0921 166.954 15.2598L167.911 17.0156C169.709 16.0349 171.849 15.5264 174.361 15.5264V13.5264ZM166.966 15.2531C164.83 16.3793 163.044 18.0606 161.601 20.2625L163.274 21.3586C164.553 19.4068 166.096 17.9729 167.899 17.0223L166.966 15.2531ZM161.594 20.2727C160.194 22.4679 159.137 25.1583 158.402 28.3184L160.35 28.7714C161.047 25.7727 162.031 23.3069 163.281 21.3484L161.594 20.2727ZM158.4 28.3268C157.7 31.4584 157.355 35.0432 157.355 39.0723H159.355C159.355 35.1521 159.691 31.7187 160.352 28.7631L158.4 28.3268ZM157.355 39.0723V42.6709H159.355V39.0723H157.355ZM157.355 42.6709C157.355 46.6651 157.7 50.2488 158.4 53.414L160.352 52.9825C159.691 49.9889 159.355 46.5543 159.355 42.6709H157.355ZM158.403 53.4273C159.139 56.5558 160.215 59.2455 161.65 61.4741L163.332 60.3911C162.046 58.3945 161.046 55.9279 160.349 52.9692L158.403 53.4273ZM161.65 61.4741C163.091 63.7102 164.874 65.4272 167.007 66.5908L167.965 64.835C166.16 63.8501 164.613 62.3803 163.332 60.3911L161.65 61.4741ZM167.014 66.5944C169.187 67.7583 171.682 68.3242 174.469 68.3242V66.3242C171.957 66.3242 169.796 65.8159 167.959 64.8314L167.014 66.5944ZM174.469 68.3242C177.156 68.3242 179.58 67.7553 181.715 66.5908L180.757 64.835C178.954 65.8189 176.866 66.3242 174.469 66.3242V68.3242ZM181.709 66.5944C183.879 65.4318 185.683 63.7142 187.126 61.4741L185.444 60.3911C184.166 62.3763 182.604 63.8456 180.764 64.8314L181.709 66.5944ZM187.126 61.4741C188.564 59.2419 189.623 56.5482 190.323 53.4164L188.371 52.9801C187.71 55.9355 186.728 58.3981 185.444 60.3911L187.126 61.4741ZM190.321 53.4248C191.058 50.2555 191.421 46.6682 191.421 42.6709H189.421C189.421 46.5512 189.068 49.9821 188.373 52.9717L190.321 53.4248ZM250.255 1.79688V0.796875H249.255V1.79688H250.255ZM267.657 1.79688H268.657V0.796875H267.657V1.79688ZM264.112 69.2578L263.263 68.7293L263.262 68.7315L264.112 69.2578ZM254.605 78.0127L255.062 78.9023L255.065 78.9007L254.605 78.0127ZM227.374 78.4961L226.973 79.4123L226.98 79.4152L227.374 78.4961ZM217.921 70.4932L217.072 71.0224L217.079 71.0322L217.921 70.4932ZM214.537 56.6895V55.6895H213.537V56.6895H214.537ZM232.047 56.6895H233.047V55.6895H232.047V56.6895ZM233.067 63.2422L232.146 63.6312L232.151 63.6436L232.157 63.656L233.067 63.2422ZM245.958 66.1963L246.508 67.0317L246.515 67.0267L246.523 67.0216L245.958 66.1963ZM249.127 62.168L250.046 62.5619L250.049 62.5552L249.127 62.168ZM251.255 55.7227V1.79688H249.255V55.7227H251.255ZM250.255 2.79688H267.657V0.796875H250.255V2.79688ZM266.657 1.79688V55.7227H268.657V1.79688H266.657ZM266.657 55.7227C266.657 60.7958 265.512 65.1175 263.263 68.7293L264.961 69.7864C267.439 65.807 268.657 61.1052 268.657 55.7227H266.657ZM263.262 68.7315C261.032 72.3342 257.999 75.1291 254.146 77.1247L255.065 78.9007C259.233 76.7427 262.538 73.7009 264.963 69.7842L263.262 68.7315ZM254.149 77.1231C250.332 79.0831 245.998 80.0742 241.124 80.0742V82.0742C246.276 82.0742 250.93 81.0243 255.062 78.9023L254.149 77.1231ZM241.124 80.0742C236.079 80.0742 231.633 79.2336 227.768 77.5769L226.98 79.4152C231.135 81.1961 235.857 82.0742 241.124 82.0742V80.0742ZM227.775 77.5799C223.94 75.9022 220.945 73.3631 218.763 69.9541L217.079 71.0322C219.48 74.7847 222.787 77.5809 226.973 79.4123L227.775 77.5799ZM218.769 69.9639C216.639 66.5484 215.537 62.1452 215.537 56.6895H213.537C213.537 62.4056 214.691 67.2049 217.072 71.0224L218.769 69.9639ZM214.537 57.6895H232.047V55.6895H214.537V57.6895ZM231.047 56.6895C231.047 59.5118 231.393 61.8464 232.146 63.6312L233.989 62.8532C233.382 61.4153 233.047 59.3814 233.047 56.6895H231.047ZM232.157 63.656C232.955 65.4127 234.149 66.7154 235.755 67.476L236.611 65.6685C235.495 65.1401 234.612 64.2228 233.978 62.8284L232.157 63.656ZM235.755 67.476C237.281 68.1993 239.083 68.5391 241.124 68.5391V66.5391C239.298 66.5391 237.805 66.2343 236.611 65.6685L235.755 67.476ZM241.124 68.5391C243.153 68.5391 244.961 68.049 246.508 67.0317L245.408 65.3609C244.233 66.1339 242.819 66.5391 241.124 66.5391V68.5391ZM246.523 67.0216C248.064 65.9673 249.231 64.4629 250.046 62.5619L248.208 61.774C247.519 63.3822 246.574 64.5633 245.393 65.371L246.523 67.0216ZM250.049 62.5552C250.865 60.6122 251.255 58.3252 251.255 55.7227H249.255C249.255 58.1332 248.893 60.143 248.205 61.7807L250.049 62.5552ZM333.668 66.4648H334.668V65.4648H333.668V66.4648ZM333.668 80V81H334.668V80H333.668ZM292.042 80H291.042V81H292.042V80ZM292.042 66.4648V65.4648H291.042V66.4648H292.042ZM298.004 1.79688H299.004V0.796875H298.004V1.79688ZM298.004 80V81H299.004V80H298.004ZM280.494 80H279.494V81H280.494V80ZM280.494 1.79688V0.796875H279.494V1.79688H280.494ZM328.297 33.2715H329.297V32.2715H328.297V33.2715ZM328.297 46.377V47.377H329.297V46.377H328.297ZM292.042 46.377H291.042V47.377H292.042V46.377ZM292.042 33.2715V32.2715H291.042V33.2715H292.042ZM333.722 1.79688H334.722V0.796875H333.722V1.79688ZM333.722 15.3857V16.3857H334.722V15.3857H333.722ZM292.042 15.3857H291.042V16.3857H292.042V15.3857ZM292.042 1.79688V0.796875H291.042V1.79688H292.042ZM332.668 66.4648V80H334.668V66.4648H332.668ZM333.668 79H292.042V81H333.668V79ZM293.042 80V66.4648H291.042V80H293.042ZM292.042 67.4648H333.668V65.4648H292.042V67.4648ZM297.004 1.79688V80H299.004V1.79688H297.004ZM298.004 79H280.494V81H298.004V79ZM281.494 80V1.79688H279.494V80H281.494ZM280.494 2.79688H298.004V0.796875H280.494V2.79688ZM327.297 33.2715V46.377H329.297V33.2715H327.297ZM328.297 45.377H292.042V47.377H328.297V45.377ZM293.042 46.377V33.2715H291.042V46.377H293.042ZM292.042 34.2715H328.297V32.2715H292.042V34.2715ZM332.722 1.79688V15.3857H334.722V1.79688H332.722ZM333.722 14.3857H292.042V16.3857H333.722V14.3857ZM293.042 15.3857V1.79688H291.042V15.3857H293.042ZM292.042 2.79688H333.722V0.796875H292.042V2.79688ZM387.218 53.7891V52.7891H386.275L386.219 53.7303L387.218 53.7891ZM404.62 53.7891L405.619 53.8423L405.675 52.7891H404.62V53.7891ZM400.216 68.0225L399.375 67.4813L399.374 67.4832L400.216 68.0225ZM389.312 77.6367L389.754 78.5339L389.76 78.5311L389.312 77.6367ZM348.653 70.9229L347.891 71.5696L347.898 71.5784L348.653 70.9229ZM342.208 59.0527L341.254 59.3535L341.257 59.3623L342.208 59.0527ZM400.162 14.1504L399.304 14.6638L399.307 14.6692L400.162 14.1504ZM404.728 28.4912V29.4912H405.825L405.723 28.3983L404.728 28.4912ZM387.271 28.4912L386.273 28.5382L386.317 29.4912H387.271V28.4912ZM385.553 20.8105L384.649 21.2393L384.652 21.2453L385.553 20.8105ZM366.056 15.8154L365.615 14.9176L365.608 14.921L366.056 15.8154ZM361.383 20.166L360.539 19.6291L360.532 19.6402L361.383 20.166ZM358.644 27.6855L359.624 27.8839L359.624 27.8817L358.644 27.6855ZM361.114 61.4697L360.257 61.9843L360.264 61.9955L361.114 61.4697ZM380.504 65.874L380.926 66.7807L380.939 66.7746L380.504 65.874ZM387.218 54.7891H404.62V52.7891H387.218V54.7891ZM403.622 53.7358C403.343 58.9509 401.921 63.5237 399.375 67.4813L401.057 68.5636C403.81 64.2855 405.324 59.3694 405.619 53.8423L403.622 53.7358ZM399.374 67.4832C396.864 71.4022 393.371 74.4893 388.865 76.7423L389.76 78.5311C394.564 76.1292 398.34 72.8068 401.058 68.5617L399.374 67.4832ZM388.871 76.7395C384.382 78.9495 379.007 80.0742 372.716 80.0742V82.0742C379.243 82.0742 384.933 80.9072 389.754 78.5339L388.871 76.7395ZM372.716 80.0742C367.71 80.0742 363.266 79.217 359.364 77.5249L358.568 79.3598C362.758 81.1769 367.48 82.0742 372.716 82.0742V80.0742ZM359.364 77.5249C355.451 75.8285 352.137 73.4103 349.408 70.2673L347.898 71.5784C350.827 74.9523 354.388 77.5472 358.568 79.3598L359.364 77.5249ZM349.416 70.2762C346.717 67.0926 344.628 63.2541 343.159 58.7431L341.257 59.3623C342.796 64.0896 345.004 68.1646 347.891 71.5695L349.416 70.2762ZM343.162 58.752C341.73 54.2112 341.006 49.0693 341.006 43.3154H339.006C339.006 49.2347 339.75 54.5844 341.254 59.3535L343.162 58.752ZM341.006 43.3154V38.5352H339.006V43.3154H341.006ZM341.006 38.5352C341.006 32.7855 341.764 27.6484 343.265 23.1119L341.366 22.4838C339.787 27.2572 339.006 32.6116 339.006 38.5352H341.006ZM343.265 23.1119C344.768 18.5673 346.909 14.7129 349.676 11.5302L348.167 10.2178C345.206 13.6237 342.942 17.7185 341.366 22.4838L343.265 23.1119ZM349.676 11.5302C352.444 8.34804 355.76 5.91228 359.635 4.21694L358.834 2.38462C354.688 4.1984 351.129 6.81146 348.167 10.2178L349.676 11.5302ZM359.635 4.21694C363.504 2.52438 367.841 1.66895 372.662 1.66895V-0.331055C367.601 -0.331055 362.986 0.568068 358.834 2.38462L359.635 4.21694ZM372.662 1.66895C379.206 1.66895 384.659 2.84779 389.064 5.15355L389.991 3.38161C385.229 0.889187 379.439 -0.331055 372.662 -0.331055V1.66895ZM389.064 5.15355C393.494 7.47249 396.898 10.6421 399.304 14.6638L401.02 13.637C398.413 9.2798 394.728 5.86085 389.991 3.38161L389.064 5.15355ZM399.307 14.6692C401.763 18.7166 403.243 23.3484 403.732 28.5841L405.723 28.3983C405.209 22.8918 403.646 17.9631 401.017 13.6316L399.307 14.6692ZM404.728 27.4912H387.271V29.4912H404.728V27.4912ZM388.27 28.4442C388.123 25.3071 387.53 22.6061 386.453 20.3758L384.652 21.2453C385.581 23.1686 386.134 25.5881 386.273 28.5382L388.27 28.4442ZM386.456 20.3818C385.36 18.0716 383.664 16.3168 381.393 15.1421L380.474 16.9185C382.357 17.8922 383.74 19.3242 384.649 21.2393L386.456 20.3818ZM381.393 15.1421C379.123 13.968 376.19 13.4189 372.662 13.4189V15.4189C376.009 15.4189 378.59 15.9441 380.474 16.9185L381.393 15.1421ZM372.662 13.4189C370.031 13.4189 367.673 13.908 365.615 14.9176L366.496 16.7132C368.234 15.8609 370.28 15.4189 372.662 15.4189V13.4189ZM365.608 14.921C363.565 15.9426 361.878 17.5258 360.539 19.6291L362.226 20.7029C363.395 18.8674 364.822 17.5503 366.503 16.7099L365.608 14.921ZM360.532 19.6402C359.235 21.7389 358.288 24.3664 357.663 27.4894L359.624 27.8817C360.217 24.9175 361.096 22.532 362.233 20.6918L360.532 19.6402ZM357.663 27.4872C357.038 30.5786 356.73 34.2291 356.73 38.4277H358.73C358.73 34.319 359.032 30.8081 359.624 27.8839L357.663 27.4872ZM356.73 38.4277V43.3154H358.73V38.4277H356.73ZM356.73 43.3154C356.73 47.4733 357.001 51.0979 357.552 54.1797L359.521 53.8281C358.997 50.8943 358.73 47.3932 358.73 43.3154H356.73ZM357.552 54.1797C358.104 57.2699 358.996 59.8824 360.257 61.9842L361.972 60.9552C360.87 59.1182 360.043 56.7535 359.521 53.8281L357.552 54.1797ZM360.264 61.9955C361.569 64.1067 363.258 65.708 365.333 66.7651L366.241 64.983C364.521 64.1065 363.095 62.7716 361.965 60.9439L360.264 61.9955ZM365.333 66.7651C367.405 67.8206 369.879 68.3242 372.716 68.3242V66.3242C370.11 66.3242 367.965 65.8611 366.241 64.983L365.333 66.7651ZM372.716 68.3242C375.927 68.3242 378.678 67.8269 380.926 66.7806L380.082 64.9674C378.176 65.8547 375.735 66.3242 372.716 66.3242V68.3242ZM380.939 66.7746C383.2 65.6827 384.948 64.0339 386.159 61.8466L384.409 60.878C383.4 62.7011 381.961 64.0602 380.069 64.9735L380.939 66.7746ZM386.159 61.8466C387.361 59.6748 388.031 56.9937 388.216 53.8478L386.219 53.7303C386.046 56.6717 385.427 59.0394 384.409 60.878L386.159 61.8466ZM449.146 1.79688H450.146V0.796875H449.146V1.79688ZM449.146 80V81H450.146V80H449.146ZM431.69 80H430.69V81H431.69V80ZM431.69 1.79688V0.796875H430.69V1.79688H431.69ZM472.94 1.79688H473.94V0.796875H472.94V1.79688ZM472.94 15.3857V16.3857H473.94V15.3857H472.94ZM408.38 15.3857H407.38V16.3857H408.38V15.3857ZM408.38 1.79688V0.796875H407.38V1.79688H408.38ZM448.146 1.79688V80H450.146V1.79688H448.146ZM449.146 79H431.69V81H449.146V79ZM432.69 80V1.79688H430.69V80H432.69ZM431.69 2.79688H449.146V0.796875H431.69V2.79688ZM471.94 1.79688V15.3857H473.94V1.79688H471.94ZM472.94 14.3857H408.38V16.3857H472.94V14.3857ZM409.38 15.3857V1.79688H407.38V15.3857H409.38ZM408.38 2.79688H472.94V0.796875H408.38V2.79688ZM520.689 55.8301L519.751 56.1744L519.754 56.1847L520.689 55.8301ZM518.541 52.876L519.194 52.1186L518.541 52.876ZM514.137 50.1904L513.696 51.0882L513.703 51.0916L513.71 51.0949L514.137 50.1904ZM506.671 47.3438L506.36 48.2944L506.371 48.2978L506.671 47.3438ZM496.627 43.4766L496.205 44.3831L496.217 44.3887L496.627 43.4766ZM482.34 31.6064L481.461 32.0828L481.466 32.0921L482.34 31.6064ZM482.447 13.5596L481.57 13.0799L482.447 13.5596ZM488.624 6.68457L489.206 7.49759L489.213 7.49236L488.624 6.68457ZM497.97 2.28027L498.239 3.24328L498.248 3.2407L497.97 2.28027ZM524.879 3.78418L524.453 4.68887L524.462 4.69301L524.879 3.78418ZM535.084 12.2705L534.252 12.8252L534.254 12.829L535.084 12.2705ZM538.736 24.8926V25.8926H539.736V24.8926H538.736ZM521.334 24.8926H520.334V25.8926H521.334V24.8926ZM519.991 19.3066L519.105 19.7692L519.111 19.7808L519.117 19.7923L519.991 19.3066ZM516.017 15.4395L515.548 16.3228L515.555 16.3267L516.017 15.4395ZM502.911 15.2246L503.312 16.1408L503.321 16.1369L502.911 15.2246ZM498.99 18.3398L498.162 17.78L498.156 17.7878L498.151 17.7957L498.99 18.3398ZM498.668 26.1279L497.818 26.6553L497.829 26.6726L497.84 26.6894L498.668 26.1279ZM501.568 28.9746L500.987 29.7883L501 29.7977L501.014 29.8067L501.568 28.9746ZM512.687 33.7012L512.988 32.7477L512.98 32.7453L512.973 32.743L512.687 33.7012ZM523.805 38.1055L523.357 38.9999L523.361 39.0019L523.805 38.1055ZM537.018 50.5127L536.099 50.9082L536.104 50.9188L537.018 50.5127ZM536.695 68.5059L535.803 68.0539L535.799 68.0634L536.695 68.5059ZM530.895 75.3809L531.491 76.1836L531.493 76.1822L530.895 75.3809ZM498.453 79.5703L498.192 80.5355L498.2 80.5377L498.453 79.5703ZM488.033 74.8438L487.467 75.6684L487.472 75.6714L488.033 74.8438ZM480.621 66.7871L479.746 67.272L479.753 67.2832L480.621 66.7871ZM477.882 55.0781V54.0781H476.882V55.0781H477.882ZM495.392 55.0781H496.392V54.0781H495.392V55.0781ZM496.412 61.0938L495.488 61.4755L495.491 61.4827L496.412 61.0938ZM499.312 65.0146L498.688 65.7956L498.699 65.804L499.312 65.0146ZM516.446 66.7334L516.852 67.6473L516.862 67.6431L516.446 66.7334ZM522.28 59.375C522.28 57.9518 522.069 56.6467 521.624 55.4754L519.754 56.1847C520.098 57.0903 520.28 58.1485 520.28 59.375H522.28ZM521.628 55.4858C521.165 54.2229 520.336 53.1029 519.194 52.1186L517.888 53.6334C518.823 54.4394 519.426 55.2888 519.751 56.1743L521.628 55.4858ZM519.194 52.1186C518.061 51.1419 516.504 50.2016 514.563 49.286L513.71 51.0949C515.565 51.9696 516.944 52.8197 517.888 53.6334L519.194 52.1186ZM514.577 49.2926C512.617 48.331 510.076 47.3646 506.97 46.3897L506.371 48.2978C509.425 49.2565 511.861 50.1879 513.696 51.0882L514.577 49.2926ZM506.981 46.3931C503.504 45.2577 500.19 43.9814 497.037 42.5644L496.217 44.3887C499.438 45.8364 502.819 47.1381 506.36 48.2944L506.981 46.3931ZM497.049 42.5701C493.96 41.1307 491.215 39.4685 488.811 37.5865L487.578 39.1615C490.115 41.1467 492.992 42.8862 496.205 44.383L497.049 42.5701ZM488.811 37.5865C486.438 35.73 484.577 33.5748 483.214 31.1208L481.466 32.0921C482.967 34.7944 485.009 37.1509 487.578 39.1615L488.811 37.5865ZM483.219 31.1302C481.915 28.7216 481.245 25.8829 481.245 22.583H479.245C479.245 26.1581 479.972 29.335 481.461 32.0827L483.219 31.1302ZM481.245 22.583C481.245 19.4054 481.944 16.565 483.325 14.0392L481.57 13.0799C480.014 15.9253 479.245 19.1004 479.245 22.583H481.245ZM483.325 14.0392C484.716 11.494 486.671 9.31364 489.206 7.49756L488.042 5.87158C485.278 7.85108 483.115 10.254 481.57 13.0799L483.325 14.0392ZM489.213 7.49236C491.755 5.63793 494.758 4.2179 498.239 3.24324L497.7 1.31731C494.02 2.34786 490.793 3.86402 488.035 5.87678L489.213 7.49236ZM498.248 3.2407C501.726 2.23218 505.569 1.72266 509.786 1.72266V-0.277344C505.409 -0.277344 501.375 0.251542 497.691 1.31984L498.248 3.2407ZM509.786 1.72266C515.396 1.72266 520.277 2.72172 524.453 4.68883L525.305 2.87953C520.815 0.764606 515.634 -0.277344 509.786 -0.277344V1.72266ZM524.462 4.69301C528.678 6.6285 531.93 9.34156 534.252 12.8252L535.916 11.7158C533.369 7.89476 529.816 4.95027 525.296 2.87535L524.462 4.69301ZM534.254 12.829C536.567 16.264 537.736 20.2725 537.736 24.8926H539.736C539.736 19.9163 538.471 15.5101 535.913 11.712L534.254 12.829ZM538.736 23.8926H521.334V25.8926H538.736V23.8926ZM522.334 24.8926C522.334 22.6351 521.854 20.6014 520.865 18.821L519.117 19.7923C519.918 21.2345 520.334 22.9248 520.334 24.8926H522.334ZM520.878 18.8441C519.915 16.9993 518.434 15.5693 516.478 14.5522L515.555 16.3267C517.18 17.1716 518.348 18.3197 519.105 19.7692L520.878 18.8441ZM516.485 14.5561C514.546 13.5272 512.171 13.043 509.41 13.043V15.043C511.949 15.043 513.978 15.4897 515.548 16.3228L516.485 14.5561ZM509.41 13.043C506.736 13.043 504.421 13.4506 502.502 14.3123L503.321 16.1369C504.911 15.4231 506.928 15.043 509.41 15.043V13.043ZM502.51 14.3085C500.649 15.1229 499.18 16.2727 498.162 17.78L499.819 18.8997C500.591 17.7572 501.736 16.8302 503.312 16.1408L502.51 14.3085ZM498.151 17.7957C497.187 19.2822 496.701 20.9213 496.701 22.6904H498.701C498.701 21.3085 499.075 20.0473 499.829 18.884L498.151 17.7957ZM496.701 22.6904C496.701 24.1251 497.073 25.4543 497.818 26.6553L499.518 25.6006C498.974 24.7247 498.701 23.7623 498.701 22.6904H496.701ZM497.84 26.6894C498.603 27.8126 499.662 28.8422 500.987 29.7883L502.15 28.1609C500.968 27.3167 500.094 26.4485 499.495 25.5664L497.84 26.6894ZM501.014 29.8067C502.368 30.7094 504.002 31.561 505.905 32.3663L506.685 30.5243C504.864 29.7541 503.347 28.9585 502.123 28.1426L501.014 29.8067ZM505.905 32.3663C507.808 33.1712 509.974 33.9351 512.4 34.6594L512.973 32.743C510.601 32.035 508.506 31.2949 506.685 30.5243L505.905 32.3663ZM512.385 34.6546C516.535 35.967 520.191 37.4165 523.357 38.9999L524.252 37.211C520.973 35.5718 517.217 34.0851 512.988 32.7477L512.385 34.6546ZM523.361 39.0019C526.552 40.5795 529.208 42.3549 531.346 44.3202L532.699 42.8478C530.397 40.731 527.575 38.8541 524.248 37.2091L523.361 39.0019ZM531.346 44.3202C533.47 46.2731 535.049 48.4688 536.099 50.9082L537.936 50.1172C536.766 47.4004 535.015 44.9769 532.699 42.8478L531.346 44.3202ZM536.104 50.9188C537.185 53.3508 537.736 56.1275 537.736 59.2676H539.736C539.736 55.8907 539.142 52.8309 537.931 50.1066L536.104 50.9188ZM537.736 59.2676C537.736 62.608 537.083 65.5285 535.803 68.0539L537.587 68.9578C539.029 66.1121 539.736 62.8737 539.736 59.2676H537.736ZM535.799 68.0634C534.548 70.5991 532.72 72.7704 530.296 74.5795L531.493 76.1822C534.154 74.1958 536.193 71.7838 537.592 68.9483L535.799 68.0634ZM530.298 74.5781C527.906 76.3552 525.015 77.7206 521.605 78.6599L522.137 80.5881C525.746 79.5938 528.87 78.1305 531.491 76.1836L530.298 74.5781ZM521.605 78.6599C518.197 79.5989 514.368 80.0742 510.108 80.0742V82.0742C514.514 82.0742 518.526 81.5828 522.137 80.5881L521.605 78.6599ZM510.108 80.0742C506.255 80.0742 502.455 79.584 498.706 78.6029L498.2 80.5377C502.114 81.5618 506.084 82.0742 510.108 82.0742V80.0742ZM498.715 78.6051C494.984 77.5941 491.613 76.0633 488.594 74.0161L487.472 75.6714C490.684 77.8495 494.259 79.4697 498.192 80.5355L498.715 78.6051ZM488.599 74.0191C485.644 71.9922 483.277 69.4192 481.489 66.291L479.753 67.2832C481.689 70.6719 484.263 73.47 487.467 75.6684L488.599 74.0191ZM481.496 66.3023C479.767 63.1831 478.882 59.4537 478.882 55.0781H476.882C476.882 59.726 477.823 63.8025 479.746 67.2719L481.496 66.3023ZM477.882 56.0781H495.392V54.0781H477.882V56.0781ZM494.392 55.0781C494.392 57.5319 494.744 59.6748 495.488 61.4755L497.336 60.712C496.719 59.2184 496.392 57.3509 496.392 55.0781H494.392ZM495.491 61.4827C496.23 63.2332 497.293 64.6798 498.688 65.7955L499.937 64.2338C498.825 63.3443 497.955 62.1769 497.333 60.7048L495.491 61.4827ZM498.699 65.804C500.117 66.9072 501.811 67.6788 503.756 68.1365L504.214 66.1897C502.507 65.788 501.086 65.1273 499.926 64.2253L498.699 65.804ZM503.756 68.1365C505.671 68.587 507.79 68.8076 510.108 68.8076V66.8076C507.915 66.8076 505.952 66.5986 504.214 66.1897L503.756 68.1365ZM510.108 68.8076C512.801 68.8076 515.067 68.4408 516.852 67.6472L516.04 65.8196C514.603 66.4583 512.644 66.8076 510.108 66.8076V68.8076ZM516.862 67.6431C518.654 66.825 520.041 65.684 520.952 64.1933L519.245 63.1504C518.581 64.2379 517.533 65.1379 516.031 65.8237L516.862 67.6431ZM520.952 64.1933C521.84 62.7403 522.28 61.1263 522.28 59.375H520.28C520.28 60.7748 519.933 62.0253 519.245 63.1504L520.952 64.1933Z" fill="#8C8888"/>
</svg>
