<svg width="621" height="88" viewBox="0 0 621 88" fill="none" xmlns="http://www.w3.org/2000/svg">
<path d="M66.4358 45.84L67.3031 46.3379L67.3069 46.331L66.4358 45.84ZM55.3958 56.16L54.9312 55.2744L54.9252 55.2776L55.3958 56.16ZM27.3158 60V59H26.3158V60H27.3158ZM27.3158 87V88H28.3158V87H27.3158ZM0.675781 87H-0.324219V88H0.675781V87ZM0.675781 2.04V1.04H-0.324219V2.04H0.675781ZM61.7558 9.96L61.0645 10.6827L61.0698 10.6876L61.7558 9.96ZM27.3158 23.4V22.4H26.3158V23.4H27.3158ZM27.3158 39H26.3158V40H27.3158V39ZM69.1558 31.2C69.1558 36.3989 67.955 41.1081 65.5646 45.349L67.3069 46.331C69.8766 41.7719 71.1558 36.7211 71.1558 31.2H69.1558ZM65.5685 45.3421C63.1931 49.48 59.6614 52.7931 54.9312 55.2745L55.8603 57.0455C60.8902 54.4069 64.7185 50.84 67.303 46.3379L65.5685 45.3421ZM54.9252 55.2776C50.3034 57.7426 44.6341 59 37.8758 59V61C44.8774 61 50.8882 59.6974 55.8664 57.0424L54.9252 55.2776ZM37.8758 59H27.3158V61H37.8758V59ZM26.3158 60V87H28.3158V60H26.3158ZM27.3158 86H0.675781V88H27.3158V86ZM1.67578 87V2.04H-0.324219V87H1.67578ZM0.675781 3.04H37.8758V1.04H0.675781V3.04ZM37.8758 3.04C48.1131 3.04 55.7894 5.63688 61.0646 10.6826L62.447 9.23736C56.6821 3.72312 48.4385 1.04 37.8758 1.04V3.04ZM61.0698 10.6876C66.438 15.7491 69.1558 22.5491 69.1558 31.2H71.1558C71.1558 22.0909 68.2736 14.7309 62.4418 9.23241L61.0698 10.6876ZM34.8758 40C37.7755 40 40.1364 39.3182 41.7715 37.7779C43.4178 36.227 44.1558 33.9699 44.1558 31.2H42.1558C42.1558 33.6301 41.5138 35.273 40.4001 36.3221C39.2752 37.3818 37.496 38 34.8758 38V40ZM44.1558 31.2C44.1558 28.4301 43.4178 26.173 41.7715 24.6221C40.1364 23.0818 37.7755 22.4 34.8758 22.4V24.4C37.496 24.4 39.2752 25.0182 40.4001 26.0779C41.5138 27.127 42.1558 28.7699 42.1558 31.2H44.1558ZM34.8758 22.4H27.3158V24.4H34.8758V22.4ZM26.3158 23.4V39H28.3158V23.4H26.3158ZM27.3158 40H34.8758V38H27.3158V40ZM121.325 87L120.44 87.4639L120.72 88H121.325V87ZM105.365 56.52L106.251 56.0561L105.971 55.52H105.365V56.52ZM105.245 56.52V55.52H104.245V56.52H105.245ZM105.245 87V88H106.245V87H105.245ZM78.6055 87H77.6055V88H78.6055V87ZM78.6055 2.04V1.04H77.6055V2.04H78.6055ZM135.845 5.75999L135.392 6.65156L135.404 6.65734L135.845 5.75999ZM146.765 15.72L145.895 16.2126L145.901 16.2224L145.907 16.2321L146.765 15.72ZM145.685 45L144.877 44.4118L144.87 44.4216L145.685 45ZM132.125 54.48L131.817 53.5288L130.65 53.9073L131.256 54.9741L132.125 54.48ZM150.605 87V88H152.324L151.475 86.5059L150.605 87ZM105.245 38.76H104.245V39.76H105.245V38.76ZM121.565 37.08L122.224 37.8326L122.237 37.8213L122.249 37.8095L121.565 37.08ZM121.445 26.28L120.738 26.9871L120.749 26.9978L120.76 27.0082L121.445 26.28ZM105.245 24.36V23.36H104.245V24.36H105.245ZM122.211 86.5361L106.251 56.0561L104.48 56.9839L120.44 87.4639L122.211 86.5361ZM105.365 55.52H105.245V57.52H105.365V55.52ZM104.245 56.52V87H106.245V56.52H104.245ZM105.245 86H78.6055V88H105.245V86ZM79.6055 87V2.04H77.6055V87H79.6055ZM78.6055 3.04H118.205V1.04H78.6055V3.04ZM118.205 3.04C124.967 3.04 130.684 4.25878 135.392 6.65148L136.299 4.86851C131.247 2.30122 125.203 1.04 118.205 1.04V3.04ZM135.404 6.65734C140.126 8.97934 143.606 12.1676 145.895 16.2126L147.636 15.2274C145.125 10.7924 141.325 7.34066 136.287 4.86264L135.404 6.65734ZM145.907 16.2321C148.286 20.2234 149.485 24.7635 149.485 29.88H151.485C151.485 24.4365 150.205 19.5366 147.624 15.2079L145.907 16.2321ZM149.485 29.88C149.485 35.3586 147.947 40.1906 144.877 44.4118L146.494 45.5882C149.824 41.0094 151.485 35.7614 151.485 29.88H149.485ZM144.87 44.4216C141.893 48.6198 137.565 51.6646 131.817 53.5288L132.434 55.4312C138.526 53.4554 143.238 50.1802 146.501 45.5784L144.87 44.4216ZM131.256 54.9741L149.736 87.4941L151.475 86.5059L132.995 53.9859L131.256 54.9741ZM150.605 86H121.325V88H150.605V86ZM105.245 39.76H115.805V37.76H105.245V39.76ZM115.805 39.76C118.489 39.76 120.689 39.1758 122.224 37.8326L120.907 36.3274C119.882 37.2242 118.242 37.76 115.805 37.76V39.76ZM122.249 37.8095C123.803 36.3532 124.485 34.1997 124.485 31.56H122.485C122.485 33.8803 121.888 35.4068 120.882 36.3505L122.249 37.8095ZM124.485 31.56C124.485 29.1037 123.731 27.058 122.131 25.5518L120.76 27.0082C121.88 28.062 122.485 29.5363 122.485 31.56H124.485ZM122.153 25.5729C120.624 24.0446 118.45 23.36 115.805 23.36V25.36C118.121 25.36 119.707 25.9554 120.738 26.9871L122.153 25.5729ZM115.805 23.36H105.245V25.36H115.805V23.36ZM104.245 24.36V38.76H106.245V24.36H104.245ZM178.316 82.2L177.823 83.0702L177.828 83.0727L178.316 82.2ZM162.476 66.6L161.615 67.1084L162.476 66.6ZM178.316 6.24L178.801 7.11466L178.804 7.11268L178.316 6.24ZM222.356 6.24L221.863 7.1102L221.871 7.11465L222.356 6.24ZM238.076 21.72L237.21 22.2206L237.215 22.2284L238.076 21.72ZM238.076 66.6L237.215 66.0916L237.21 66.0994L238.076 66.6ZM222.236 82.2L221.748 81.3273L221.743 81.3298L222.236 82.2ZM212.636 57.96L213.395 58.6108L213.403 58.6019L212.636 57.96ZM212.636 30.36L211.869 31.002L211.877 31.0108L212.636 30.36ZM188.036 30.36L188.795 31.0108L188.803 31.0019L188.036 30.36ZM188.036 57.96L187.269 58.602L187.277 58.6108L188.036 57.96ZM200.396 86.84C192.56 86.84 185.369 85.0005 178.804 81.3273L177.828 83.0727C184.703 86.9195 192.232 88.84 200.396 88.84V86.84ZM178.809 81.3298C172.323 77.657 167.169 72.5825 163.337 66.0916L161.615 67.1084C165.623 73.8975 171.029 79.223 177.823 83.0702L178.809 81.3298ZM163.337 66.0916C159.515 59.6177 157.596 52.3158 157.596 44.16H155.596C155.596 52.6442 157.597 60.3023 161.615 67.1084L163.337 66.0916ZM157.596 44.16C157.596 36.0042 159.515 28.7023 163.337 22.2284L161.615 21.2116C157.597 28.0177 155.596 35.6758 155.596 44.16H157.596ZM163.337 22.2284C167.168 15.7393 172.319 10.7069 178.801 7.11465L177.831 5.36534C171.033 9.13313 165.624 14.4207 161.615 21.2116L163.337 22.2284ZM178.804 7.11268C185.369 3.43948 192.56 1.6 200.396 1.6V-0.400003C192.232 -0.400003 184.703 1.52051 177.828 5.36731L178.804 7.11268ZM200.396 1.6C208.232 1.6 215.381 3.43945 221.863 7.11017L222.849 5.36982C216.051 1.52054 208.56 -0.400003 200.396 -0.400003V1.6ZM221.871 7.11465C228.351 10.7058 233.46 15.7358 237.21 22.2206L238.942 21.2194C235.012 14.4242 229.641 9.13415 222.841 5.36534L221.871 7.11465ZM237.215 22.2284C241.037 28.7023 242.956 36.0042 242.956 44.16H244.956C244.956 35.6758 242.955 28.0177 238.937 21.2116L237.215 22.2284ZM242.956 44.16C242.956 52.3158 241.037 59.6177 237.215 66.0916L238.937 67.1084C242.955 60.3023 244.956 52.6442 244.956 44.16H242.956ZM237.21 66.0994C233.461 72.583 228.311 77.6548 221.748 81.3273L222.724 83.0727C229.601 79.2252 235.011 73.897 238.942 67.1006L237.21 66.0994ZM221.743 81.3298C215.259 85.0014 208.15 86.84 200.396 86.84V88.84C208.482 88.84 215.933 86.9186 222.729 83.0702L221.743 81.3298ZM200.396 64C205.906 64 210.288 62.2355 213.395 58.6108L211.877 57.3092C209.224 60.4045 205.446 62 200.396 62V64ZM213.403 58.6019C216.472 54.9359 217.956 50.0867 217.956 44.16H215.956C215.956 49.7533 214.56 54.1041 211.869 57.3181L213.403 58.6019ZM217.956 44.16C217.956 38.1586 216.475 33.3016 213.395 29.7092L211.877 31.0108C214.558 34.1384 215.956 38.4813 215.956 44.16H217.956ZM213.403 29.7181C210.298 26.0101 205.914 24.2 200.396 24.2V26.2C205.438 26.2 209.214 27.8299 211.869 31.0019L213.403 29.7181ZM200.396 24.2C194.804 24.2 190.377 26.0065 187.269 29.7181L188.803 31.0019C191.455 27.8335 195.268 26.2 200.396 26.2V24.2ZM187.277 29.7092C184.198 33.3016 182.716 38.1586 182.716 44.16H184.716C184.716 38.4813 186.115 34.1384 188.795 31.0108L187.277 29.7092ZM182.716 44.16C182.716 50.0867 184.2 54.9359 187.269 58.6019L188.803 57.3181C186.112 54.1041 184.716 49.7533 184.716 44.16H182.716ZM187.277 58.6108C190.387 62.239 194.812 64 200.396 64V62C195.261 62 191.445 60.401 188.795 57.3092L187.277 58.6108ZM312.846 2.04H313.846V1.04H312.846V2.04ZM304.806 80.04L305.508 80.7525L305.508 80.7524L304.806 80.04ZM257.886 79.32L258.569 78.5893L257.886 79.32ZM248.766 54.48V53.48H247.766V54.48H248.766ZM275.046 54.48H276.046V53.48H275.046V54.48ZM276.726 61.8L275.937 62.4139L275.946 62.4249L275.954 62.4357L276.726 61.8ZM285.006 62.28L284.243 61.6341L285.006 62.28ZM286.326 2.04V1.04H285.326V2.04H286.326ZM311.846 2.04V56.88H313.846V2.04H311.846ZM311.846 56.88C311.846 66.8689 309.214 74.294 304.105 79.3276L305.508 80.7524C311.118 75.226 313.846 67.2111 313.846 56.88H311.846ZM304.105 79.3275C299.062 84.2934 291.905 86.84 282.486 86.84V88.84C292.268 88.84 299.99 86.1865 305.508 80.7525L304.105 79.3275ZM282.486 86.84C272.356 86.84 264.422 84.0571 258.569 78.5893L257.204 80.0507C263.511 85.9429 271.977 88.84 282.486 88.84V86.84ZM258.569 78.5893C252.749 73.1519 249.766 65.1726 249.766 54.48H247.766C247.766 65.5474 250.864 74.1281 257.204 80.0507L258.569 78.5893ZM248.766 55.48H275.046V53.48H248.766V55.48ZM274.046 54.48C274.046 57.9722 274.604 60.6997 275.937 62.4139L277.516 61.1861C276.609 60.0203 276.046 57.8678 276.046 54.48H274.046ZM275.954 62.4357C277.283 64.0489 279.098 64.84 281.286 64.84V62.84C279.635 62.84 278.41 62.271 277.498 61.1643L275.954 62.4357ZM281.286 64.84C283.124 64.84 284.666 64.2305 285.77 62.9259L284.243 61.6341C283.587 62.4095 282.649 62.84 281.286 62.84V64.84ZM285.77 62.9259C286.889 61.6032 287.326 59.4947 287.326 56.88H285.326C285.326 59.3853 284.884 60.8768 284.243 61.6341L285.77 62.9259ZM287.326 56.88V2.04H285.326V56.88H287.326ZM286.326 3.04H312.846V1.04H286.326V3.04ZM350.988 23.28V22.28H349.988V23.28H350.988ZM350.988 33.72H349.988V34.72H350.988V33.72ZM377.388 33.72H378.388V32.72H377.388V33.72ZM377.388 53.76V54.76H378.388V53.76H377.388ZM350.988 53.76V52.76H349.988V53.76H350.988ZM350.988 65.76H349.988V66.76H350.988V65.76ZM380.988 65.76H381.988V64.76H380.988V65.76ZM380.988 87V88H381.988V87H380.988ZM324.348 87H323.348V88H324.348V87ZM324.348 2.04V1.04H323.348V2.04H324.348ZM380.988 2.04H381.988V1.04H380.988V2.04ZM380.988 23.28V24.28H381.988V23.28H380.988ZM349.988 23.28V33.72H351.988V23.28H349.988ZM350.988 34.72H377.388V32.72H350.988V34.72ZM376.388 33.72V53.76H378.388V33.72H376.388ZM377.388 52.76H350.988V54.76H377.388V52.76ZM349.988 53.76V65.76H351.988V53.76H349.988ZM350.988 66.76H380.988V64.76H350.988V66.76ZM379.988 65.76V87H381.988V65.76H379.988ZM380.988 86H324.348V88H380.988V86ZM325.348 87V2.04H323.348V87H325.348ZM324.348 3.04H380.988V1.04H324.348V3.04ZM379.988 2.04V23.28H381.988V2.04H379.988ZM380.988 22.28H350.988V24.28H380.988V22.28ZM393.667 21.96L392.782 21.4956L392.777 21.5041L393.667 21.96ZM408.307 6.72L408.802 7.58895L408.811 7.58417L408.307 6.72ZM450.307 5.4L449.87 6.29937L449.878 6.303L449.885 6.3065L450.307 5.4ZM464.467 17.04L463.654 17.6213L463.66 17.6297L464.467 17.04ZM471.787 34.68V35.68H472.982L472.772 34.5042L471.787 34.68ZM443.707 34.68L442.798 35.0958L443.065 35.68H443.707V34.68ZM438.187 28.2L437.62 29.0232L437.636 29.0343L437.652 29.0448L438.187 28.2ZM419.467 30.84L418.681 30.2222L418.676 30.228L418.672 30.234L419.467 30.84ZM419.467 57.96L418.672 58.566L418.676 58.572L418.681 58.5778L419.467 57.96ZM438.187 60.72L438.735 61.5565L438.742 61.552L438.187 60.72ZM443.707 54.12V53.12H443.065L442.798 53.7042L443.707 54.12ZM471.787 54.12L472.772 54.2958L472.982 53.12H471.787V54.12ZM464.467 71.76L463.66 71.1703L463.654 71.1788L464.467 71.76ZM450.307 83.52L450.734 84.4243L450.74 84.4217L450.307 83.52ZM408.307 82.2L407.804 83.0642L407.812 83.0689L408.307 82.2ZM393.667 66.84L392.777 67.2959L392.782 67.3044L393.667 66.84ZM389.627 44.4C389.627 36.1362 391.279 28.8162 394.557 22.4159L392.777 21.5041C389.336 28.2238 387.627 35.8638 387.627 44.4H389.627ZM394.553 22.4244C397.906 16.0305 402.652 11.0924 408.802 7.58892L407.812 5.85108C401.323 9.5476 396.309 14.7695 392.782 21.4956L394.553 22.4244ZM408.811 7.58417C414.953 4.00728 422.214 2.2 430.627 2.2V0.199996C421.921 0.199996 414.301 2.07271 407.804 5.85582L408.811 7.58417ZM430.627 2.2C437.858 2.2 444.265 3.57481 449.87 6.29937L450.745 4.50063C444.829 1.62518 438.116 0.199996 430.627 0.199996V2.2ZM449.885 6.3065C455.575 8.95671 460.158 12.7274 463.654 17.6212L465.281 16.4588C461.577 11.2726 456.719 7.28329 450.73 4.4935L449.885 6.3065ZM463.66 17.6297C467.242 22.5358 469.627 28.2711 470.803 34.8558L472.772 34.5042C471.548 27.6489 469.053 21.6242 465.275 16.4503L463.66 17.6297ZM471.787 33.68H443.707V35.68H471.787V33.68ZM444.617 34.2642C443.263 31.3034 441.3 28.9876 438.722 27.3552L437.652 29.0448C439.875 30.4524 441.591 32.4566 442.798 35.0958L444.617 34.2642ZM438.755 27.3768C436.255 25.6525 433.373 24.8 430.147 24.8V26.8C433.001 26.8 435.48 27.5475 437.62 29.0232L438.755 27.3768ZM430.147 24.8C425.378 24.8 421.521 26.6076 418.681 30.2222L420.254 31.4578C422.694 28.3523 425.957 26.8 430.147 26.8V24.8ZM418.672 30.234C415.94 33.8195 414.627 38.5759 414.627 44.4H416.627C416.627 38.8641 417.875 34.5805 420.263 31.446L418.672 30.234ZM414.627 44.4C414.627 50.2241 415.94 54.9805 418.672 58.566L420.263 57.354C417.875 54.2195 416.627 49.9359 416.627 44.4H414.627ZM418.681 58.5778C421.521 62.1923 425.378 64 430.147 64V62C425.957 62 422.694 60.4477 420.254 57.3422L418.681 58.5778ZM430.147 64C433.363 64 436.237 63.1934 438.735 61.5565L437.639 59.8835C435.498 61.2866 433.012 62 430.147 62V64ZM438.742 61.552C441.307 59.8419 443.265 57.4929 444.617 54.5358L442.798 53.7042C441.59 56.3471 439.867 58.3981 437.633 59.8879L438.742 61.552ZM443.707 55.12H471.787V53.12H443.707V55.12ZM470.803 53.9442C469.627 60.5289 467.242 66.2642 463.66 71.1703L465.275 72.3497C469.053 67.1758 471.548 61.1511 472.772 54.2958L470.803 53.9442ZM463.654 71.1788C460.156 76.0751 455.57 79.8878 449.875 82.6183L450.74 84.4217C456.725 81.5522 461.578 77.5249 465.281 72.3412L463.654 71.1788ZM449.88 82.6158C444.273 85.2636 437.863 86.6 430.627 86.6V88.6C438.112 88.6 444.822 87.2164 450.734 84.4242L449.88 82.6158ZM430.627 86.6C422.21 86.6 414.947 84.8311 408.802 81.3311L407.812 83.0689C414.308 86.7689 421.925 88.6 430.627 88.6V86.6ZM408.811 81.3358C402.655 77.7517 397.907 72.7713 394.553 66.3756L392.782 67.3044C396.308 74.0287 401.319 79.2883 407.804 83.0642L408.811 81.3358ZM394.557 66.3841C391.279 59.9838 389.627 52.6638 389.627 44.4H387.627C387.627 52.9362 389.336 60.5762 392.777 67.2959L394.557 66.3841ZM548.099 2.04H549.099V1.04H548.099V2.04ZM548.099 23.16V24.16H549.099V23.16H548.099ZM525.539 23.16V22.16H524.539V23.16H525.539ZM525.539 87V88H526.539V87H525.539ZM498.899 87H497.899V88H498.899V87ZM498.899 23.16H499.899V22.16H498.899V23.16ZM476.579 23.16H475.579V24.16H476.579V23.16ZM476.579 2.04V1.04H475.579V2.04H476.579ZM547.099 2.04V23.16H549.099V2.04H547.099ZM548.099 22.16H525.539V24.16H548.099V22.16ZM524.539 23.16V87H526.539V23.16H524.539ZM525.539 86H498.899V88H525.539V86ZM499.899 87V23.16H497.899V87H499.899ZM498.899 22.16H476.579V24.16H498.899V22.16ZM477.579 23.16V2.04H475.579V23.16H477.579ZM476.579 3.04H548.099V1.04H476.579V3.04ZM563.364 80.76L562.774 81.5671L562.785 81.5751L563.364 80.76ZM552.684 59.76V58.76H551.622L551.686 59.8208L552.684 59.76ZM581.004 59.76L582.001 59.6783L581.926 58.76H581.004V59.76ZM591.084 66.12L591.639 66.952L591.646 66.9472L591.653 66.9422L591.084 66.12ZM589.404 58.08L588.894 58.9403L588.906 58.9474L588.919 58.9542L589.404 58.08ZM579.324 53.76L578.991 54.703L578.993 54.7036L579.324 53.76ZM565.764 48.12L565.301 49.0063L565.309 49.0104L565.764 48.12ZM556.644 40.08L557.453 39.4918L556.644 40.08ZM552.924 26.52L553.924 26.5345L553.924 26.5272V26.52H552.924ZM557.124 12.48L556.318 11.8879L556.316 11.8908L557.124 12.48ZM568.764 3.59999L568.39 2.67254L568.385 2.67469L568.764 3.59999ZM610.164 7.8L609.545 8.5849L609.55 8.5888L610.164 7.8ZM619.884 28.08V29.08H620.922L620.884 28.0433L619.884 28.08ZM591.204 28.08L590.205 28.1133L590.237 29.08H591.204V28.08ZM589.404 22.92L588.724 23.6528L589.404 22.92ZM582.564 22.56L583.271 23.2671L583.29 23.2485L583.307 23.229L582.564 22.56ZM584.604 30.48L584.08 31.3317L584.099 31.3433L584.119 31.3542L584.604 30.48ZM594.804 34.92L594.45 35.855L594.455 35.8569L594.804 34.92ZM608.004 40.68L607.533 41.5618L607.541 41.5662L608.004 40.68ZM617.124 48.36L616.336 48.9753V48.9753L617.124 48.36ZM617.124 74.76L617.971 75.2915L617.976 75.2841L617.124 74.76ZM605.964 84.36L605.535 83.4569L605.964 84.36ZM588.564 86.84C578.56 86.84 570.377 84.5178 563.944 79.9449L562.785 81.5751C569.632 86.4422 578.248 88.84 588.564 88.84V86.84ZM563.955 79.953C557.669 75.3535 554.227 68.6469 553.682 59.6992L551.686 59.8208C552.261 69.2731 555.94 76.5665 562.774 81.567L563.955 79.953ZM552.684 60.76H581.004V58.76H552.684V60.76ZM580.008 59.8417C580.217 62.3943 580.896 64.4678 582.175 65.9128C583.484 67.3905 585.301 68.08 587.484 68.08V66.08C585.747 66.08 584.525 65.5495 583.673 64.5872C582.792 63.5922 582.192 62.0057 582.001 59.6783L580.008 59.8417ZM587.484 68.08C589.073 68.08 590.478 67.7259 591.639 66.952L590.53 65.2879C589.77 65.7941 588.776 66.08 587.484 66.08V68.08ZM591.653 66.9422C593.004 66.0073 593.644 64.5955 593.644 62.88H591.644C591.644 64.0445 591.245 64.7927 590.515 65.2978L591.653 66.9422ZM593.644 62.88C593.644 60.4262 592.279 58.5333 589.89 57.2058L588.919 58.9542C590.849 60.0267 591.644 61.3338 591.644 62.88H593.644ZM589.914 57.2197C587.667 55.8881 584.232 54.4221 579.655 52.8164L578.993 54.7036C583.537 56.2979 586.821 57.7119 588.894 58.9403L589.914 57.2197ZM579.657 52.817C574.243 50.9061 569.767 49.0428 566.219 47.2296L565.309 49.0104C568.961 50.8772 573.526 52.7739 578.991 54.703L579.657 52.817ZM566.227 47.2338C562.857 45.4718 559.931 42.8993 557.453 39.4918L555.836 40.6682C558.477 44.3007 561.632 47.0882 565.301 49.0062L566.227 47.2338ZM557.453 39.4918C555.051 36.1889 553.846 31.8968 553.924 26.5345L551.924 26.5055C551.842 32.1832 553.118 36.9311 555.836 40.6682L557.453 39.4918ZM553.924 26.52C553.924 21.1764 555.276 16.7115 557.932 13.0692L556.316 11.8908C553.372 15.9285 551.924 20.8236 551.924 26.52H553.924ZM557.93 13.0721C560.692 9.31269 564.419 6.46166 569.143 4.5253L568.385 2.67469C563.35 4.73834 559.316 7.8073 556.318 11.8879L557.93 13.0721ZM569.138 4.52744C573.963 2.58207 579.393 1.6 585.444 1.6V-0.400003C579.175 -0.400003 573.486 0.617921 568.39 2.67255L569.138 4.52744ZM585.444 1.6C595.696 1.6 603.693 3.96531 609.545 8.58488L610.784 7.01511C604.475 2.03468 595.992 -0.400003 585.444 -0.400003V1.6ZM609.55 8.5888C615.447 13.1845 618.574 19.6529 618.885 28.1167L620.884 28.0433C620.554 19.0671 617.201 12.0155 610.779 7.0112L609.55 8.5888ZM619.884 27.08H591.204V29.08H619.884V27.08ZM592.204 28.0467C592.12 25.528 591.487 23.489 590.085 22.1872L588.724 23.6528C589.562 24.431 590.129 25.832 590.205 28.1133L592.204 28.0467ZM590.085 22.1872C588.77 20.9668 587.164 20.36 585.324 20.36V22.36C586.685 22.36 587.798 22.7932 588.724 23.6528L590.085 22.1872ZM585.324 20.36C583.934 20.36 582.739 20.8708 581.821 21.891L583.307 23.229C583.829 22.6492 584.475 22.36 585.324 22.36V20.36ZM581.857 21.8529C580.893 22.8167 580.484 24.1467 580.484 25.68H582.484C582.484 24.4933 582.795 23.7433 583.271 23.2671L581.857 21.8529ZM580.484 25.68C580.484 28.0431 581.796 29.9263 584.08 31.3317L585.128 29.6283C583.252 28.4737 582.484 27.1569 582.484 25.68H580.484ZM584.119 31.3542C586.344 32.5907 589.8 34.0913 594.45 35.855L595.159 33.985C590.529 32.2287 587.184 30.7693 585.09 29.6058L584.119 31.3542ZM594.455 35.8569C599.79 37.8478 604.146 39.7501 607.533 41.5618L608.476 39.7982C604.983 37.9299 600.538 35.9922 595.154 33.9831L594.455 35.8569ZM607.541 41.5662C610.929 43.337 613.859 45.8023 616.336 48.9753L617.913 47.7447C615.269 44.3577 612.12 41.703 608.467 39.7938L607.541 41.5662ZM616.336 48.9753C618.734 52.0475 619.964 55.9386 619.964 60.72H621.964C621.964 55.5814 620.635 51.2325 617.913 47.7447L616.336 48.9753ZM619.964 60.72C619.964 65.7474 618.729 70.2438 616.273 74.2359L617.976 75.2841C620.639 70.9562 621.964 66.0926 621.964 60.72H619.964ZM616.277 74.2285C613.83 78.1283 610.265 81.2083 605.535 83.4569L606.394 85.2631C611.424 82.8717 615.298 79.5517 617.971 75.2915L616.277 74.2285ZM605.535 83.4569C600.818 85.6995 595.171 86.84 588.564 86.84V88.84C595.397 88.84 601.351 87.6605 606.394 85.2631L605.535 83.4569Z" fill="#FAF2F2"/>
</svg>
