<svg width="591" height="89" viewBox="0 0 591 89" fill="none" xmlns="http://www.w3.org/2000/svg">
<path d="M13.4258 58.0547H12.4258V59.0547H13.4258V58.0547ZM13.4258 42.1758V41.1758H12.4258V42.1758H13.4258ZM45.5938 36.668L44.6953 36.2287L44.6913 36.2372L45.5938 36.668ZM45.5938 24.2461L44.6691 24.6268L44.6722 24.6345L44.6755 24.6422L45.5938 24.2461ZM41.668 19.4414L41.0969 20.2623L41.103 20.2665L41.1091 20.2707L41.668 19.4414ZM21.1602 17.5664V16.5664H20.1602V17.5664H21.1602ZM21.1602 87V88H22.1602V87H21.1602ZM0.59375 87H-0.40625V88H0.59375V87ZM0.59375 1.6875V0.6875H-0.40625V1.6875H0.59375ZM52.2734 5.4375L51.8206 6.32908L51.8234 6.33052L52.2734 5.4375ZM63.6992 15.75L62.8444 16.269L62.8465 16.2724L63.6992 15.75ZM52.2734 54.6562L52.6916 55.5646L52.6948 55.5632L52.2734 54.6562ZM34.6367 57.0547H13.4258V59.0547H34.6367V57.0547ZM14.4258 58.0547V42.1758H12.4258V58.0547H14.4258ZM13.4258 43.1758H34.6367V41.1758H13.4258V43.1758ZM34.6367 43.1758C37.6292 43.1758 40.154 42.6719 42.1455 41.5896L41.1905 39.8323C39.5882 40.7031 37.4255 41.1758 34.6367 41.1758V43.1758ZM42.1455 41.5896C44.1132 40.5201 45.5782 39.0222 46.4962 37.0987L44.6913 36.2372C43.9687 37.7512 42.8165 38.9486 41.1905 39.8323L42.1455 41.5896ZM46.4921 37.1072C47.4259 35.1972 47.8828 33.0716 47.8828 30.75H45.8828C45.8828 32.8034 45.4804 34.6231 44.6954 36.2288L46.4921 37.1072ZM47.8828 30.75C47.8828 28.2811 47.4295 25.977 46.512 23.85L44.6755 24.6422C45.4767 26.4995 45.8828 28.5314 45.8828 30.75H47.8828ZM46.5184 23.8653C45.6226 21.6897 44.1862 19.9326 42.2268 18.6121L41.1091 20.2707C42.7435 21.3721 43.9243 22.8181 44.6691 24.6268L46.5184 23.8653ZM42.239 18.6205C40.2283 17.2217 37.6669 16.5664 34.6367 16.5664V18.5664C37.3878 18.5664 39.5139 19.1611 41.0969 20.2623L42.239 18.6205ZM34.6367 16.5664H21.1602V18.5664H34.6367V16.5664ZM20.1602 17.5664V87H22.1602V17.5664H20.1602ZM21.1602 86H0.59375V88H21.1602V86ZM1.59375 87V1.6875H-0.40625V87H1.59375ZM0.59375 2.6875H34.6367V0.6875H0.59375V2.6875ZM34.6367 2.6875C41.3521 2.6875 47.0685 3.91533 51.8206 6.32908L52.7263 4.54592C47.6346 1.95967 41.5932 0.6875 34.6367 0.6875V2.6875ZM51.8234 6.33052C56.6319 8.75369 60.2937 12.0677 62.8444 16.269L64.554 15.231C61.7923 10.6823 57.8369 7.12131 52.7235 4.54448L51.8234 6.33052ZM62.8465 16.2724C65.3971 20.4358 66.6836 25.2125 66.6836 30.6328H68.6836C68.6836 24.8813 67.3139 19.736 64.5519 15.2276L62.8465 16.2724ZM66.6836 30.6328C66.6836 35.973 65.3983 40.5836 62.8599 44.5033L64.5386 45.5905C67.3126 41.307 68.6836 36.3082 68.6836 30.6328H66.6836ZM62.8599 44.5033C60.3179 48.4284 56.6633 51.5142 51.8521 53.7493L52.6948 55.5632C57.8055 53.1889 61.7681 49.8685 64.5386 45.5905L62.8599 44.5033ZM51.8553 53.7479C47.0942 55.9395 41.3649 57.0547 34.6367 57.0547V59.0547C41.5804 59.0547 47.609 57.9042 52.6916 55.5646L51.8553 53.7479ZM78.7578 1.6875V0.6875H77.7578V1.6875H78.7578ZM129.441 4.61719L129.067 5.54463L129.441 4.61719ZM140.633 13.2891L139.807 13.8535L139.811 13.8591L140.633 13.2891ZM135.945 47.8594L136.562 48.6469L136.563 48.6457L135.945 47.8594ZM126.512 53.0742L126.156 52.1396L126.085 52.1665L126.02 52.2037L126.512 53.0742ZM119.773 56.8828V57.8828H120.036L120.265 57.7534L119.773 56.8828ZM91.5898 56.8828L90.5899 56.8902L90.5972 57.8828H91.5898V56.8828ZM91.4727 41.0039V40.0039H90.4652L90.4727 41.0113L91.4727 41.0039ZM122.703 35.6133L121.813 35.1582L121.809 35.1661L122.703 35.6133ZM118.719 18.9727L118.24 19.8506L118.248 19.855L118.719 18.9727ZM99.3242 17.5664V16.5664H98.3242V17.5664H99.3242ZM99.3242 87V88H100.324V87H99.3242ZM78.7578 87H77.7578V88H78.7578V87ZM125.457 87L124.563 87.4472L124.839 88H125.457V87ZM106.59 49.2656L106.584 48.2656L104.976 48.2743L105.695 49.7128L106.59 49.2656ZM128.387 49.1484L129.275 48.6894L128.994 48.1452L128.381 48.1485L128.387 49.1484ZM147.488 86.1211H148.488V85.878L148.377 85.6621L147.488 86.1211ZM147.488 87V88H148.488V87H147.488ZM78.7578 2.6875H112.332V0.6875H78.7578V2.6875ZM112.332 2.6875C118.798 2.6875 124.369 3.64999 129.067 5.54463L129.815 3.68975C124.827 1.67813 118.991 0.6875 112.332 0.6875V2.6875ZM129.067 5.54463C133.752 7.43358 137.315 10.2083 139.807 13.8534L141.458 12.7247C138.716 8.71358 134.818 5.70704 129.815 3.68975L129.067 5.54463ZM139.811 13.8591C142.329 17.4877 143.617 22.0046 143.617 27.4688H145.617C145.617 21.6829 144.249 16.7466 141.454 12.719L139.811 13.8591ZM143.617 27.4688C143.617 32.2543 142.87 36.1821 141.425 39.2937L143.239 40.136C144.841 36.6851 145.617 32.4488 145.617 27.4688H143.617ZM141.425 39.2937C139.965 42.4381 137.933 45.0259 135.327 47.0731L136.563 48.6457C139.426 46.396 141.652 43.5541 143.239 40.136L141.425 39.2937ZM135.329 47.0719C132.722 49.1123 129.668 50.8037 126.156 52.1396L126.867 54.0089C130.543 52.6103 133.778 50.8252 136.562 48.6469L135.329 47.0719ZM126.02 52.2037L119.281 56.0122L120.265 57.7534L127.004 53.9448L126.02 52.2037ZM119.773 55.8828H91.5898V57.8828H119.773V55.8828ZM92.5898 56.8754L92.4726 40.9965L90.4727 41.0113L90.5899 56.8902L92.5898 56.8754ZM91.4727 42.0039H112.332V40.0039H91.4727V42.0039ZM112.332 42.0039C115.062 42.0039 117.408 41.5156 119.315 40.4756L118.357 38.7198C116.826 39.5547 114.836 40.0039 112.332 40.0039V42.0039ZM119.315 40.4756C121.209 39.4422 122.645 37.9655 123.598 36.0605L121.809 35.1661C121.042 36.6986 119.9 37.8781 118.357 38.7198L119.315 40.4756ZM123.594 36.0684C124.579 34.1413 125.051 31.8885 125.051 29.3438H123.051C123.051 31.6427 122.625 33.5697 121.813 35.1582L123.594 36.0684ZM125.051 29.3438C125.051 26.7628 124.58 24.4897 123.594 22.5605L121.813 23.4707C122.624 25.0572 123.051 27.0028 123.051 29.3438H125.051ZM123.594 22.5605C122.601 20.619 121.126 19.123 119.189 18.0903L118.248 19.855C119.827 20.6973 121.008 21.8967 121.813 23.4707L123.594 22.5605ZM119.198 18.0948C117.295 17.0568 114.99 16.5664 112.332 16.5664V18.5664C114.752 18.5664 116.705 19.0135 118.24 19.8506L119.198 18.0948ZM112.332 16.5664H99.3242V18.5664H112.332V16.5664ZM98.3242 17.5664V87H100.324V17.5664H98.3242ZM99.3242 86H78.7578V88H99.3242V86ZM79.7578 87V1.6875H77.7578V87H79.7578ZM126.351 86.5528L107.484 48.8184L105.695 49.7128L124.563 87.4472L126.351 86.5528ZM106.595 50.2656L128.392 50.1484L128.381 48.1485L106.584 48.2656L106.595 50.2656ZM127.498 49.6074L146.6 86.5801L148.377 85.6621L129.275 48.6894L127.498 49.6074ZM146.488 86.1211V87H148.488V86.1211H146.488ZM147.488 86H125.457V88H147.488V86ZM226.473 63.6797L225.53 63.3465L225.528 63.3506L226.473 63.6797ZM218.797 76.9219L219.535 77.5965L219.539 77.5926L218.797 76.9219ZM207.02 85.3008L207.409 86.222L207.415 86.2191L207.02 85.3008ZM176.902 85.3008L176.507 86.2192L176.516 86.2232L176.902 85.3008ZM165.066 76.9219L164.325 77.5926L164.332 77.6008L165.066 76.9219ZM157.332 63.6797L156.387 64.0066L156.39 64.0151L157.332 63.6797ZM157.332 25.0664L156.389 24.7332L156.387 24.7395L157.332 25.0664ZM165.008 11.8242L164.266 11.1535L164.266 11.1539L165.008 11.8242ZM176.785 3.44531L177.174 4.36651L177.178 4.36486L176.785 3.44531ZM206.902 3.44531L206.507 4.36369L206.516 4.36769L206.902 3.44531ZM218.738 11.8242L217.997 12.4949L218 12.4989L218.738 11.8242ZM207.254 31.3945L206.277 31.6065L206.28 31.6203L207.254 31.3945ZM204.09 23.25L203.249 23.7908L204.09 23.25ZM198.875 18.3281L198.388 19.2015L198.398 19.207L198.408 19.2123L198.875 18.3281ZM184.754 18.3281L185.228 19.2086L185.235 19.2051L185.241 19.2015L184.754 18.3281ZM176.551 31.3945L175.573 31.1826L175.572 31.1915L176.551 31.3945ZM176.551 57.2344L175.571 57.435L175.574 57.4488L176.551 57.2344ZM179.656 65.3789L178.804 65.9022L178.811 65.9129L179.656 65.3789ZM184.812 70.418L184.325 71.2914L184.332 71.2952L184.812 70.418ZM198.992 70.418L199.479 71.2913L198.992 70.418ZM204.09 65.3789L203.244 64.8449L203.238 64.8556L204.09 65.3789ZM207.254 57.2344L206.279 57.0112L206.277 57.02L207.254 57.2344ZM228.227 42.6445V46.1016H230.227V42.6445H228.227ZM228.227 46.1016C228.227 52.5319 227.322 58.2758 225.53 63.3465L227.416 64.0129C229.296 58.6929 230.227 52.7181 230.227 46.1016H228.227ZM225.528 63.3506C223.771 68.3936 221.277 72.6882 218.055 76.2512L219.539 77.5926C222.957 73.8118 225.581 69.2782 227.417 64.0088L225.528 63.3506ZM218.059 76.2472C214.834 79.7752 211.025 82.4853 206.624 84.3825L207.415 86.2191C212.076 84.2101 216.119 81.3342 219.535 77.5965L218.059 76.2472ZM206.63 84.3796C202.235 86.2361 197.37 87.1719 192.02 87.1719V89.1719C197.607 89.1719 202.741 88.1936 207.409 86.222L206.63 84.3796ZM192.02 87.1719C186.63 87.1719 181.724 86.2358 177.289 84.3784L176.516 86.2232C181.222 88.1939 186.394 89.1719 192.02 89.1719V87.1719ZM177.298 84.3825C172.896 82.4848 169.065 79.7735 165.801 76.2429L164.332 77.6008C167.786 81.3359 171.847 84.2105 176.507 86.2191L177.298 84.3825ZM165.808 76.2512C162.585 72.6866 160.071 68.3898 158.274 63.3443L156.39 64.0151C158.265 69.2821 160.907 73.8134 164.325 77.5926L165.808 76.2512ZM158.277 63.3528C156.523 58.2802 155.637 52.534 155.637 46.1016H153.637C153.637 52.716 154.548 58.6886 156.387 64.0066L158.277 63.3528ZM155.637 46.1016V42.6445H153.637V46.1016H155.637ZM155.637 42.6445C155.637 36.2121 156.523 30.4659 158.277 25.3933L156.387 24.7395C154.548 30.0575 153.637 36.0301 153.637 42.6445H155.637ZM158.275 25.3996C160.072 20.3132 162.568 16.0177 165.75 12.4945L164.266 11.1539C160.885 14.8963 158.264 19.429 156.389 24.7332L158.275 25.3996ZM165.75 12.4949C168.973 8.93055 172.778 6.22341 177.174 4.3665L176.396 2.52413C171.729 4.49534 167.684 7.37414 164.266 11.1535L165.75 12.4949ZM177.178 4.36486C181.611 2.47029 186.515 1.51562 191.902 1.51562V-0.484375C186.274 -0.484375 181.1 0.51408 176.392 2.52576L177.178 4.36486ZM191.902 1.51562C197.25 1.51562 202.113 2.46996 206.507 4.36364L207.298 2.52699C202.629 0.514414 197.492 -0.484375 191.902 -0.484375V1.51562ZM206.516 4.36769C210.951 6.22504 214.775 8.93214 217.997 12.4949L219.48 11.1535C216.061 7.37255 211.994 4.49371 207.289 2.52294L206.516 4.36769ZM218 12.4989C221.22 16.0215 223.733 20.3156 225.53 25.3996L227.416 24.7332C225.54 19.4266 222.897 14.8925 219.476 11.1496L218 12.4989ZM225.53 25.3996C227.322 30.4703 228.227 36.2142 228.227 42.6445H230.227C230.227 36.0279 229.296 30.0532 227.416 24.7332L225.53 25.3996ZM209.367 46.1016V42.5273H207.367V46.1016H209.367ZM209.367 42.5273C209.367 38.2528 208.991 34.4633 208.228 31.1688L206.28 31.6203C207.001 34.732 207.367 38.3644 207.367 42.5273H209.367ZM208.231 31.1826C207.509 27.8543 206.417 25.0208 204.931 22.7092L203.249 23.7908C204.575 25.8542 205.592 28.4504 206.277 31.6065L208.231 31.1826ZM204.931 22.7092C203.442 20.3934 201.581 18.6267 199.342 17.4439L198.408 19.2123C200.31 20.2171 201.925 21.7316 203.249 23.7908L204.931 22.7092ZM199.362 17.4548C197.164 16.2289 194.668 15.6289 191.902 15.6289V17.6289C194.371 17.6289 196.523 18.1617 198.388 19.2015L199.362 17.4548ZM191.902 15.6289C189.028 15.6289 186.471 16.2254 184.267 17.4548L185.241 19.2015C187.099 18.1652 189.308 17.6289 191.902 17.6289V15.6289ZM184.28 17.4477C182.078 18.6332 180.256 20.403 178.808 22.72L180.504 23.78C181.79 21.722 183.367 20.2106 185.228 19.2086L184.28 17.4477ZM178.808 22.72C177.365 25.0287 176.294 27.8584 175.574 31.1826L177.528 31.6065C178.213 28.4463 179.213 25.8463 180.504 23.78L178.808 22.72ZM175.572 31.1915C174.89 34.4774 174.555 38.2589 174.555 42.5273H176.555C176.555 38.3583 176.883 34.7179 177.53 31.5975L175.572 31.1915ZM174.555 42.5273V46.1016H176.555V42.5273H174.555ZM174.555 46.1016C174.555 50.332 174.891 54.1123 175.571 57.435L177.53 57.0337C176.883 53.8721 176.555 50.2305 176.555 46.1016H174.555ZM175.574 57.4488C176.295 60.7344 177.366 63.5596 178.804 65.9022L180.508 64.8556C179.212 62.7451 178.213 60.1406 177.528 57.02L175.574 57.4488ZM178.811 65.9129C180.294 68.2618 182.13 70.0669 184.325 71.2913L185.3 69.5446C183.433 68.5034 181.831 66.9491 180.502 64.8449L178.811 65.9129ZM184.332 71.2952C186.572 72.5205 189.144 73.1172 192.02 73.1172V71.1172C189.426 71.1172 187.194 70.581 185.293 69.5407L184.332 71.2952ZM192.02 73.1172C194.785 73.1172 197.281 72.5172 199.479 71.2913L198.505 69.5446C196.641 70.5844 194.488 71.1172 192.02 71.1172V73.1172ZM199.479 71.2913C201.678 70.0651 203.496 68.2564 204.942 65.9022L203.238 64.8556C201.949 66.9545 200.369 68.5052 198.505 69.5446L199.479 71.2913ZM204.935 65.9129C206.417 63.5675 207.509 60.7385 208.231 57.4488L206.277 57.02C205.593 60.1365 204.576 62.7372 203.244 64.8449L204.935 65.9129ZM208.229 57.4575C208.991 54.1263 209.367 50.3381 209.367 46.1016H207.367C207.367 50.2244 207.001 53.8581 206.279 57.0112L208.229 57.4575ZM273.816 1.6875V0.6875H272.816V1.6875H273.816ZM294.324 1.6875H295.324V0.6875H294.324V1.6875ZM290.398 75.0469L289.551 74.5162L289.547 74.5219L290.398 75.0469ZM279.852 84.7734L280.308 85.6631L280.311 85.6615L279.852 84.7734ZM249.734 85.3008L249.337 86.2182L249.339 86.2195L249.734 85.3008ZM239.305 76.4531L238.458 76.9846L238.461 76.9905L239.305 76.4531ZM235.555 61.2188V60.2188H234.555V61.2188H235.555ZM256.18 61.2188H257.18V60.2188H256.18V61.2188ZM257.176 68.0156L256.249 68.3908L256.252 68.3986L257.176 68.0156ZM260.105 71.4141L259.648 72.303L259.663 72.3112L259.68 72.3189L260.105 71.4141ZM269.715 70.9453L270.303 71.7541L270.307 71.751L269.715 70.9453ZM272.762 66.7852L273.693 67.1496L273.696 67.1428L272.762 66.7852ZM274.816 60.2227V1.6875H272.816V60.2227H274.816ZM273.816 2.6875H294.324V0.6875H273.816V2.6875ZM293.324 1.6875V60.2227H295.324V1.6875H293.324ZM293.324 60.2227C293.324 65.768 292.054 70.5192 289.551 74.5162L291.246 75.5776C293.978 71.2152 295.324 66.0835 295.324 60.2227H293.324ZM289.547 74.5219C287.066 78.5439 283.688 81.6621 279.392 83.8853L280.311 85.6615C284.922 83.2754 288.574 79.9092 291.25 75.5719L289.547 74.5219ZM279.395 83.8838C275.137 86.0692 270.335 87.1719 264.969 87.1719V89.1719C270.618 89.1719 275.738 88.0089 280.308 85.6631L279.395 83.8838ZM264.969 87.1719C259.378 87.1719 254.438 86.2339 250.129 84.3821L249.339 86.2195C253.937 88.1958 259.154 89.1719 264.969 89.1719V87.1719ZM250.132 84.3833C245.898 82.5471 242.578 79.7285 240.148 75.9157L238.461 76.9905C241.11 81.1465 244.743 84.2263 249.337 86.2182L250.132 84.3833ZM240.152 75.9216C237.778 72.1391 236.555 67.2601 236.555 61.2188H234.555C234.555 67.5212 235.831 72.7984 238.458 76.9846L240.152 75.9216ZM235.555 62.2188H256.18V60.2188H235.555V62.2188ZM255.18 61.2188C255.18 64.1668 255.516 66.5792 256.249 68.3908L258.103 67.6404C257.508 66.1708 257.18 64.0519 257.18 61.2188H255.18ZM256.252 68.3986C256.988 70.1739 258.109 71.5104 259.648 72.303L260.563 70.5251C259.524 69.9896 258.692 69.0604 258.1 67.6326L256.252 68.3986ZM259.68 72.3189C261.175 73.0226 262.95 73.3516 264.969 73.3516V71.3516C263.159 71.3516 261.692 71.0555 260.531 70.5092L259.68 72.3189ZM264.969 73.3516C267.017 73.3516 268.814 72.8367 270.303 71.7541L269.127 70.1366C268.037 70.9289 266.671 71.3516 264.969 71.3516V73.3516ZM270.307 71.751C271.812 70.6444 272.933 69.0921 273.693 67.1496L271.83 66.4208C271.184 68.072 270.274 69.2931 269.122 70.1397L270.307 71.751ZM273.696 67.1428C274.453 65.1648 274.816 62.8501 274.816 60.2227H272.816C272.816 62.6734 272.477 64.7336 271.828 66.4275L273.696 67.1428ZM366.102 71.1797H367.102V70.1797H366.102V71.1797ZM366.102 87V88H367.102V87H366.102ZM320.633 87H319.633V88H320.633V87ZM320.633 71.1797V70.1797H319.633V71.1797H320.633ZM327.957 1.6875H328.957V0.6875H327.957V1.6875ZM327.957 87V88H328.957V87H327.957ZM307.391 87H306.391V88H307.391V87ZM307.391 1.6875V0.6875H306.391V1.6875H307.391ZM360.242 35.5547H361.242V34.5547H360.242V35.5547ZM360.242 50.8477V51.8477H361.242V50.8477H360.242ZM320.633 50.8477H319.633V51.8477H320.633V50.8477ZM320.633 35.5547V34.5547H319.633V35.5547H320.633ZM366.277 1.6875H367.277V0.6875H366.277V1.6875ZM366.277 17.5664V18.5664H367.277V17.5664H366.277ZM320.633 17.5664H319.633V18.5664H320.633V17.5664ZM320.633 1.6875V0.6875H319.633V1.6875H320.633ZM365.102 71.1797V87H367.102V71.1797H365.102ZM366.102 86H320.633V88H366.102V86ZM321.633 87V71.1797H319.633V87H321.633ZM320.633 72.1797H366.102V70.1797H320.633V72.1797ZM326.957 1.6875V87H328.957V1.6875H326.957ZM327.957 86H307.391V88H327.957V86ZM308.391 87V1.6875H306.391V87H308.391ZM307.391 2.6875H327.957V0.6875H307.391V2.6875ZM359.242 35.5547V50.8477H361.242V35.5547H359.242ZM360.242 49.8477H320.633V51.8477H360.242V49.8477ZM321.633 50.8477V35.5547H319.633V50.8477H321.633ZM320.633 36.5547H360.242V34.5547H320.633V36.5547ZM365.277 1.6875V17.5664H367.277V1.6875H365.277ZM366.277 16.5664H320.633V18.5664H366.277V16.5664ZM321.633 17.5664V1.6875H319.633V17.5664H321.633ZM320.633 2.6875H366.277V0.6875H320.633V2.6875ZM423.055 58.1133V57.1133H422.079L422.055 58.0889L423.055 58.1133ZM443.562 58.1133L444.561 58.1593L444.61 57.1133H443.562V58.1133ZM426.57 84.4219L427.007 85.3217L427.009 85.3203L426.57 84.4219ZM392.996 85.3008L392.601 86.2195L392.604 86.2207L392.996 85.3008ZM381.629 77.0391L380.87 77.6905L380.874 77.6952L381.629 77.0391ZM374.539 63.9727L373.585 64.2714L373.587 64.278L374.539 63.9727ZM374.656 24.7734L373.708 24.4572L373.706 24.4616L374.656 24.7734ZM381.922 11.6484L381.168 10.9917L381.167 10.9923L381.922 11.6484ZM438.699 15.3984L437.844 15.9161L437.846 15.9193L438.699 15.3984ZM443.68 31.1602V32.1602H444.769L444.676 31.0744L443.68 31.1602ZM423.172 31.1602L422.172 31.1845L422.196 32.1602H423.172V31.1602ZM421.531 23.1328L420.624 23.5539L420.627 23.5602L421.531 23.1328ZM396.688 22.4297L395.836 21.9056L396.688 22.4297ZM393.875 30.3398L392.893 30.1505L392.891 30.1599L393.875 30.3398ZM401.141 70.6523L400.686 71.5431L400.697 71.5486L400.708 71.5539L401.141 70.6523ZM416.199 70.5938L416.613 71.5041L416.62 71.501L416.627 71.4978L416.199 70.5938ZM421.18 66.0234L422.046 66.5232L422.05 66.516L421.18 66.0234ZM423.055 59.1133H443.562V57.1133H423.055V59.1133ZM442.564 58.0673C442.297 63.8464 440.742 68.9056 437.918 73.2735L439.598 74.3594C442.633 69.6647 444.281 64.2551 444.561 58.1593L442.564 58.0673ZM437.918 73.2735C435.094 77.641 431.175 81.0583 426.131 83.5234L427.009 85.3203C432.356 82.7073 436.562 79.0543 439.598 74.3594L437.918 73.2735ZM426.134 83.5221C421.141 85.9429 415.203 87.1719 408.289 87.1719V89.1719C415.438 89.1719 421.687 87.9009 427.007 85.3217L426.134 83.5221ZM408.289 87.1719C402.698 87.1719 397.737 86.234 393.388 84.3808L392.604 86.2207C397.239 88.1957 402.474 89.1719 408.289 89.1719V87.1719ZM393.391 84.3821C389.073 82.5263 385.408 79.8611 382.384 76.3829L380.874 77.6952C384.1 81.4045 388.013 84.2472 392.601 86.2195L393.391 84.3821ZM382.388 76.3876C379.4 72.9079 377.097 68.6744 375.491 63.6674L373.587 64.278C375.263 69.5053 377.686 73.9827 380.87 77.6905L382.388 76.3876ZM375.493 63.674C373.927 58.6701 373.137 53.0116 373.137 46.6875H371.137C371.137 53.1759 371.948 59.0408 373.585 64.2713L375.493 63.674ZM373.137 46.6875V42.0586H371.137V46.6875H373.137ZM373.137 42.0586C373.137 35.7388 373.965 30.0849 375.606 25.0853L373.706 24.4616C371.988 29.6964 371.137 35.5659 371.137 42.0586H373.137ZM375.605 25.0897C377.288 20.0409 379.649 15.7859 382.676 12.3046L381.167 10.9923C377.944 14.6985 375.462 19.1935 373.708 24.4572L375.605 25.0897ZM382.676 12.3052C385.742 8.7846 389.41 6.10029 393.687 4.24558L392.891 2.41067C388.34 4.38408 384.43 7.24665 381.168 10.9917L382.676 12.3052ZM393.687 4.24558C397.961 2.39217 402.726 1.45703 407.996 1.45703V-0.542969C402.485 -0.542969 397.445 0.435954 392.891 2.41067L393.687 4.24558ZM407.996 1.45703C415.302 1.45703 421.404 2.76475 426.344 5.32896L427.265 3.55386C421.971 0.805565 415.534 -0.542969 407.996 -0.542969V1.45703ZM426.344 5.32896C431.308 7.90594 435.132 11.4346 437.844 15.9161L439.555 14.8808C436.641 10.0654 432.535 6.28937 427.265 3.55386L426.344 5.32896ZM437.846 15.9193C440.57 20.3843 442.188 25.4865 442.683 31.2459L444.676 31.0744C444.156 25.0369 442.453 19.6313 439.553 14.8776L437.846 15.9193ZM443.68 30.1602H423.172V32.1602H443.68V30.1602ZM424.172 31.1358C424.091 27.839 423.528 25.0159 422.435 22.7054L420.627 23.5602C421.566 25.5466 422.096 28.075 422.172 31.1845L424.172 31.1358ZM422.438 22.7117C421.326 20.3158 419.561 18.5099 417.174 17.3165L416.279 19.1054C418.268 20.0995 419.705 21.5748 420.624 23.5539L422.438 22.7117ZM417.174 17.3165C414.797 16.1279 411.715 15.5703 407.996 15.5703V17.5703C411.543 17.5703 414.282 18.1065 416.279 19.1054L417.174 17.3165ZM407.996 15.5703C405.334 15.5703 402.968 16.0621 400.928 17.0821L401.822 18.871C403.532 18.0161 405.58 17.5703 407.996 17.5703V15.5703ZM400.928 17.0821C398.864 18.114 397.17 19.738 395.836 21.9056L397.539 22.9538C398.705 21.0589 400.136 19.7141 401.822 18.871L400.928 17.0821ZM395.836 21.9056C394.503 24.0709 393.533 26.8321 392.893 30.1506L394.857 30.5291C395.467 27.3632 396.372 24.851 397.539 22.9538L395.836 21.9056ZM392.891 30.1599C392.291 33.4403 391.996 37.3713 391.996 41.9414H393.996C393.996 37.449 394.287 33.6456 394.859 30.5198L392.891 30.1599ZM391.996 41.9414V46.6875H393.996V41.9414H391.996ZM391.996 46.6875C391.996 51.2549 392.271 55.1817 392.831 58.4574L394.802 58.1208C394.268 54.9901 393.996 51.1826 393.996 46.6875H391.996ZM392.831 58.4574C393.391 61.7396 394.301 64.4841 395.594 66.6527L397.312 65.6286C396.183 63.7346 395.336 61.2448 394.802 58.1208L392.831 58.4574ZM395.594 66.6527C396.892 68.8289 398.588 70.4724 400.686 71.5431L401.595 69.7616C399.865 68.8791 398.437 67.5148 397.312 65.6286L395.594 66.6527ZM400.708 71.5539C402.83 72.5725 405.37 73.0586 408.289 73.0586V71.0586C405.583 71.0586 403.357 70.6072 401.573 69.7508L400.708 71.5539ZM408.289 73.0586C411.513 73.0586 414.3 72.5556 416.613 71.5041L415.785 69.6834C413.802 70.585 411.315 71.0586 408.289 71.0586V73.0586ZM416.627 71.4978C418.956 70.3965 420.771 68.7332 422.046 66.5232L420.314 65.5237C419.245 67.3762 417.739 68.7598 415.772 69.6897L416.627 71.4978ZM422.05 66.516C423.326 64.2617 423.974 61.4506 424.054 58.1377L422.055 58.0889C421.98 61.1823 421.377 63.6446 420.309 65.5308L422.05 66.516ZM492.84 1.6875H493.84V0.6875H492.84V1.6875ZM492.84 87V88H493.84V87H492.84ZM472.273 87H471.273V88H472.273V87ZM472.273 1.6875V0.6875H471.273V1.6875H472.273ZM518.504 1.6875H519.504V0.6875H518.504V1.6875ZM518.504 17.5664V18.5664H519.504V17.5664H518.504ZM447.195 17.5664H446.195V18.5664H447.195V17.5664ZM447.195 1.6875V0.6875H446.195V1.6875H447.195ZM491.84 1.6875V87H493.84V1.6875H491.84ZM492.84 86H472.273V88H492.84V86ZM473.273 87V1.6875H471.273V87H473.273ZM472.273 2.6875H492.84V0.6875H472.273V2.6875ZM517.504 1.6875V17.5664H519.504V1.6875H517.504ZM518.504 16.5664H447.195V18.5664H518.504V16.5664ZM448.195 17.5664V1.6875H446.195V17.5664H448.195ZM447.195 2.6875H518.504V0.6875H447.195V2.6875ZM569.656 60.75L568.714 61.0864L568.719 61.0973L569.656 60.75ZM562.918 54.8906L562.471 55.7851L562.481 55.7904L562.492 55.7954L562.918 54.8906ZM555.184 51.8438L554.867 52.7924L554.871 52.7936L555.184 51.8438ZM544.344 47.625L543.925 48.5333L543.934 48.5371L544.344 47.625ZM535.027 42.0586L534.409 42.8449L534.417 42.8504L535.027 42.0586ZM528.523 34.5586L527.649 35.0432L527.652 35.0483L528.523 34.5586ZM528.582 14.5781L529.455 15.0667L529.457 15.0618L528.582 14.5781ZM535.438 7.01953L536.015 7.8362L536.017 7.83471L535.438 7.01953ZM545.867 2.21484L546.132 3.17921L546.141 3.17672L545.867 2.21484ZM575.457 3.79688L575.04 4.70575L575.049 4.70977L575.457 3.79688ZM586.707 12.9961L585.879 13.5564L585.885 13.5657L586.707 12.9961ZM590.809 27V28H591.809V27H590.809ZM570.359 27H569.359V28H570.359V27ZM569.012 21.3164L568.126 21.7804L568.13 21.7886L568.135 21.7967L569.012 21.3164ZM547.977 20.3789L548.797 20.9508L548.805 20.9392L547.977 20.3789ZM547.684 28.1719L546.852 28.7266L546.863 28.7445L546.876 28.7619L547.684 28.1719ZM550.789 31.043L550.229 31.8713L550.24 31.8787L550.789 31.043ZM555.711 33.6211L555.317 34.5403L555.324 34.5431L555.711 33.6211ZM562.273 36.0234L561.966 36.9752L561.97 36.9761L562.273 36.0234ZM574.344 40.8867L573.889 41.7772L573.9 41.7831L574.344 40.8867ZM583.309 46.9219L582.625 47.6521L582.632 47.6578L582.638 47.6634L583.309 46.9219ZM588.875 54.5391L587.959 54.9406L587.964 54.951L588.875 54.5391ZM582.195 81.9609L582.786 82.7677L582.794 82.7623L582.195 81.9609ZM546.336 86.5312L546.077 87.4971L546.087 87.4998L546.336 86.5312ZM534.852 81.375L534.288 82.2013L534.295 82.2056L534.852 81.375ZM526.59 72.4102L525.715 72.8943L525.721 72.9053L526.59 72.4102ZM523.543 59.3438V58.3438H522.543V59.3438H523.543ZM544.168 59.3438H545.168V58.3438H544.168V59.3438ZM548.094 69.832L547.461 70.606L547.468 70.6118L547.475 70.6175L548.094 69.832ZM552.84 72.0586L552.597 73.0287L552.607 73.0311L552.616 73.0333L552.84 72.0586ZM565.613 71.5898L566.034 72.4972L566.043 72.493L566.052 72.4886L565.613 71.5898ZM569.129 68.543L569.989 69.0536L569.996 69.0419L569.129 68.543ZM571.242 64.3242C571.242 62.8985 571.032 61.5866 570.594 60.4027L568.719 61.0973C569.061 62.0227 569.242 63.0937 569.242 64.3242H571.242ZM570.598 60.4137C570.14 59.1311 569.306 57.981 568.153 56.9557L566.824 58.4505C567.78 59.3003 568.391 60.1814 568.715 61.0863L570.598 60.4137ZM568.153 56.9557C566.998 55.9294 565.38 54.944 563.344 53.9858L562.492 55.7954C564.44 56.7123 565.869 57.6018 566.824 58.4505L568.153 56.9557ZM563.365 53.9962C561.352 52.9896 558.724 51.9566 555.496 50.8939L554.871 52.7936C558.05 53.8403 560.578 54.8385 562.471 55.7851L563.365 53.9962ZM555.5 50.8951C551.78 49.6553 548.199 48.2611 544.754 46.7129L543.934 48.5371C547.442 50.1139 551.087 51.5322 554.867 52.7924L555.5 50.8951ZM544.762 46.7167C541.347 45.1433 538.307 43.3256 535.638 41.2668L534.417 42.8504C537.216 45.0103 540.388 46.9036 543.925 48.5333L544.762 46.7167ZM535.645 41.2723C533.008 39.1998 530.929 36.7987 529.395 34.0689L527.652 35.0483C529.321 38.0216 531.578 40.6205 534.41 42.8449L535.645 41.2723ZM529.398 34.074C527.891 31.3537 527.121 28.1661 527.121 24.4805H525.121C525.121 28.4511 525.953 31.9823 527.649 35.0432L529.398 34.074ZM527.121 24.4805C527.121 20.9633 527.905 17.8334 529.455 15.0667L527.71 14.0895C525.978 17.1822 525.121 20.6539 525.121 24.4805H527.121ZM529.457 15.0618C531.021 12.2327 533.201 9.82457 536.015 7.8362L534.86 6.20287C531.815 8.35512 529.425 10.986 527.707 14.0944L529.457 15.0618ZM536.017 7.83471C538.878 5.80151 542.245 4.24609 546.132 3.17917L545.602 1.25052C541.52 2.3711 537.934 4.0188 534.858 6.20435L536.017 7.83471ZM546.141 3.17672C550.025 2.07247 554.287 1.51562 558.934 1.51562V-0.484375C554.127 -0.484375 549.679 0.0915911 545.594 1.25296L546.141 3.17672ZM558.934 1.51562C565.067 1.51562 570.428 2.58869 575.04 4.7057L575.874 2.88805C570.955 0.630059 565.3 -0.484375 558.934 -0.484375V1.51562ZM575.049 4.70977C579.7 6.78954 583.298 9.74079 585.879 13.5564L587.535 12.4358C584.726 8.28264 580.823 5.10109 575.865 2.88398L575.049 4.70977ZM585.885 13.5657C588.49 17.3235 589.809 21.7869 589.809 27H591.809C591.809 21.4318 590.393 16.5593 587.529 12.4265L585.885 13.5657ZM590.809 26H570.359V28H590.809V26ZM571.359 27C571.359 24.7089 570.879 22.6446 569.889 20.8361L568.135 21.7967C568.941 23.2695 569.359 24.9943 569.359 27H571.359ZM569.898 20.8524C568.938 19.0201 567.478 17.5914 565.557 16.5669L564.615 18.3316C566.21 19.182 567.367 20.3314 568.126 21.7804L569.898 20.8524ZM565.557 16.5669C563.614 15.5307 561.233 15.043 558.465 15.043V17.043C561.01 17.043 563.043 17.4928 564.615 18.3316L565.557 16.5669ZM558.465 15.043C555.792 15.043 553.476 15.4471 551.555 16.301L552.367 18.1287C553.961 17.4201 555.982 17.043 558.465 17.043V15.043ZM551.555 16.301C549.66 17.143 548.171 18.307 547.148 19.8186L548.805 20.9392C549.579 19.7946 550.746 18.8492 552.367 18.1287L551.555 16.301ZM547.156 19.8071C546.142 21.2629 545.629 22.888 545.629 24.6562H547.629C547.629 23.2995 548.015 22.073 548.797 20.9507L547.156 19.8071ZM545.629 24.6562C545.629 26.1392 546.037 27.5047 546.852 28.7266L548.516 27.6172C547.924 26.7297 547.629 25.7514 547.629 24.6562H545.629ZM546.876 28.7619C547.702 29.8922 548.83 30.9251 550.229 31.8713L551.349 30.2147C550.092 29.3639 549.149 28.4828 548.491 27.5819L546.876 28.7619ZM550.24 31.8787C551.667 32.8168 553.363 33.7027 555.317 34.5402L556.105 32.702C554.231 31.8989 552.645 31.066 551.338 30.2073L550.24 31.8787ZM555.324 34.5431C557.308 35.3764 559.523 36.1868 561.966 36.9751L562.58 35.0717C560.181 34.2976 558.02 33.5064 556.098 32.6991L555.324 34.5431ZM561.97 36.9761C566.459 38.4081 570.43 40.0096 573.889 41.7772L574.799 39.9963C571.226 38.1701 567.15 36.5294 562.577 35.0707L561.97 36.9761ZM573.9 41.7831C577.384 43.5058 580.287 45.4649 582.625 47.6521L583.992 46.1916C581.486 43.8476 578.413 41.7833 574.787 39.9903L573.9 41.7831ZM582.638 47.6634C585.001 49.8015 586.77 52.2268 587.959 54.9405L589.791 54.1376C588.48 51.1482 586.538 48.4953 583.979 46.1803L582.638 47.6634ZM587.964 54.951C589.186 57.6552 589.809 60.7343 589.809 64.207H591.809C591.809 60.4922 591.142 57.126 589.786 54.1271L587.964 54.951ZM589.809 64.207C589.809 67.9038 589.093 71.1451 587.688 73.9551L589.476 74.8496C591.04 71.7221 591.809 68.1666 591.809 64.207H589.809ZM587.688 73.9551C586.276 76.7783 584.251 79.1785 581.597 81.1596L582.794 82.7623C585.686 80.6028 587.919 77.9639 589.476 74.8496L587.688 73.9551ZM581.604 81.1542C578.945 83.1022 575.74 84.5973 571.971 85.6251L572.497 87.5546C576.463 86.473 579.899 84.8821 582.786 82.7677L581.604 81.1542ZM571.971 85.6251C568.204 86.6525 563.978 87.1719 559.285 87.1719V89.1719C564.123 89.1719 568.53 88.6366 572.497 87.5546L571.971 85.6251ZM559.285 87.1719C554.995 87.1719 550.762 86.6357 546.585 85.5627L546.087 87.4998C550.426 88.6143 554.826 89.1719 559.285 89.1719V87.1719ZM546.595 85.5655C542.477 84.4595 538.75 82.7847 535.408 80.5444L534.295 82.2056C537.828 84.5747 541.758 86.3374 546.077 87.497L546.595 85.5655ZM535.415 80.5488C532.104 78.2912 529.454 75.4164 527.459 71.915L525.721 72.9053C527.866 76.6696 530.724 79.7713 534.288 82.2012L535.415 80.5488ZM527.465 71.9261C525.531 68.4295 524.543 64.2474 524.543 59.3438H522.543C522.543 64.5182 523.587 69.0471 525.715 72.8942L527.465 71.9261ZM523.543 60.3438H544.168V58.3438H523.543V60.3438ZM543.168 59.3438C543.168 61.9258 543.51 64.1656 544.231 66.0323L546.097 65.3115C545.49 63.7407 545.168 61.7617 545.168 59.3438H543.168ZM544.231 66.0323C544.951 67.8949 546.024 69.4304 547.461 70.606L548.727 69.0581C547.586 68.1243 546.705 66.8863 546.097 65.3115L544.231 66.0323ZM547.475 70.6175C548.893 71.7347 550.609 72.5317 552.597 73.0287L553.082 71.0884C551.32 70.6479 549.873 69.9606 548.713 69.0465L547.475 70.6175ZM552.616 73.0333C554.581 73.4835 556.807 73.7031 559.285 73.7031V71.7031C556.92 71.7031 554.849 71.4931 553.063 71.0839L552.616 73.0333ZM559.285 73.7031C561.983 73.7031 564.253 73.3226 566.034 72.4972L565.193 70.6825C563.771 71.3415 561.821 71.7031 559.285 71.7031V73.7031ZM566.052 72.4886C567.789 71.6413 569.127 70.5057 569.989 69.0535L568.269 68.0324C567.647 69.0802 566.641 69.9759 565.175 70.6911L566.052 72.4886ZM569.996 69.0419C570.827 67.5973 571.242 66.0183 571.242 64.3242H569.242C569.242 65.677 568.915 66.9105 568.262 68.044L569.996 69.0419Z" fill="#FAF2F2"/>
</svg>
