<svg width="518" height="82" viewBox="0 0 518 82" fill="none" xmlns="http://www.w3.org/2000/svg">
<path d="M15.3379 51.3184V50.3184H14.3379V51.3184H15.3379ZM47.3496 44.3896L46.6825 43.6447L46.6819 43.6453L47.3496 44.3896ZM52.8818 36.709L51.9684 36.3018L51.9644 36.3111L52.8818 36.709ZM52.8818 16.7285L51.9594 17.1147L51.9632 17.1237L52.8818 16.7285ZM47.3496 8.7793L48.0288 8.04533L48.0231 8.04008L48.0174 8.03492L47.3496 8.7793ZM38.541 3.67676L38.1985 4.61631L38.2072 4.61939L38.541 3.67676ZM0.245117 1.79688V0.796875H-0.754883V1.79688H0.245117ZM0.245117 80H-0.754883V81H0.245117V80ZM15.3379 80V81H16.3379V80H15.3379ZM15.3379 39.0723H14.3379V40.0723H15.3379V39.0723ZM15.3379 14.043V13.043H14.3379V14.043H15.3379ZM36.5537 17.8564L37.3049 17.1963L37.2993 17.19L37.2937 17.1838L36.5537 17.8564ZM38.8633 21.9922L37.9104 22.2954L37.9135 22.3052L37.9168 22.3149L38.8633 21.9922ZM38.8633 31.6602L37.9241 31.3165L37.9194 31.3298L38.8633 31.6602ZM36.5537 35.4736L37.2723 36.1691L37.2782 36.163L37.284 36.1568L36.5537 35.4736ZM15.3379 52.3184H26.9932V50.3184H15.3379V52.3184ZM26.9932 52.3184C31.3492 52.3184 35.3138 51.696 38.8749 50.4348L38.2072 48.5496C34.8932 49.7232 31.1593 50.3184 26.9932 50.3184V52.3184ZM38.8749 50.4348C42.4214 49.1787 45.4746 47.415 48.0174 45.134L46.6819 43.6453C44.3548 45.7328 41.5356 47.3707 38.2072 48.5496L38.8749 50.4348ZM48.0167 45.1346C50.524 42.8893 52.4531 40.2105 53.7993 37.1069L51.9644 36.3111C50.7324 39.1515 48.9734 41.5931 46.6825 43.6447L48.0167 45.1346ZM53.7952 37.1161C55.1816 34.0062 55.8691 30.6256 55.8691 26.9873H53.8691C53.8691 30.3673 53.2319 33.4678 51.9685 36.3018L53.7952 37.1161ZM55.8691 26.9873C55.8691 23.1082 55.1852 19.5519 53.8004 16.3333L51.9632 17.1237C53.2282 20.064 53.8691 23.3469 53.8691 26.9873H55.8691ZM53.8043 16.3424C52.4612 13.1338 50.5352 10.3647 48.0288 8.04533L46.6704 9.51326C48.9622 11.634 50.7244 14.1643 51.9594 17.1147L53.8043 16.3424ZM48.0174 8.03492C45.4746 5.75391 42.4214 3.9902 38.8749 2.73413L38.2072 4.61939C41.5356 5.79821 44.3548 7.43619 46.6819 9.52368L48.0174 8.03492ZM38.8835 2.73725C35.3198 1.43799 31.3522 0.796875 26.9932 0.796875V2.79688C31.1563 2.79688 34.8872 3.40902 38.1985 4.61627L38.8835 2.73725ZM26.9932 0.796875H0.245117V2.79688H26.9932V0.796875ZM-0.754883 1.79688V80H1.24512V1.79688H-0.754883ZM0.245117 81H15.3379V79H0.245117V81ZM16.3379 80V51.3184H14.3379V80H16.3379ZM16.3379 39.0723V14.043H14.3379V39.0723H16.3379ZM15.3379 15.043H26.9932V13.043H15.3379V15.043ZM26.9932 15.043C29.0385 15.043 30.7596 15.367 32.1827 15.9815L32.9755 14.1454C31.2476 13.3992 29.2447 13.043 26.9932 13.043V15.043ZM32.1827 15.9815C33.6374 16.6097 34.8423 17.4605 35.8138 18.5291L37.2937 17.1838C36.1167 15.8891 34.6718 14.8779 32.9755 14.1454L32.1827 15.9815ZM35.8025 18.5166C36.7451 19.5892 37.4488 20.8446 37.9104 22.2954L39.8162 21.689C39.2752 19.9887 38.4391 18.487 37.3049 17.1963L35.8025 18.5166ZM37.9168 22.3149C38.4152 23.7769 38.6689 25.3677 38.6689 27.0947H40.6689C40.6689 25.1694 40.3856 23.3585 39.8098 21.6695L37.9168 22.3149ZM38.6689 27.0947C38.6689 28.554 38.4207 29.9594 37.9242 31.3166L39.8024 32.0037C40.3801 30.4247 40.6689 28.7865 40.6689 27.0947H38.6689ZM37.9194 31.3298C37.4641 32.6307 36.7671 33.7818 35.8234 34.7905L37.284 36.1568C38.4172 34.9455 39.2599 33.5542 39.8071 31.9905L37.9194 31.3298ZM35.8351 34.7782C34.8665 35.7791 33.6611 36.5824 32.2005 37.1799L32.9577 39.031C34.6481 38.3395 36.0925 37.3882 37.2723 36.1691L35.8351 34.7782ZM32.2005 37.1799C30.7721 37.7642 29.0445 38.0723 26.9932 38.0723V40.0723C29.2387 40.0723 31.235 39.7358 32.9577 39.031L32.2005 37.1799ZM26.9932 38.0723H15.3379V40.0723H26.9932V38.0723ZM91.876 50.7812L92.7691 50.3314L92.492 49.7812H91.876V50.7812ZM106.593 80L105.7 80.4498L105.977 81H106.593V80ZM122.76 80V81H123.76V80H122.76ZM122.76 79.3018H123.76V79.057L123.647 78.8398L122.76 79.3018ZM105.948 47.0215L105.538 46.1096L104.572 46.5441L105.061 47.4834L105.948 47.0215ZM111.749 43.584L111.146 42.7859L111.139 42.792L111.749 43.584ZM116.261 38.9111L117.08 39.4846L117.082 39.4812L116.261 38.9111ZM119.054 32.9492L118.096 32.6605L118.093 32.6704L119.054 32.9492ZM118.033 15.1709L117.122 15.5822L117.126 15.5914L118.033 15.1709ZM112.34 7.8125L112.963 7.03051L112.958 7.02618L112.34 7.8125ZM103.316 3.35449L103.033 4.31343L103.042 4.31602L103.316 3.35449ZM65.3428 1.79688V0.796875H64.3428V1.79688H65.3428ZM65.3428 80H64.3428V81H65.3428V80ZM80.4355 80V81H81.4355V80H80.4355ZM80.4355 50.7812V49.7812H79.4355V50.7812H80.4355ZM80.4355 38.5352H79.4355V39.5352H80.4355V38.5352ZM80.4355 14.043V13.043H79.4355V14.043H80.4355ZM101.168 16.9434L100.525 17.7096L100.53 17.7134L101.168 16.9434ZM103.961 20.918L103.025 21.2714L103.03 21.2841L103.035 21.2966L103.961 20.918ZM104.176 31.0693L103.235 30.7315L103.231 30.7422L103.227 30.7531L104.176 31.0693ZM102.081 34.668L101.348 33.9875L101.34 33.9961L101.332 34.0049L102.081 34.668ZM97.7305 37.5684L98.0753 38.5071L98.0857 38.5031L97.7305 37.5684ZM90.9829 51.2311L105.7 80.4498L107.486 79.5502L92.7691 50.3314L90.9829 51.2311ZM106.593 81H122.76V79H106.593V81ZM123.76 80V79.3018H121.76V80H123.76ZM123.647 78.8398L106.835 46.5596L105.061 47.4834L121.873 79.7637L123.647 78.8398ZM106.359 47.9334C108.572 46.9373 110.574 45.7524 112.36 44.376L111.139 42.792C109.487 44.0653 107.621 45.1721 105.538 46.1096L106.359 47.9334ZM112.352 44.382C114.189 42.9945 115.766 41.3612 117.08 39.4846L115.442 38.3377C114.249 40.0418 112.818 41.5238 111.146 42.7859L112.352 44.382ZM117.082 39.4812C118.366 37.6307 119.342 35.5435 120.014 33.228L118.093 32.6704C117.477 34.7951 116.59 36.6825 115.439 38.3411L117.082 39.4812ZM120.011 33.238C120.724 30.873 121.074 28.2492 121.074 25.376H119.074C119.074 28.0887 118.744 30.5137 118.096 32.6605L120.011 33.238ZM121.074 25.376C121.074 21.3915 120.373 17.8416 118.941 14.7504L117.126 15.5914C118.415 18.3726 119.074 21.6261 119.074 25.376H121.074ZM118.945 14.7596C117.556 11.6817 115.56 9.10085 112.963 7.03053L111.717 8.59447C114.061 10.4629 115.861 12.7877 117.122 15.5822L118.945 14.7596ZM112.958 7.02618C110.336 4.96594 107.207 3.42607 103.591 2.39297L103.042 4.31602C106.444 5.28813 109.331 6.72026 111.722 8.59882L112.958 7.02618ZM103.6 2.3956C99.9838 1.32546 95.9653 0.796875 91.5537 0.796875V2.79688C95.8075 2.79688 99.6308 3.3067 103.033 4.31339L103.6 2.3956ZM91.5537 0.796875H65.3428V2.79688H91.5537V0.796875ZM64.3428 1.79688V80H66.3428V1.79688H64.3428ZM65.3428 81H80.4355V79H65.3428V81ZM81.4355 80V50.7812H79.4355V80H81.4355ZM80.4355 51.7812H91.876V49.7812H80.4355V51.7812ZM81.4355 38.5352V14.043H79.4355V38.5352H81.4355ZM80.4355 15.043H91.5537V13.043H80.4355V15.043ZM91.5537 15.043C93.5521 15.043 95.2929 15.2844 96.7889 15.7498L97.383 13.8401C95.6563 13.3029 93.709 13.043 91.5537 13.043V15.043ZM96.7889 15.7498C98.2943 16.2181 99.5322 16.8766 100.525 17.7096L101.811 16.1772C100.584 15.1482 99.1003 14.3743 97.383 13.8401L96.7889 15.7498ZM100.53 17.7134C101.642 18.6346 102.474 19.8126 103.025 21.2714L104.896 20.5646C104.23 18.8007 103.201 17.329 101.806 16.1733L100.53 17.7134ZM103.035 21.2966C103.621 22.7286 103.928 24.4217 103.928 26.3965H105.928C105.928 24.2176 105.59 22.2583 104.886 20.5393L103.035 21.2966ZM103.928 26.3965C103.928 28.018 103.691 29.4591 103.235 30.7315L105.117 31.4072C105.663 29.8866 105.928 28.2125 105.928 26.3965H103.928ZM103.227 30.7531C102.803 32.0246 102.175 33.0973 101.348 33.9875L102.814 35.3484C103.849 34.2334 104.617 32.907 105.124 31.3856L103.227 30.7531ZM101.332 34.0049C100.344 35.1207 99.0364 36.0023 97.3753 36.6336L98.0857 38.5031C100.005 37.7737 101.598 36.7217 102.83 35.331L101.332 34.0049ZM97.3857 36.6297C95.7649 37.2251 93.845 37.5352 91.6074 37.5352V39.5352C94.0248 39.5352 96.187 39.2007 98.0753 38.507L97.3857 36.6297ZM91.6074 37.5352H80.4355V39.5352H91.6074V37.5352ZM184.957 25.2148L183.977 25.4153L183.98 25.4259L184.957 25.2148ZM182.11 16.5137L183.014 16.0861L183.011 16.079L183.008 16.072L182.11 16.5137ZM177.975 10.1221L177.199 10.7538L177.206 10.7623L177.975 10.1221ZM172.442 5.18066L171.881 6.00837L171.891 6.01499L171.901 6.02138L172.442 5.18066ZM165.299 1.9043L165.01 2.86176L165.018 2.8641L165.026 2.86631L165.299 1.9043ZM141.72 5.07324L141.155 4.24793L141.152 4.25003L141.72 5.07324ZM136.188 10.2295L135.408 9.60306L135.401 9.61167L136.188 10.2295ZM132.159 16.9434L131.247 16.5335L131.243 16.5419L132.159 16.9434ZM129.527 25.4834L128.546 25.2895L128.544 25.3005L129.527 25.4834ZM129.42 55.8301L128.434 56.0004L128.437 56.0122L129.42 55.8301ZM131.729 63.8867L130.803 64.2627L130.805 64.2687L131.729 63.8867ZM135.865 71.1377L135.072 71.7461L135.077 71.7526L135.865 71.1377ZM141.451 76.5625L140.865 77.3724L140.877 77.3815L140.89 77.3902L141.451 76.5625ZM164.923 80L164.661 79.0349L164.653 79.0372L164.644 79.0395L164.923 80ZM171.798 77.0996L172.315 77.9558L172.321 77.9518L172.328 77.9476L171.798 77.0996ZM177.921 71.7285L178.689 72.3687L177.921 71.7285ZM182.433 64.6387L183.337 65.0657L183.342 65.0553L183.346 65.0448L182.433 64.6387ZM185.064 56.2598L186.045 56.4581L186.045 56.4559L185.064 56.2598ZM170.348 52.2314L169.355 52.1123L169.354 52.1221L169.353 52.1319L170.348 52.2314ZM169.488 57.1729L168.521 56.9195L168.52 56.9219L169.488 57.1729ZM167.447 62.3828L166.574 61.8954L166.57 61.9025L167.447 62.3828ZM164.386 66.1426L163.75 65.3706L163.744 65.3759L163.737 65.3813L164.386 66.1426ZM152.677 67.9688L152.32 68.9028L152.329 68.9062L152.677 67.9688ZM149.4 65.9814L148.719 66.7133L148.727 66.7212L148.736 66.7289L149.4 65.9814ZM146.661 62.2217L145.759 62.6524L145.765 62.6649L145.771 62.6772L146.661 62.2217ZM144.942 57.0117L145.922 56.8085L145.919 56.7943L145.915 56.7801L144.942 57.0117ZM144.19 29.4043L143.195 29.3067L143.194 29.3164L143.193 29.3261L144.19 29.4043ZM144.996 24.3555L145.97 24.582L145.97 24.5816L144.996 24.3555ZM146.93 19.0918L146.061 18.5957L146.057 18.6035L146.053 18.6115L146.93 19.0918ZM150.045 15.332L149.44 14.5359L149.424 14.5477L149.409 14.5601L150.045 15.332ZM153.053 13.7744L152.754 12.8199L152.746 12.8227L153.053 13.7744ZM160.841 13.8281L160.525 14.7768L160.533 14.7796L160.841 13.8281ZM164.117 15.4932L164.739 14.7101L164.726 14.6996L164.712 14.6896L164.117 15.4932ZM167.286 19.2529L166.422 19.7556L166.427 19.7644L167.286 19.2529ZM169.435 24.4092L168.471 24.6768L168.471 24.678L169.435 24.4092ZM170.348 29.458L169.352 29.5556L169.353 29.5664L169.355 29.5772L170.348 29.458ZM186.978 46.6455V35.2588H184.978V46.6455H186.978ZM186.978 35.2588C186.978 31.6499 186.631 28.2307 185.935 25.0038L183.98 25.4259C184.644 28.5011 184.978 31.7779 184.978 35.2588H186.978ZM185.937 25.0144C185.278 21.7925 184.305 18.8149 183.014 16.0861L181.206 16.9412C182.422 19.5119 183.347 22.3352 183.977 25.4152L185.937 25.0144ZM183.008 16.072C181.828 13.6757 180.406 11.4782 178.743 9.48189L177.206 10.7623C178.765 12.6332 180.101 14.6967 181.213 16.9554L183.008 16.072ZM178.75 9.4904C177.107 7.47464 175.184 5.75715 172.984 4.33995L171.901 6.02138C173.926 7.32554 175.691 8.90231 177.199 10.7537L178.75 9.4904ZM173.004 4.35296C170.796 2.85626 168.316 1.72105 165.572 0.942284L165.026 2.86631C167.581 3.59145 169.864 4.64048 171.881 6.00837L173.004 4.35296ZM165.587 0.946832C162.871 0.12816 159.962 -0.277344 156.866 -0.277344V1.72266C159.786 1.72266 162.499 2.10491 165.01 2.86176L165.587 0.946832ZM156.866 -0.277344C153.81 -0.277344 150.956 0.109397 148.311 0.891652L148.878 2.80952C151.318 2.08787 153.979 1.72266 156.866 1.72266V-0.277344ZM148.311 0.891652C145.676 1.67107 143.288 2.78841 141.155 4.24793L142.284 5.89855C144.233 4.5651 146.429 3.534 148.878 2.80952L148.311 0.891652ZM141.152 4.25003C138.994 5.73841 137.079 7.52387 135.408 9.6031L136.967 10.8559C138.519 8.92469 140.292 7.27266 142.287 5.89645L141.152 4.25003ZM135.401 9.61167C133.772 11.6847 132.388 13.9932 131.247 16.5335L133.071 17.3532C134.15 14.9521 135.452 12.7847 136.974 10.8473L135.401 9.61167ZM131.243 16.5419C130.066 19.2287 129.168 22.1457 128.546 25.2895L130.508 25.6773C131.104 22.6622 131.961 19.8859 133.075 17.3448L131.243 16.5419ZM128.544 25.3005C127.959 28.4458 127.668 31.7658 127.668 35.2588H129.668C129.668 31.8768 129.95 28.6799 130.51 25.6663L128.544 25.3005ZM127.668 35.2588V46.6455H129.668V35.2588H127.668ZM127.668 46.6455C127.668 49.9199 127.923 53.0387 128.435 56.0004L130.405 55.6598C129.915 52.8206 129.668 49.8164 129.668 46.6455H127.668ZM128.437 56.0122C128.985 58.972 129.772 61.7233 130.803 64.2627L132.656 63.5107C131.681 61.1088 130.929 58.4889 130.403 55.648L128.437 56.0122ZM130.805 64.2687C131.946 67.0292 133.368 69.5234 135.072 71.7461L136.659 70.5293C135.069 68.4552 133.733 66.1153 132.654 63.5047L130.805 64.2687ZM135.077 71.7526C136.779 73.9361 138.708 75.8109 140.865 77.3724L142.038 75.7526C140.04 74.3063 138.246 72.5646 136.654 70.5228L135.077 71.7526ZM140.89 77.3902C143.09 78.8817 145.527 80.0336 148.195 80.8489L148.78 78.9362C146.292 78.176 144.038 77.1079 142.012 75.7348L140.89 77.3902ZM148.195 80.8489C150.879 81.6691 153.79 82.0742 156.92 82.0742V80.0742C153.963 80.0742 151.252 79.6916 148.78 78.9362L148.195 80.8489ZM156.92 82.0742C159.868 82.0742 162.63 81.7056 165.201 80.9605L164.644 79.0395C162.274 79.7267 159.701 80.0742 156.92 80.0742V82.0742ZM165.185 80.9651C167.775 80.2622 170.153 79.2603 172.315 77.9558L171.281 76.2434C169.289 77.4455 167.084 78.3772 164.661 79.0349L165.185 80.9651ZM172.328 77.9476C174.713 76.4572 176.833 74.5957 178.689 72.3687L177.153 71.0883C175.428 73.1582 173.466 74.8775 171.268 76.2516L172.328 77.9476ZM178.689 72.3687C180.535 70.154 182.084 67.7188 183.337 65.0657L181.528 64.2117C180.346 66.7148 178.888 69.0062 177.153 71.0883L178.689 72.3687ZM183.346 65.0448C184.524 62.3945 185.423 59.5312 186.045 56.4581L184.084 56.0614C183.489 59.0039 182.633 61.7266 181.519 64.2325L183.346 65.0448ZM186.045 56.4559C186.668 53.3425 186.978 50.0718 186.978 46.6455H184.978C184.978 49.951 184.679 53.0898 184.084 56.0636L186.045 56.4559ZM169.67 35.1514V46.6455H171.67V35.1514H169.67ZM169.67 46.6455C169.67 48.5421 169.565 50.3642 169.355 52.1123L171.341 52.3506C171.56 50.518 171.67 48.6161 171.67 46.6455H169.67ZM169.353 52.1319C169.178 53.8783 168.9 55.4732 168.521 56.9195L170.456 57.4262C170.865 55.8647 171.159 54.1654 171.343 52.3309L169.353 52.1319ZM168.52 56.9219C168.038 58.7837 167.387 60.4393 166.574 61.8954L168.32 62.8702C169.226 61.2469 169.936 59.4292 170.456 57.4238L168.52 56.9219ZM166.57 61.9025C165.802 63.3045 164.861 64.4558 163.75 65.3706L165.021 66.9145C166.345 65.8241 167.445 64.4689 168.324 62.8631L166.57 61.9025ZM163.737 65.3813C162.87 66.1201 161.871 66.6857 160.731 67.0765L161.38 68.9684C162.747 68.4998 163.968 67.8122 165.034 66.9038L163.737 65.3813ZM160.731 67.0765C159.596 67.4659 158.328 67.667 156.92 67.667V69.667C158.519 69.667 160.009 69.4384 161.38 68.9684L160.731 67.0765ZM156.92 67.667C155.442 67.667 154.149 67.4488 153.025 67.0313L152.329 68.9062C153.711 69.4197 155.246 69.667 156.92 69.667V67.667ZM153.034 67.0347C151.928 66.612 150.941 66.0125 150.065 65.234L148.736 66.7289C149.794 67.6691 150.99 68.3945 152.32 68.9028L153.034 67.0347ZM150.082 65.2496C149.145 64.3773 148.297 63.2243 147.551 61.7662L145.771 62.6772C146.6 64.2985 147.579 65.652 148.719 66.7133L150.082 65.2496ZM147.564 61.791C146.85 60.2954 146.301 58.6362 145.922 56.8085L143.963 57.2149C144.372 59.1828 144.969 60.9969 145.759 62.6524L147.564 61.791ZM145.915 56.7801C145.57 55.3318 145.327 53.7534 145.187 52.0427L143.194 52.2054C143.341 54.0038 143.598 55.6838 143.97 57.2433L145.915 56.7801ZM145.187 52.0427C145.046 50.3172 144.976 48.5182 144.976 46.6455H142.976C142.976 48.5684 143.048 50.4218 143.194 52.2054L145.187 52.0427ZM144.976 46.6455V35.1514H142.976V46.6455H144.976ZM144.976 35.1514C144.976 33.1698 145.046 31.2803 145.187 29.4825L143.193 29.3261C143.048 31.1806 142.976 33.1225 142.976 35.1514H144.976ZM145.186 29.5019C145.361 27.7124 145.623 26.0731 145.97 24.582L144.022 24.129C143.653 25.7172 143.378 27.4439 143.195 29.3067L145.186 29.5019ZM145.97 24.5816C146.419 22.648 147.035 20.982 147.807 19.5721L146.053 18.6115C145.178 20.2094 144.504 22.0525 144.022 24.1293L145.97 24.5816ZM147.798 19.5879C148.603 18.179 149.566 17.0223 150.681 16.104L149.409 14.5601C148.089 15.647 146.975 16.9968 146.061 18.5957L147.798 19.5879ZM150.65 16.1282C151.452 15.5187 152.353 15.0509 153.36 14.7261L152.746 12.8227C151.532 13.2141 150.428 13.7847 149.44 14.5359L150.65 16.1282ZM153.351 14.7289C154.386 14.4055 155.555 14.2373 156.866 14.2373V12.2373C155.385 12.2373 154.011 12.4272 152.754 12.8199L153.351 14.7289ZM156.866 14.2373C158.246 14.2373 159.461 14.4224 160.525 14.7768L161.157 12.8794C159.857 12.4461 158.423 12.2373 156.866 12.2373V14.2373ZM160.533 14.7796C161.654 15.1422 162.648 15.6491 163.522 16.2967L164.712 14.6896C163.653 13.9049 162.463 13.3018 161.149 12.8767L160.533 14.7796ZM163.495 16.2763C164.602 17.1551 165.58 18.3081 166.422 19.7556L168.151 18.7503C167.202 17.1183 166.067 15.7648 164.739 14.7101L163.495 16.2763ZM166.427 19.7644C167.271 21.1818 167.954 22.8165 168.471 24.6768L170.398 24.1415C169.841 22.1346 169.092 20.3318 168.145 18.7414L166.427 19.7644ZM168.471 24.678C168.883 26.1542 169.178 27.779 169.352 29.5556L171.343 29.3604C171.159 27.4847 170.845 25.7436 170.398 24.1404L168.471 24.678ZM169.355 29.5772C169.564 31.3239 169.67 33.1816 169.67 35.1514H171.67C171.67 33.1107 171.561 31.1729 171.341 29.3389L169.355 29.5772ZM234.371 1.79688V0.796875H233.371V1.79688H234.371ZM233.512 61.1475L232.569 60.8124L232.565 60.8248L233.512 61.1475ZM231.202 65.2295L230.45 64.571L231.202 65.2295ZM227.55 67.9688L227.96 68.8807L227.97 68.8764L227.979 68.872L227.55 67.9688ZM213.692 65.4443L212.889 66.0396L212.898 66.0515L212.907 66.0632L213.692 65.4443ZM211.544 57.0117H212.544V56.0117H211.544V57.0117ZM196.397 57.0117V56.0117H195.389L195.398 57.0206L196.397 57.0117ZM203.81 75.0586L204.468 74.306L204.462 74.3006L204.456 74.2952L203.81 75.0586ZM233.243 79.248L232.893 78.3113L232.89 78.3126L233.243 79.248ZM247.369 66.1963L246.458 65.7833L246.456 65.7882L247.369 66.1963ZM249.518 55.9912L250.518 56.0008L250.518 55.9902L249.518 55.9912ZM249.464 1.79688L250.464 1.79588L250.463 0.796875H249.464V1.79688ZM233.371 1.79688V55.9912H235.371V1.79688H233.371ZM233.371 55.9912C233.371 57.711 233.102 59.3158 232.57 60.8125L234.454 61.4825C235.068 59.7565 235.371 57.9237 235.371 55.9912H233.371ZM232.565 60.8248C232.066 62.2884 231.359 63.5322 230.45 64.571L231.955 65.888C233.051 64.6351 233.883 63.1576 234.458 61.4701L232.565 60.8248ZM230.45 64.571C229.541 65.6097 228.435 66.4413 227.121 67.0655L227.979 68.872C229.529 68.1355 230.858 67.1409 231.955 65.888L230.45 64.571ZM227.139 67.0568C225.848 67.638 224.414 67.9355 222.823 67.9355V69.9355C224.67 69.9355 226.387 69.5885 227.96 68.8807L227.139 67.0568ZM222.823 67.9355C220.758 67.9355 219.06 67.6595 217.701 67.1417L216.989 69.0107C218.637 69.6387 220.591 69.9355 222.823 69.9355V67.9355ZM217.701 67.1417C216.354 66.6285 215.289 65.855 214.478 64.8255L212.907 66.0632C213.958 67.3969 215.328 68.378 216.989 69.0107L217.701 67.1417ZM214.496 64.8491C213.87 64.0046 213.382 62.9466 213.05 61.651L211.112 62.1478C211.496 63.6452 212.082 64.9505 212.889 66.0396L214.496 64.8491ZM213.05 61.651C212.717 60.3553 212.544 58.8129 212.544 57.0117H210.544C210.544 58.9345 210.728 60.6506 211.112 62.1478L213.05 61.651ZM211.544 56.0117H196.397V58.0117H211.544V56.0117ZM195.398 57.0206C195.434 61.1689 196.114 64.832 197.466 67.9867L199.304 67.1989C198.078 64.3379 197.432 60.947 197.397 57.0029L195.398 57.0206ZM197.466 67.9867C198.811 71.1265 200.709 73.745 203.164 75.822L204.456 74.2952C202.255 72.4333 200.536 70.0747 199.304 67.1989L197.466 67.9867ZM203.151 75.8112C205.559 77.9178 208.443 79.4856 211.784 80.5252L212.378 78.6155C209.274 77.6498 206.644 76.2098 204.468 74.306L203.151 75.8112ZM211.784 80.5252C215.117 81.5622 218.8 82.0742 222.823 82.0742V80.0742C218.969 80.0742 215.49 79.5836 212.378 78.6155L211.784 80.5252ZM222.823 82.0742C226.658 82.0742 230.252 81.447 233.597 80.1835L232.89 78.3126C229.789 79.484 226.436 80.0742 222.823 80.0742V82.0742ZM233.593 80.1848C236.966 78.9248 239.908 77.1397 242.409 74.8258L241.05 73.3578C238.753 75.484 236.038 77.1364 232.893 78.3113L233.593 80.1848ZM242.409 74.8258C244.909 72.5121 246.867 69.7688 248.282 66.6044L246.456 65.7882C245.15 68.711 243.348 71.2314 241.05 73.3578L242.409 74.8258ZM248.28 66.6093C249.739 63.3907 250.481 59.8498 250.518 56.0008L248.518 55.9816C248.483 59.5806 247.792 62.843 246.458 65.7833L248.28 66.6093ZM250.518 55.9902L250.464 1.79588L248.464 1.79787L248.518 55.9922L250.518 55.9902ZM249.464 0.796875H234.371V2.79688H249.464V0.796875ZM311.661 45.7324V46.7324H312.661V45.7324H311.661ZM311.661 33.8086H312.661V32.8086H311.661V33.8086ZM279.542 33.8086H278.542V34.8086H279.542V33.8086ZM279.542 14.0967V13.0967H278.542V14.0967H279.542ZM316.925 14.0967V15.0967H317.925V14.0967H316.925ZM316.925 1.79688H317.925V0.796875H316.925V1.79688ZM264.396 1.79688V0.796875H263.396V1.79688H264.396ZM264.396 80H263.396V81H264.396V80ZM317.086 80V81H318.086V80H317.086ZM317.086 67.8076H318.086V66.8076H317.086V67.8076ZM279.542 67.8076H278.542V68.8076H279.542V67.8076ZM279.542 45.7324V44.7324H278.542V45.7324H279.542ZM312.661 45.7324V33.8086H310.661V45.7324H312.661ZM311.661 32.8086H279.542V34.8086H311.661V32.8086ZM280.542 33.8086V14.0967H278.542V33.8086H280.542ZM279.542 15.0967H316.925V13.0967H279.542V15.0967ZM317.925 14.0967V1.79688H315.925V14.0967H317.925ZM316.925 0.796875H264.396V2.79688H316.925V0.796875ZM263.396 1.79688V80H265.396V1.79688H263.396ZM264.396 81H317.086V79H264.396V81ZM318.086 80V67.8076H316.086V80H318.086ZM317.086 66.8076H279.542V68.8076H317.086V66.8076ZM280.542 67.8076V45.7324H278.542V67.8076H280.542ZM279.542 46.7324H311.661V44.7324H279.542V46.7324ZM383.902 55.5078L384.9 55.5713L384.968 54.5078H383.902V55.5078ZM368.81 55.5078V54.5078H367.868L367.811 55.4473L368.81 55.5078ZM351.622 68.3447L351.332 69.3018L351.349 69.3069L351.366 69.3114L351.622 68.3447ZM348.399 66.7334L348.995 65.9298L348.984 65.9219L348.399 66.7334ZM345.982 64.3164L345.165 64.8919L345.172 64.9019L345.179 64.9116L345.982 64.3164ZM344.21 60.9863L343.279 61.3514L343.281 61.3577L344.21 60.9863ZM342.599 54.5947L341.607 54.7241L341.608 54.7322L341.609 54.7402L342.599 54.5947ZM342.438 29.1895L343.432 29.2979L343.432 29.296L342.438 29.1895ZM343.458 23.7109L342.497 23.4341L342.496 23.439L343.458 23.7109ZM345.875 18.1787L345.034 17.637L345.031 17.6418L345.875 18.1787ZM349.635 14.4727L349.131 13.6089L349.13 13.6096L349.635 14.4727ZM352.428 13.3447L352.193 12.3726L352.185 12.3746L352.428 13.3447ZM361.451 13.8818L361.091 14.8146L361.103 14.8195L361.116 14.8241L361.451 13.8818ZM365.479 16.46L366.231 15.7998L366.22 15.7878L366.209 15.776L365.479 16.46ZM367.843 20.8643L366.887 21.157L366.889 21.1658L366.892 21.1747L367.843 20.8643ZM368.917 26.9873L367.919 27.0487L367.977 27.9873H368.917V26.9873ZM383.956 26.9873V27.9873H385.048L384.952 26.8999L383.956 26.9873ZM367.198 2.49512L366.855 3.43433L366.858 3.43549L367.198 2.49512ZM347.594 1.79688L347.868 2.75844L347.877 2.75581L347.594 1.79688ZM340.665 4.91211L340.124 4.07139L340.113 4.07849L340.102 4.08588L340.665 4.91211ZM329.815 18.7695L330.74 19.1503L330.744 19.1398L330.748 19.1293L329.815 18.7695ZM327.56 26.7188L328.544 26.8932L328.545 26.8911L327.56 26.7188ZM327.613 55.7764L326.629 55.9522L326.631 55.9635L327.613 55.7764ZM330.03 64.0479L329.106 64.4306L329.111 64.4418L330.03 64.0479ZM333.951 70.9229L333.148 71.5184L333.154 71.5272L333.951 70.9229ZM339.322 76.2402L338.732 77.0471L338.737 77.0513L339.322 76.2402ZM346.681 79.8926L346.38 80.8462L346.387 80.8485L346.394 80.8507L346.681 79.8926ZM366.822 79.3555L367.154 80.2991L367.162 80.2958L366.822 79.3555ZM375.523 74.1992L376.197 74.9382L375.523 74.1992ZM381.324 66.1426L380.418 65.7202L380.414 65.7288L381.324 66.1426ZM383.902 54.5078H368.81V56.5078H383.902V54.5078ZM367.811 55.4473C367.673 57.7388 367.293 59.6562 366.694 61.2195L368.562 61.9348C369.252 60.1322 369.66 58.0034 369.808 55.5683L367.811 55.4473ZM366.694 61.2195C366.093 62.7887 365.29 64.0371 364.301 64.9943L365.692 66.4315C366.922 65.2402 367.874 63.7314 368.562 61.9348L366.694 61.2195ZM364.301 64.9943C363.309 65.9537 362.104 66.6654 360.665 67.1232L361.271 69.0291C362.983 68.4844 364.463 67.6205 365.692 66.4315L364.301 64.9943ZM360.665 67.1232C359.204 67.5881 357.536 67.8281 355.65 67.8281V69.8281C357.704 69.8281 359.581 69.5669 361.271 69.0291L360.665 67.1232ZM355.65 67.8281C354.255 67.8281 352.999 67.6749 351.878 67.378L351.366 69.3114C352.68 69.6591 354.11 69.8281 355.65 69.8281V67.8281ZM351.912 67.3877C350.837 67.062 349.867 66.5759 348.995 65.9298L347.804 67.537C348.866 68.3232 350.044 68.9113 351.332 69.3018L351.912 67.3877ZM348.984 65.9219C348.18 65.3429 347.446 64.6125 346.786 63.7212L345.179 64.9116C345.951 65.9539 346.829 66.8348 347.815 67.5449L348.984 65.9219ZM346.8 63.7409C346.17 62.8458 345.615 61.8061 345.138 60.6149L343.281 61.3577C343.808 62.6731 344.434 63.8534 345.165 64.8919L346.8 63.7409ZM345.141 60.6212C344.459 58.881 343.938 56.8271 343.588 54.4492L341.609 54.7402C341.976 57.2322 342.529 59.4393 343.279 61.3514L345.141 60.6212ZM343.59 54.4654C343.275 52.0466 343.115 49.298 343.115 46.2158H341.115C341.115 49.3641 341.278 52.2014 341.607 54.7241L343.59 54.4654ZM343.115 46.2158V35.5811H341.115V46.2158H343.115ZM343.115 35.5811C343.115 33.3201 343.221 31.2262 343.432 29.2979L341.443 29.081C341.224 31.0915 341.115 33.2586 341.115 35.5811H343.115ZM343.432 29.296C343.642 27.3371 343.973 25.5673 344.42 23.9829L342.496 23.439C342.012 25.1488 341.663 27.0313 341.443 29.0829L343.432 29.296ZM344.419 23.9878C345.006 21.9512 345.776 20.1977 346.719 18.7156L345.031 17.6418C343.969 19.3108 343.128 21.2454 342.497 23.4341L344.419 23.9878ZM346.716 18.7204C347.68 17.2241 348.824 16.1062 350.14 15.3357L349.13 13.6096C347.51 14.5579 346.147 15.9106 345.034 17.637L346.716 18.7204ZM350.139 15.3364C350.913 14.8846 351.756 14.5435 352.67 14.3149L352.185 12.3746C351.094 12.6473 350.075 13.0581 349.131 13.6089L350.139 15.3364ZM352.662 14.3168C353.616 14.0865 354.647 13.9688 355.758 13.9688V11.9688C354.505 11.9688 353.316 12.1016 352.193 12.3726L352.662 14.3168ZM355.758 13.9688C357.891 13.9688 359.66 14.2619 361.091 14.8146L361.812 12.949C360.091 12.2844 358.064 11.9688 355.758 11.9688V13.9688ZM361.116 14.8241C362.591 15.3484 363.794 16.1245 364.75 17.1439L366.209 15.776C365.016 14.5038 363.534 13.5611 361.786 12.9396L361.116 14.8241ZM364.728 17.1201C365.659 18.1789 366.384 19.5156 366.887 21.157L368.799 20.5715C368.227 18.7038 367.377 17.1043 366.231 15.7998L364.728 17.1201ZM366.892 21.1747C367.433 22.8307 367.78 24.7848 367.919 27.0487L369.915 26.9259C369.768 24.5348 369.398 22.4069 368.793 20.5539L366.892 21.1747ZM368.917 27.9873H383.956V25.9873H368.917V27.9873ZM384.952 26.8999C384.587 22.7315 383.707 18.9585 382.301 15.5912L380.455 16.3619C381.77 19.5116 382.609 23.0791 382.96 27.0747L384.952 26.8999ZM382.301 15.5912C380.891 12.2157 378.954 9.3405 376.482 6.98172L375.102 8.42843C377.357 10.5814 379.143 13.2205 380.455 16.3619L382.301 15.5912ZM376.482 6.98172C374.009 4.62116 371.022 2.81487 367.538 1.55474L366.858 3.43549C370.106 4.61026 372.848 6.27728 375.102 8.42843L376.482 6.98172ZM367.542 1.55591C364.081 0.290741 360.148 -0.331055 355.758 -0.331055V1.66895C359.962 1.66895 363.655 2.2646 366.855 3.43432L367.542 1.55591ZM355.758 -0.331055C352.77 -0.331055 349.953 0.0563248 347.31 0.837941L347.877 2.75581C350.319 2.03352 352.944 1.66895 355.758 1.66895V-0.331055ZM347.319 0.835351C344.722 1.57744 342.322 2.65561 340.124 4.07139L341.207 5.75282C343.234 4.44725 345.453 3.4486 347.868 2.7584L347.319 0.835351ZM340.102 4.08588C337.653 5.75552 335.468 7.79381 333.546 10.1956L335.108 11.445C336.911 9.19186 338.951 7.29135 341.228 5.73834L340.102 4.08588ZM333.546 10.1956C331.616 12.6084 330.063 15.3488 328.882 18.4098L330.748 19.1293C331.86 16.2463 333.314 13.6872 335.108 11.445L333.546 10.1956ZM328.891 18.3888C327.858 20.8973 327.087 23.6177 326.575 26.5464L328.545 26.8911C329.035 24.0907 329.768 21.5116 330.74 19.1503L328.891 18.3888ZM326.575 26.5443C326.062 29.4359 325.808 32.4845 325.808 35.6885H327.808C327.808 32.5904 328.054 29.6592 328.544 26.8932L326.575 26.5443ZM325.808 35.6885V46.2158H327.808V35.6885H325.808ZM325.808 46.2158C325.808 49.6348 326.08 52.8808 326.629 55.9522L328.598 55.6006C328.072 52.6563 327.808 49.5286 327.808 46.2158H325.808ZM326.631 55.9635C327.215 59.0299 328.039 61.8536 329.106 64.4306L330.954 63.6651C329.945 61.2291 329.157 58.5384 328.596 55.5893L326.631 55.9635ZM329.111 64.4418C330.214 67.0159 331.559 69.3758 333.148 71.5184L334.754 70.3273C333.264 68.3163 331.995 66.0929 330.949 63.6539L329.111 64.4418ZM333.154 71.5272C334.786 73.6774 336.644 75.5191 338.732 77.0471L339.913 75.4334C337.99 74.0252 336.268 72.322 334.748 70.3185L333.154 71.5272ZM338.737 77.0513C341.013 78.6928 343.563 79.9566 346.38 80.8462L346.982 78.939C344.356 78.1098 342 76.9388 339.907 75.4292L338.737 77.0513ZM346.394 80.8507C349.255 81.7052 352.342 82.1279 355.65 82.1279V80.1279C352.513 80.1279 349.621 79.7271 346.967 78.9344L346.394 80.8507ZM355.65 82.1279C359.829 82.1279 363.667 81.523 367.154 80.299L366.491 78.4119C363.246 79.5512 359.636 80.1279 355.65 80.1279V82.1279ZM367.162 80.2958C370.641 79.0377 373.657 77.254 376.197 74.9382L374.85 73.4603C372.52 75.5846 369.735 77.2384 366.482 78.4151L367.162 80.2958ZM376.197 74.9382C378.737 72.6223 380.749 69.8244 382.235 66.5564L380.414 65.7288C379.035 68.7629 377.179 71.336 374.85 73.4603L376.197 74.9382ZM382.231 66.5649C383.758 63.2868 384.643 59.6177 384.9 55.5713L382.904 55.4443C382.661 59.2755 381.827 62.6963 380.418 65.7203L382.231 66.5649ZM453.136 14.0967V15.0967H454.136V14.0967H453.136ZM453.136 1.79688H454.136V0.796875H453.136V1.79688ZM390.079 1.79688V0.796875H389.079V1.79688H390.079ZM390.079 14.0967H389.079V15.0967H390.079V14.0967ZM413.873 14.0967H414.873V13.0967H413.873V14.0967ZM413.873 80H412.873V81H413.873V80ZM429.02 80V81H430.02V80H429.02ZM429.02 14.0967V13.0967H428.02V14.0967H429.02ZM454.136 14.0967V1.79688H452.136V14.0967H454.136ZM453.136 0.796875H390.079V2.79688H453.136V0.796875ZM389.079 1.79688V14.0967H391.079V1.79688H389.079ZM390.079 15.0967H413.873V13.0967H390.079V15.0967ZM412.873 14.0967V80H414.873V14.0967H412.873ZM413.873 81H429.02V79H413.873V81ZM430.02 80V14.0967H428.02V80H430.02ZM429.02 15.0967H453.136V13.0967H429.02V15.0967ZM501.476 63.457L502.37 63.9043L502.375 63.8933L501.476 63.457ZM499.005 66.4111L498.396 65.6175L499.005 66.4111ZM495.03 68.3447L494.747 67.3857L494.741 67.3875L495.03 68.3447ZM483.482 68.291L483.222 69.2566L483.227 69.2579L483.482 68.291ZM478.702 65.9277L479.332 65.1509L479.322 65.1429L478.702 65.9277ZM474.298 55.7227L475.297 55.6924L475.268 54.7227H474.298V55.7227ZM459.474 55.7227V54.7227H458.474V55.7227H459.474ZM461.783 66.3037L460.893 66.7594L460.897 66.7677L461.783 66.3037ZM468.175 74.1455L467.538 74.9163L467.544 74.9219L467.551 74.9273L468.175 74.1455ZM478.111 79.3018L477.814 80.2566L477.825 80.2598L478.111 79.3018ZM500.724 79.624L500.99 80.5879L501 80.5852L500.724 79.624ZM509.425 75.3809L508.825 74.5808L508.817 74.5865L509.425 75.3809ZM515.118 68.667L514.231 68.2056L514.229 68.2102L515.118 68.667ZM507.115 40.9521L507.712 40.1499L507.696 40.1381L507.68 40.1268L507.115 40.9521ZM492.721 34.5068L492.99 33.5438L492.983 33.5418L492.721 34.5068ZM485.953 32.3047L485.582 33.2332L485.587 33.2354L485.953 32.3047ZM480.904 29.6729L481.474 28.8507L481.466 28.8457L481.459 28.8408L480.904 29.6729ZM477.682 26.5039L476.826 27.0222L476.832 27.0316L476.838 27.0408L477.682 26.5039ZM477.413 18.6621L476.508 18.2363L476.503 18.2483L477.413 18.6621ZM479.884 15.4932L479.259 14.7123L479.251 14.7185L479.244 14.7249L479.884 15.4932ZM483.805 13.5059L484.094 14.4631L484.101 14.461L484.108 14.4588L483.805 13.5059ZM494.869 13.667L494.516 14.6025L494.528 14.6071L494.541 14.6115L494.869 13.667ZM499.005 16.084L499.712 15.3769L499.7 15.3651L499.688 15.3537L499.005 16.084ZM501.422 19.8975L500.483 20.241L500.486 20.2511L500.49 20.261L501.422 19.8975ZM502.389 24.7314L501.39 24.7722L501.429 25.7314H502.389V24.7314ZM517.105 24.7314V25.7314H518.105V24.7314H517.105ZM509.371 7.43652L510.033 6.68666L510.026 6.6812L509.371 7.43652ZM500.616 2.49512L500.285 3.43867L500.288 3.43975L500.616 2.49512ZM478.487 2.28027L478.773 3.2387L478.782 3.23583L478.487 2.28027ZM463.395 30.4248L462.475 30.8171L462.48 30.8284L463.395 30.4248ZM468.121 37.085L467.426 37.8044L468.121 37.085ZM476.124 42.6172L475.665 43.5057L475.669 43.5077L476.124 42.6172ZM487.564 46.9141L487.301 47.8788L487.304 47.8797L487.564 46.9141ZM494.547 49.3848L494.114 50.286L494.124 50.291L494.134 50.2957L494.547 49.3848ZM499.166 52.2314L499.85 51.5019L499.838 51.4909L499.826 51.4803L499.166 52.2314ZM501.583 55.6689L500.649 56.0261L500.653 56.0379L500.658 56.0497L501.583 55.6689ZM501.335 59.5898C501.335 60.845 501.079 61.9837 500.576 63.0208L502.375 63.8933C503.018 62.5671 503.335 61.1277 503.335 59.5898H501.335ZM500.581 63.0098C500.08 64.0123 499.357 64.8809 498.396 65.6175L499.613 67.2047C500.801 66.2942 501.725 65.1934 502.37 63.9042L500.581 63.0098ZM498.396 65.6175C497.438 66.3524 496.229 66.9477 494.747 67.3857L495.314 69.3037C496.982 68.8107 498.423 68.117 499.613 67.2047L498.396 65.6175ZM494.741 67.3875C493.315 67.8187 491.643 68.043 489.713 68.043V70.043C491.793 70.043 493.666 69.8018 495.32 69.3019L494.741 67.3875ZM489.713 68.043C487.531 68.043 485.541 67.8005 483.738 67.3242L483.227 69.2579C485.219 69.7842 487.383 70.043 489.713 70.043V68.043ZM483.742 67.3254C481.998 66.8557 480.535 66.1262 479.332 65.151L478.072 66.7045C479.519 67.8777 481.243 68.7237 483.222 69.2566L483.742 67.3254ZM479.322 65.1429C478.096 64.1751 477.137 62.9291 476.446 61.3841L474.62 62.1999C475.434 64.0208 476.587 65.532 478.083 66.7126L479.322 65.1429ZM476.446 61.3841C475.76 59.8486 475.366 57.9606 475.297 55.6924L473.298 55.7529C473.373 58.2113 473.802 60.3695 474.62 62.1999L476.446 61.3841ZM474.298 54.7227H459.474V56.7227H474.298V54.7227ZM458.474 55.7227C458.474 59.8963 459.268 63.5853 460.893 66.7594L462.673 65.848C461.219 63.0065 460.474 59.6415 460.474 55.7227H458.474ZM460.897 66.7677C462.536 69.8964 464.752 72.6138 467.538 74.9163L468.812 73.3748C466.226 71.2371 464.181 68.7266 462.669 65.8397L460.897 66.7677ZM467.551 74.9273C470.486 77.2679 473.912 79.0417 477.814 80.2566L478.409 78.347C474.72 77.1986 471.521 75.5348 468.798 73.3637L467.551 74.9273ZM477.825 80.2598C481.747 81.4328 485.71 82.0205 489.713 82.0205V80.0205C485.909 80.0205 482.139 79.4624 478.398 78.3437L477.825 80.2598ZM489.713 82.0205C493.765 82.0205 497.527 81.5459 500.99 80.5878L500.457 78.6602C497.189 79.5641 493.61 80.0205 489.713 80.0205V82.0205ZM501 80.5852C504.469 79.5888 507.485 78.123 510.032 76.1752L508.817 74.5865C506.495 76.3627 503.71 77.7257 500.448 78.6629L501 80.5852ZM510.025 76.1809C512.578 74.2658 514.576 71.9114 516.008 69.1238L514.229 68.2102C512.939 70.722 511.141 72.8436 508.825 74.5809L510.025 76.1809ZM516.005 69.1283C517.485 66.282 518.213 63.0585 518.213 59.4824H516.213C516.213 62.7813 515.544 65.6809 514.231 68.2056L516.005 69.1283ZM518.213 59.4824C518.213 55.3488 517.261 51.6577 515.331 48.4406L513.616 49.4696C515.338 52.3397 516.213 55.6668 516.213 59.4824H518.213ZM515.331 48.4406C513.432 45.2761 510.888 42.5132 507.712 40.1499L506.518 41.7544C509.501 43.9745 511.862 46.5468 513.616 49.4696L515.331 48.4406ZM507.68 40.1268C505.584 38.6931 503.292 37.4284 500.805 36.3312L499.998 38.161C502.381 39.2122 504.564 40.4183 506.551 41.7775L507.68 40.1268ZM500.805 36.3312C498.325 35.2369 495.719 34.308 492.99 33.5439L492.451 35.4698C495.093 36.2096 497.608 37.1069 499.998 38.161L500.805 36.3312ZM492.983 33.5418C490.504 32.8691 488.284 32.146 486.319 31.3739L485.587 33.2354C487.633 34.0389 489.924 34.7839 492.459 35.4719L492.983 33.5418ZM486.325 31.3762C484.408 30.6098 482.795 29.7657 481.474 28.8507L480.335 30.495C481.806 31.5136 483.559 32.4241 485.582 33.2332L486.325 31.3762ZM481.459 28.8408C480.156 27.972 479.189 27.0103 478.525 25.967L476.838 27.0408C477.678 28.3608 478.86 29.5117 480.35 30.5049L481.459 28.8408ZM478.537 25.9856C477.921 24.9701 477.607 23.8265 477.607 22.5293H475.607C475.607 24.1682 476.01 25.6744 476.826 27.0222L478.537 25.9856ZM477.607 22.5293C477.607 21.2646 477.85 20.1179 478.323 19.0759L476.503 18.2483C475.902 19.5696 475.607 21.0011 475.607 22.5293H477.607ZM478.318 19.0879C478.826 18.0078 479.557 17.0669 480.524 16.2614L479.244 14.7249C478.062 15.7098 477.146 16.8816 476.508 18.2363L478.318 19.0879ZM480.508 16.274C481.468 15.5065 482.656 14.8978 484.094 14.4631L483.515 12.5486C481.874 13.0449 480.448 13.761 479.259 14.7123L480.508 16.274ZM484.108 14.4588C485.567 13.9945 487.252 13.7539 489.176 13.7539V11.7539C487.089 11.7539 485.193 12.0146 483.501 12.5529L484.108 14.4588ZM489.176 13.7539C491.27 13.7539 493.043 14.0461 494.516 14.6025L495.223 12.7315C493.473 12.0704 491.45 11.7539 489.176 11.7539V13.7539ZM494.541 14.6115C496.075 15.1453 497.328 15.8843 498.322 16.8143L499.688 15.3537C498.462 14.2069 496.957 13.3346 495.198 12.7225L494.541 14.6115ZM498.298 16.7911C499.266 17.7594 499.994 18.9055 500.483 20.241L502.361 19.5539C501.775 17.9533 500.892 16.557 499.712 15.3769L498.298 16.7911ZM500.49 20.261C501.019 21.6149 501.322 23.1157 501.39 24.7722L503.388 24.6907C503.312 22.8381 502.971 21.1162 502.353 19.5339L500.49 20.261ZM502.389 25.7314H517.105V23.7314H502.389V25.7314ZM518.105 24.7314C518.105 21.0895 517.399 17.7218 515.972 14.643L514.157 15.4839C515.452 18.2775 516.105 21.3551 516.105 24.7314H518.105ZM515.972 14.643C514.553 11.5808 512.571 8.9264 510.033 6.68669L508.709 8.18636C511.041 10.2435 512.855 12.6738 514.157 15.4839L515.972 14.643ZM510.026 6.6812C507.485 4.47603 504.452 2.76898 500.944 1.55049L500.288 3.43975C503.584 4.58454 506.388 6.17176 508.716 8.19185L510.026 6.6812ZM500.947 1.55157C497.461 0.327599 493.623 -0.277344 489.444 -0.277344V1.72266C493.43 1.72266 497.04 2.29935 500.285 3.43866L500.947 1.55157ZM489.444 -0.277344C485.417 -0.277344 481.664 0.253591 478.193 1.32471L478.782 3.23583C482.042 2.23013 485.594 1.72266 489.444 1.72266V-0.277344ZM478.202 1.32189C474.734 2.35496 471.702 3.85674 469.123 5.83781L470.342 7.42391C472.704 5.60941 475.509 4.2108 478.773 3.23866L478.202 1.32189ZM469.123 5.83781C466.54 7.82186 464.51 10.2256 463.044 13.0445L464.819 13.9672C466.146 11.415 467.983 9.23543 470.342 7.42391L469.123 5.83781ZM463.044 13.0445C461.567 15.8849 460.837 19.0352 460.837 22.4756H462.837C462.837 19.3274 463.503 16.4979 464.819 13.9672L463.044 13.0445ZM460.837 22.4756C460.837 25.4638 461.379 28.2483 462.475 30.8171L464.314 30.0325C463.333 27.7315 462.837 25.2165 462.837 22.4756H460.837ZM462.48 30.8284C463.61 33.3916 465.264 35.7168 467.426 37.8044L468.816 36.3656C466.824 34.4427 465.327 32.3278 464.309 30.0212L462.48 30.8284ZM467.426 37.8044C469.589 39.8925 472.342 41.7896 475.665 43.5057L476.583 41.7287C473.389 40.0789 470.807 38.2879 468.816 36.3656L467.426 37.8044ZM475.669 43.5077C479.036 45.2277 482.916 46.6828 487.301 47.8788L487.828 45.9493C483.548 44.7821 479.801 43.3725 476.579 41.7267L475.669 43.5077ZM487.304 47.8797C490.059 48.6214 492.324 49.4258 494.114 50.286L494.98 48.4835C493.045 47.5533 490.655 46.7106 487.824 45.9484L487.304 47.8797ZM494.134 50.2957C495.969 51.1267 497.418 52.0266 498.506 52.9826L499.826 51.4803C498.551 50.3595 496.92 49.3616 494.959 48.4738L494.134 50.2957ZM498.482 52.961C499.54 53.9526 500.248 54.9762 500.649 56.0261L502.517 55.3118C501.988 53.9268 501.084 52.6588 499.85 51.5019L498.482 52.961ZM500.658 56.0497C501.107 57.1392 501.335 58.3159 501.335 59.5898H503.335C503.335 58.0708 503.062 56.6336 502.508 55.2882L500.658 56.0497Z" fill="#FAF2F2"/>
</svg>
