<svg width="544" height="77" viewBox="0 0 544 77" fill="none" xmlns="http://www.w3.org/2000/svg">
<path d="M57.8188 39.985L58.6861 40.4829L58.69 40.476L57.8188 39.985ZM48.1588 49.015L47.6943 48.1294L47.6882 48.1326L48.1588 49.015ZM23.5888 52.375V51.375H22.5888V52.375H23.5888ZM23.5888 76V77H24.5888V76H23.5888ZM0.278809 76H-0.721191V77H0.278809V76ZM0.278809 1.66V0.66H-0.721191V1.66H0.278809ZM53.7238 8.59L53.0326 9.31266L53.0378 9.31759L53.7238 8.59ZM23.5888 20.35V19.35H22.5888V20.35H23.5888ZM23.5888 34H22.5888V35H23.5888V34ZM60.0738 27.175C60.0738 31.7039 59.028 35.8031 56.9477 39.494L58.69 40.476C60.9496 36.4669 62.0738 32.0261 62.0738 27.175H60.0738ZM56.9516 39.4871C54.8861 43.085 51.8144 45.9681 47.6943 48.1295L48.6234 49.9005C53.0432 47.5819 56.4115 44.445 58.6861 40.4829L56.9516 39.4871ZM47.6882 48.1326C43.6664 50.2776 38.7272 51.375 32.8288 51.375V53.375C38.9705 53.375 44.2512 52.2324 48.6294 49.8974L47.6882 48.1326ZM32.8288 51.375H23.5888V53.375H32.8288V51.375ZM22.5888 52.375V76H24.5888V52.375H22.5888ZM23.5888 75H0.278809V77H23.5888V75ZM1.27881 76V1.66H-0.721191V76H1.27881ZM0.278809 2.66H32.8288V0.66H0.278809V2.66ZM32.8288 2.66C41.7661 2.66 48.4475 4.92688 53.0326 9.31264L54.415 7.86736C49.3401 3.01312 42.0915 0.66 32.8288 0.66V2.66ZM53.0378 9.31759C57.706 13.7191 60.0738 19.6341 60.0738 27.175H62.0738C62.0738 19.1759 59.5416 12.7009 54.4098 7.86241L53.0378 9.31759ZM30.2038 35C32.7586 35 34.8606 34.3995 36.3233 33.0216C37.7971 31.6332 38.4488 29.6199 38.4488 27.175H36.4488C36.4488 29.2801 35.893 30.6793 34.9519 31.5659C33.9995 32.463 32.479 33 30.2038 33V35ZM38.4488 27.175C38.4488 24.7301 37.7971 22.7168 36.3233 21.3284C34.8606 19.9505 32.7586 19.35 30.2038 19.35V21.35C32.479 21.35 33.9995 21.887 34.9519 22.7841C35.893 23.6707 36.4488 25.0699 36.4488 27.175H38.4488ZM30.2038 19.35H23.5888V21.35H30.2038V19.35ZM22.5888 20.35V34H24.5888V20.35H22.5888ZM23.5888 35H30.2038V33H23.5888V35ZM105.847 76L104.961 76.4639L105.242 77H105.847V76ZM91.8823 49.33L92.7682 48.8661L92.4875 48.33H91.8823V49.33ZM91.7773 49.33V48.33H90.7773V49.33H91.7773ZM91.7773 76V77H92.7773V76H91.7773ZM68.4673 76H67.4673V77H68.4673V76ZM68.4673 1.66V0.66H67.4673V1.66H68.4673ZM118.552 4.915L118.099 5.80656L118.111 5.81234L118.552 4.915ZM128.107 13.63L127.237 14.1226L127.243 14.1324L127.248 14.1421L128.107 13.63ZM127.162 39.25L126.353 38.6618L126.347 38.6716L127.162 39.25ZM115.297 47.545L114.989 46.5938L113.822 46.9723L114.428 48.0391L115.297 47.545ZM131.467 76V77H133.186L132.337 75.5059L131.467 76ZM91.7773 33.79H90.7773V34.79H91.7773V33.79ZM106.057 32.32L106.716 33.0726L106.729 33.0613L106.741 33.0495L106.057 32.32ZM105.952 22.87L105.245 23.5771L105.256 23.5878L105.267 23.5982L105.952 22.87ZM91.7773 21.19V20.19H90.7773V21.19H91.7773ZM106.733 75.5361L92.7682 48.8661L90.9964 49.7939L104.961 76.4639L106.733 75.5361ZM91.8823 48.33H91.7773V50.33H91.8823V48.33ZM90.7773 49.33V76H92.7773V49.33H90.7773ZM91.7773 75H68.4673V77H91.7773V75ZM69.4673 76V1.66H67.4673V76H69.4673ZM68.4673 2.66H103.117V0.66H68.4673V2.66ZM103.117 2.66C109.019 2.66 114.001 3.72378 118.099 5.80648L119.005 4.02351C114.564 1.76622 109.255 0.66 103.117 0.66V2.66ZM118.111 5.81234C122.222 7.83434 125.247 10.6076 127.237 14.1226L128.978 13.1374C126.767 9.23242 123.422 6.19566 118.994 4.01765L118.111 5.81234ZM127.248 14.1421C129.318 17.6134 130.362 21.5635 130.362 26.02H132.362C132.362 21.2365 131.237 16.9266 128.966 13.1179L127.248 14.1421ZM130.362 26.02C130.362 30.7886 129.024 34.9906 126.354 38.6618L127.971 39.8382C130.901 35.8094 132.362 31.1914 132.362 26.02H130.362ZM126.347 38.6716C123.76 42.3198 119.997 44.9696 114.989 46.5938L115.606 48.4962C120.958 46.7604 125.105 43.8802 127.978 39.8284L126.347 38.6716ZM114.428 48.0391L130.598 76.4941L132.337 75.5059L116.167 47.0509L114.428 48.0391ZM131.467 75H105.847V77H131.467V75ZM91.7773 34.79H101.017V32.79H91.7773V34.79ZM101.017 34.79C103.381 34.79 105.341 34.2758 106.716 33.0726L105.399 31.5674C104.534 32.3242 103.134 32.79 101.017 32.79V34.79ZM106.741 33.0495C108.135 31.7432 108.737 29.8197 108.737 27.49H106.737C106.737 29.5003 106.22 30.7968 105.373 31.5905L106.741 33.0495ZM108.737 27.49C108.737 25.3137 108.068 23.488 106.638 22.1418L105.267 23.5982C106.217 24.492 106.737 25.7463 106.737 27.49H108.737ZM106.659 22.1629C105.291 20.7946 103.352 20.19 101.017 20.19V22.19C103.022 22.19 104.373 22.7054 105.245 23.5771L106.659 22.1629ZM101.017 20.19H91.7773V22.19H101.017V20.19ZM90.7773 21.19V33.79H92.7773V21.19H90.7773ZM155.714 71.8L155.221 72.6702L155.226 72.6727L155.714 71.8ZM141.854 58.15L140.993 58.6584L140.993 58.6584L141.854 58.15ZM155.714 5.335L156.199 6.20966L156.202 6.20768L155.714 5.335ZM194.249 5.335L193.756 6.2052L193.764 6.20965L194.249 5.335ZM208.004 18.88L207.138 19.3806L207.143 19.3884L208.004 18.88ZM208.004 58.15L207.143 57.6416L207.138 57.6494L208.004 58.15ZM194.144 71.8L193.656 70.9273L193.651 70.9298L194.144 71.8ZM185.744 50.59L186.503 51.2408L186.511 51.2319L185.744 50.59ZM185.744 26.44L184.977 27.082L184.985 27.0908L185.744 26.44ZM164.219 26.44L164.978 27.0908L164.986 27.0819L164.219 26.44ZM164.219 50.59L163.452 51.232L163.46 51.2408L164.219 50.59ZM175.034 75.735C168.198 75.735 161.927 74.1305 156.202 70.9273L155.226 72.6727C161.261 76.0495 167.87 77.735 175.034 77.735V75.735ZM156.207 70.9298C150.551 67.727 146.057 63.3025 142.715 57.6416L140.993 58.6584C144.511 64.6175 149.257 69.293 155.221 72.6702L156.207 70.9298ZM142.715 57.6416C139.383 51.9977 137.709 45.6308 137.709 38.515H135.709C135.709 45.9592 137.465 52.6823 140.993 58.6584L142.715 57.6416ZM137.709 38.515C137.709 31.3992 139.383 25.0323 142.715 19.3884L140.993 18.3716C137.465 24.3477 135.709 31.0708 135.709 38.515H137.709ZM142.715 19.3884C146.056 13.7293 150.547 9.34186 156.199 6.20965L155.229 4.46034C149.261 7.76813 144.512 12.4107 140.993 18.3716L142.715 19.3884ZM156.202 6.20768C161.927 3.00448 168.198 1.4 175.034 1.4V-0.600003C167.87 -0.600003 161.261 1.08552 155.226 4.46231L156.202 6.20768ZM175.034 1.4C181.87 1.4 188.104 3.00445 193.756 6.20517L194.742 4.46482C188.774 1.08555 182.198 -0.600003 175.034 -0.600003V1.4ZM193.764 6.20965C199.414 9.34084 203.868 13.7258 207.138 19.3806L208.87 18.3794C205.42 12.4142 200.704 7.76915 194.734 4.46034L193.764 6.20965ZM207.143 19.3884C210.475 25.0323 212.149 31.3992 212.149 38.515H214.149C214.149 31.0708 212.393 24.3477 208.865 18.3716L207.143 19.3884ZM212.149 38.515C212.149 45.6308 210.475 51.9977 207.143 57.6416L208.865 58.6584C212.393 52.6823 214.149 45.9592 214.149 38.515H212.149ZM207.138 57.6494C203.869 63.303 199.379 67.7248 193.656 70.9273L194.632 72.6727C200.669 69.2952 205.419 64.617 208.87 58.6506L207.138 57.6494ZM193.651 70.9298C187.997 74.1314 181.798 75.735 175.034 75.735V77.735C182.13 77.735 188.671 76.0486 194.637 72.6702L193.651 70.9298ZM175.034 56C179.884 56 183.756 54.4455 186.503 51.2408L184.985 49.9392C182.692 52.6145 179.424 54 175.034 54V56ZM186.511 51.2319C189.22 47.9959 190.524 43.7217 190.524 38.515H188.524C188.524 43.3883 187.308 47.1641 184.977 49.9481L186.511 51.2319ZM190.524 38.515C190.524 33.2436 189.223 28.9616 186.503 25.7892L184.985 27.0908C187.306 29.7984 188.524 33.5663 188.524 38.515H190.524ZM186.511 25.7981C183.766 22.5201 179.892 20.925 175.034 20.925V22.925C179.416 22.925 182.682 24.3399 184.977 27.0819L186.511 25.7981ZM175.034 20.925C170.112 20.925 166.2 22.5165 163.452 25.7981L164.986 27.0819C167.278 24.3435 170.576 22.925 175.034 22.925V20.925ZM163.46 25.7892C160.741 28.9616 159.439 33.2436 159.439 38.515H161.439C161.439 33.5663 162.658 29.7984 164.978 27.0908L163.46 25.7892ZM159.439 38.515C159.439 43.7217 160.743 47.9959 163.452 51.2319L164.986 49.9481C162.655 47.1641 161.439 43.3883 161.439 38.515H159.439ZM163.46 51.2408C166.21 54.449 170.12 56 175.034 56V54C170.569 54 167.268 52.611 164.978 49.9392L163.46 51.2408ZM273.428 1.66H274.428V0.66H273.428V1.66ZM266.393 69.91L267.095 70.6225L267.095 70.6224L266.393 69.91ZM225.338 69.28L226.021 68.5493L226.021 68.5493L225.338 69.28ZM217.358 47.545V46.545H216.358V47.545H217.358ZM240.353 47.545H241.353V46.545H240.353V47.545ZM241.823 53.95L241.034 54.5639L241.042 54.5749L241.051 54.5857L241.823 53.95ZM249.068 54.37L248.305 53.7241L248.305 53.7241L249.068 54.37ZM250.223 1.66V0.66H249.223V1.66H250.223ZM272.428 1.66V49.645H274.428V1.66H272.428ZM272.428 49.645C272.428 58.3639 270.131 64.824 265.691 69.1976L267.095 70.6224C272.035 65.756 274.428 58.7061 274.428 49.645H272.428ZM265.691 69.1975C261.309 73.5135 255.081 75.735 246.863 75.735V77.735C255.445 77.735 262.237 75.4065 267.095 70.6225L265.691 69.1975ZM246.863 75.735C238.023 75.735 231.114 73.3071 226.021 68.5493L224.655 70.0107C230.203 75.1929 237.643 77.735 246.863 77.735V75.735ZM226.021 68.5493C220.96 63.8219 218.358 56.8776 218.358 47.545H216.358C216.358 57.2524 219.076 64.7981 224.655 70.0107L226.021 68.5493ZM217.358 48.545H240.353V46.545H217.358V48.545ZM239.353 47.545C239.353 50.6072 239.84 53.0297 241.034 54.5639L242.612 53.3361C241.846 52.3503 241.353 50.5028 241.353 47.545H239.353ZM241.051 54.5857C242.24 56.0289 243.865 56.735 245.813 56.735V54.735C244.401 54.735 243.366 54.2511 242.595 53.3143L241.051 54.5857ZM245.813 56.735C247.45 56.735 248.838 56.1905 249.831 55.0159L248.305 53.7241C247.759 54.3695 246.976 54.735 245.813 54.735V56.735ZM249.831 55.0159C250.841 53.8232 251.223 51.9397 251.223 49.645H249.223C249.223 51.8303 248.836 53.0968 248.305 53.7241L249.831 55.0159ZM251.223 49.645V1.66H249.223V49.645H251.223ZM250.223 2.66H273.428V0.66H250.223V2.66ZM306.802 20.245V19.245H305.802V20.245H306.802ZM306.802 29.38H305.802V30.38H306.802V29.38ZM329.902 29.38H330.902V28.38H329.902V29.38ZM329.902 46.915V47.915H330.902V46.915H329.902ZM306.802 46.915V45.915H305.802V46.915H306.802ZM306.802 57.415H305.802V58.415H306.802V57.415ZM333.052 57.415H334.052V56.415H333.052V57.415ZM333.052 76V77H334.052V76H333.052ZM283.492 76H282.492V77H283.492V76ZM283.492 1.66V0.66H282.492V1.66H283.492ZM333.052 1.66H334.052V0.66H333.052V1.66ZM333.052 20.245V21.245H334.052V20.245H333.052ZM305.802 20.245V29.38H307.802V20.245H305.802ZM306.802 30.38H329.902V28.38H306.802V30.38ZM328.902 29.38V46.915H330.902V29.38H328.902ZM329.902 45.915H306.802V47.915H329.902V45.915ZM305.802 46.915V57.415H307.802V46.915H305.802ZM306.802 58.415H333.052V56.415H306.802V58.415ZM332.052 57.415V76H334.052V57.415H332.052ZM333.052 75H283.492V77H333.052V75ZM284.492 76V1.66H282.492V76H284.492ZM283.492 2.66H333.052V0.66H283.492V2.66ZM332.052 1.66V20.245H334.052V1.66H332.052ZM333.052 19.245H306.802V21.245H333.052V19.245ZM344.146 19.09L343.261 18.6256L343.256 18.6341L344.146 19.09ZM356.956 5.755L357.451 6.62396L357.46 6.61917L356.956 5.755ZM393.706 4.6L393.269 5.49937L393.277 5.503L393.284 5.5065L393.706 4.6ZM406.096 14.785L405.283 15.3663L405.289 15.3747L406.096 14.785ZM412.501 30.22V31.22H413.696L413.486 30.0442L412.501 30.22ZM387.931 30.22L387.022 30.6358L387.289 31.22H387.931V30.22ZM383.101 24.55L382.534 25.3732L382.55 25.3843L382.566 25.3948L383.101 24.55ZM366.721 26.86L365.935 26.2422L365.931 26.248L365.926 26.254L366.721 26.86ZM366.721 50.59L365.926 51.196L365.931 51.202L365.935 51.2078L366.721 50.59ZM383.101 53.005L383.649 53.8415L383.656 53.837L383.101 53.005ZM387.931 47.23V46.23H387.289L387.022 46.8142L387.931 47.23ZM412.501 47.23L413.486 47.4058L413.696 46.23H412.501V47.23ZM406.096 62.665L405.289 62.0753L405.283 62.0838L406.096 62.665ZM393.706 72.955L394.133 73.8593L394.139 73.8567L393.706 72.955ZM356.956 71.8L356.453 72.6642L356.461 72.6689L356.956 71.8ZM344.146 58.36L343.256 58.8159L343.261 58.8244L344.146 58.36ZM340.736 38.725C340.736 31.5112 342.178 25.1262 345.036 19.5459L343.256 18.6341C340.235 24.5338 338.736 31.2388 338.736 38.725H340.736ZM345.032 19.5544C347.955 13.9805 352.091 9.6774 357.451 6.62392L356.461 4.88608C350.762 8.1326 346.358 12.7195 343.261 18.6256L345.032 19.5544ZM357.46 6.61917C362.813 3.50228 369.143 1.925 376.486 1.925V-0.0750035C368.85 -0.0750035 362.16 1.56771 356.453 4.89082L357.46 6.61917ZM376.486 1.925C382.798 1.925 388.384 3.12481 393.269 5.49937L394.144 3.70063C388.948 1.17518 383.055 -0.0750035 376.486 -0.0750035V1.925ZM393.284 5.5065C398.244 7.81671 402.237 11.1024 405.283 15.3662L406.91 14.2038C403.656 9.64763 399.388 6.14329 394.129 3.6935L393.284 5.5065ZM405.289 15.3747C408.411 19.6508 410.491 24.6511 411.517 30.3958L413.486 30.0442C412.412 24.0289 410.222 18.7392 406.904 14.1953L405.289 15.3747ZM412.501 29.22H387.931V31.22H412.501V29.22ZM388.841 29.8042C387.647 27.1934 385.914 25.1476 383.636 23.7052L382.566 25.3948C384.489 26.6124 385.976 28.3466 387.022 30.6358L388.841 29.8042ZM383.669 23.7268C381.459 22.2025 378.912 21.45 376.066 21.45V23.45C378.54 23.45 380.684 24.0975 382.534 25.3732L383.669 23.7268ZM376.066 21.45C371.857 21.45 368.445 23.0476 365.935 26.2422L367.508 27.4778C369.618 24.7923 372.436 23.45 376.066 23.45V21.45ZM365.926 26.254C363.514 29.4195 362.361 33.6109 362.361 38.725H364.361C364.361 33.8991 365.449 30.1805 367.517 27.466L365.926 26.254ZM362.361 38.725C362.361 43.8391 363.514 48.0305 365.926 51.196L367.517 49.984C365.449 47.2695 364.361 43.5509 364.361 38.725H362.361ZM365.935 51.2078C368.445 54.4023 371.857 56 376.066 56V54C372.436 54 369.618 52.6577 367.508 49.9722L365.935 51.2078ZM376.066 56C378.902 56 381.441 55.2883 383.649 53.8415L382.553 52.1685C380.702 53.3816 378.551 54 376.066 54V56ZM383.656 53.837C385.921 52.3269 387.649 50.2529 388.841 47.6458L387.022 46.8142C385.974 49.1071 384.482 50.8831 382.547 52.1729L383.656 53.837ZM387.931 48.23H412.501V46.23H387.931V48.23ZM411.517 47.0542C410.491 52.7989 408.411 57.7992 405.289 62.0753L406.904 63.2547C410.222 58.7108 412.412 53.4211 413.486 47.4058L411.517 47.0542ZM405.283 62.0838C402.235 66.3501 398.239 69.6728 393.274 72.0533L394.139 73.8567C399.394 71.3372 403.658 67.7999 406.91 63.2462L405.283 62.0838ZM393.279 72.0508C388.392 74.3586 382.802 75.525 376.486 75.525V77.525C383.051 77.525 388.941 76.3114 394.133 73.8592L393.279 72.0508ZM376.486 75.525C369.139 75.525 362.806 73.9811 357.451 70.9311L356.461 72.6689C362.167 75.9189 368.854 77.525 376.486 77.525V75.525ZM357.46 70.9358C352.094 67.8117 347.956 63.4713 345.032 57.8956L343.261 58.8244C346.357 64.7287 350.759 69.3483 356.453 72.6642L357.46 70.9358ZM345.036 57.9041C342.178 52.3238 340.736 45.9388 340.736 38.725H338.736C338.736 46.2112 340.235 52.9162 343.256 58.8159L345.036 57.9041ZM479.274 1.66H480.274V0.66H479.274V1.66ZM479.274 20.14V21.14H480.274V20.14H479.274ZM459.534 20.14V19.14H458.534V20.14H459.534ZM459.534 76V77H460.534V76H459.534ZM436.224 76H435.224V77H436.224V76ZM436.224 20.14H437.224V19.14H436.224V20.14ZM416.694 20.14H415.694V21.14H416.694V20.14ZM416.694 1.66V0.66H415.694V1.66H416.694ZM478.274 1.66V20.14H480.274V1.66H478.274ZM479.274 19.14H459.534V21.14H479.274V19.14ZM458.534 20.14V76H460.534V20.14H458.534ZM459.534 75H436.224V77H459.534V75ZM437.224 76V20.14H435.224V76H437.224ZM436.224 19.14H416.694V21.14H436.224V19.14ZM417.694 20.14V1.66H415.694V20.14H417.694ZM416.694 2.66H479.274V0.66H416.694V2.66ZM492.631 70.54L492.041 71.3471L492.052 71.3551L492.631 70.54ZM483.286 52.165V51.165H482.223L482.288 52.2258L483.286 52.165ZM508.066 52.165L509.063 52.0833L508.988 51.165H508.066V52.165ZM516.886 57.73L517.441 58.562L517.448 58.5572L517.455 58.5522L516.886 57.73ZM515.416 50.695L514.906 51.5553L514.918 51.5624L514.931 51.5692L515.416 50.695ZM506.596 46.915L506.263 47.858L506.265 47.8586L506.596 46.915ZM494.731 41.98L494.268 42.8663L494.276 42.8704L494.731 41.98ZM486.751 34.945L487.56 34.3568L487.56 34.3568L486.751 34.945ZM483.496 23.08L484.496 23.0945L484.496 23.0872V23.08H483.496ZM487.171 10.795L486.365 10.2029L486.363 10.2058L487.171 10.795ZM497.356 3.02499L496.982 2.09754L496.977 2.09969L497.356 3.02499ZM533.581 6.7L532.962 7.4849L532.967 7.4888L533.581 6.7ZM542.086 24.445V25.445H543.124L543.086 24.4083L542.086 24.445ZM516.991 24.445L515.992 24.4783L516.024 25.445H516.991V24.445ZM509.431 19.615L510.138 20.3221L510.157 20.3035L510.174 20.284L509.431 19.615ZM511.216 26.545L510.692 27.3967L510.711 27.4083L510.731 27.4192L511.216 26.545ZM520.141 30.43L519.787 31.365L519.792 31.3669L520.141 30.43ZM531.691 35.47L531.22 36.3518L531.228 36.3562L531.691 35.47ZM539.671 42.19L538.883 42.8053L538.883 42.8053L539.671 42.19ZM539.671 65.29L540.518 65.8215L540.523 65.8141L539.671 65.29ZM529.906 73.69L529.477 72.7869L529.906 73.69ZM514.681 75.735C505.947 75.735 498.814 73.7078 493.211 69.7249L492.052 71.3551C498.069 75.6322 505.635 77.735 514.681 77.735V75.735ZM493.222 69.733C487.756 65.7335 484.759 59.9019 484.284 52.1042L482.288 52.2258C482.793 60.5281 486.027 66.9465 492.041 71.347L493.222 69.733ZM483.286 53.165H508.066V51.165H483.286V53.165ZM507.07 52.2467C507.254 54.4943 507.853 56.3391 508.997 57.6316C510.171 58.9568 511.798 59.57 513.736 59.57V57.57C512.244 57.57 511.212 57.1157 510.495 56.3059C509.749 55.4634 509.229 54.1057 509.063 52.0833L507.07 52.2467ZM513.736 59.57C515.145 59.57 516.4 59.2559 517.441 58.562L516.331 56.8979C515.692 57.3241 514.848 57.57 513.736 57.57V59.57ZM517.455 58.5522C518.676 57.7073 519.251 56.4305 519.251 54.895H517.251C517.251 55.8795 516.917 56.4927 516.317 56.9078L517.455 58.5522ZM519.251 54.895C519.251 52.6912 518.021 50.9983 515.902 49.8208L514.931 51.5692C516.591 52.4917 517.251 53.5988 517.251 54.895H519.251ZM515.926 49.8347C513.949 48.6631 510.934 47.3771 506.927 45.9714L506.265 47.8586C510.239 49.2529 513.103 50.4869 514.906 51.5553L515.926 49.8347ZM506.929 45.972C502.195 44.3011 498.284 42.6728 495.186 41.0896L494.276 42.8704C497.478 44.5072 501.478 46.1689 506.263 47.858L506.929 45.972ZM495.194 41.0938C492.264 39.5618 489.718 37.3243 487.56 34.3568L485.942 35.5332C488.264 38.7257 491.039 41.1782 494.268 42.8662L495.194 41.0938ZM487.56 34.3568C485.478 31.4939 484.428 27.7668 484.496 23.0945L482.496 23.0655C482.424 28.0532 483.545 32.2361 485.942 35.5332L487.56 34.3568ZM484.496 23.08C484.496 18.4264 485.673 14.5465 487.979 11.3842L486.363 10.2058C483.769 13.7635 482.496 18.0736 482.496 23.08H484.496ZM487.977 11.3871C490.379 8.11769 493.621 5.63666 497.735 3.9503L496.977 2.09969C492.552 3.91334 489.003 6.6123 486.365 10.2029L487.977 11.3871ZM497.73 3.95244C501.935 2.25707 506.67 1.4 511.951 1.4V-0.600003C506.452 -0.600003 501.458 0.292922 496.982 2.09755L497.73 3.95244ZM511.951 1.4C520.903 1.4 527.87 3.46531 532.962 7.48488L534.201 5.91511C528.652 1.53468 521.199 -0.600003 511.951 -0.600003V1.4ZM532.967 7.4888C538.094 11.4845 540.816 17.1079 541.087 24.4817L543.086 24.4083C542.796 16.5221 539.848 10.3155 534.196 5.9112L532.967 7.4888ZM542.086 23.445H516.991V25.445H542.086V23.445ZM517.991 24.4117C517.917 22.193 517.359 20.369 516.097 19.1972L514.736 20.6628C515.434 21.311 515.926 22.497 515.992 24.4783L517.991 24.4117ZM516.097 19.1972C514.922 18.1068 513.486 17.565 511.846 17.565V19.565C513.007 19.565 513.95 19.9332 514.736 20.6628L516.097 19.1972ZM511.846 17.565C510.596 17.565 509.516 18.0258 508.688 18.946L510.174 20.284C510.606 19.8042 511.137 19.565 511.846 19.565V17.565ZM508.724 18.9079C507.85 19.7817 507.486 20.9817 507.486 22.345H509.486C509.486 21.3283 509.752 20.7083 510.138 20.3221L508.724 18.9079ZM507.486 22.345C507.486 24.4681 508.668 26.1513 510.692 27.3967L511.74 25.6933C510.124 24.6987 509.486 23.5819 509.486 22.345H507.486ZM510.731 27.4192C512.686 28.5057 515.717 29.8213 519.787 31.365L520.496 29.495C516.446 27.9587 513.526 26.6843 511.702 25.6708L510.731 27.4192ZM519.792 31.3669C524.457 33.1078 528.262 34.7701 531.22 36.3518L532.163 34.5882C529.1 32.9499 525.205 31.2522 520.491 29.4931L519.792 31.3669ZM531.228 36.3562C534.175 37.897 536.726 40.0423 538.883 42.8053L540.46 41.5747C538.136 38.5977 535.367 36.263 532.154 34.5838L531.228 36.3562ZM538.883 42.8053C540.961 45.4675 542.031 48.8436 542.031 53.005H544.031C544.031 48.4864 542.862 44.6525 540.46 41.5747L538.883 42.8053ZM542.031 53.005C542.031 57.3824 540.956 61.2938 538.82 64.7659L540.523 65.8141C542.866 62.0062 544.031 57.7276 544.031 53.005H542.031ZM538.824 64.7585C536.697 68.1483 533.597 70.8283 529.477 72.7869L530.336 74.5931C534.756 72.4917 538.165 69.5717 540.518 65.8215L538.824 64.7585ZM529.477 72.7869C525.37 74.7395 520.448 75.735 514.681 75.735V77.735C520.674 77.735 525.903 76.7005 530.336 74.5931L529.477 72.7869Z" fill="#FAF2F2"/>
</svg>
