<svg width="545" height="85" viewBox="0 0 545 85" fill="none" xmlns="http://www.w3.org/2000/svg">
<g filter="url(#filter0_d_2_129)">
<path d="M59.8586 38.935L58.9883 38.4424L58.9852 38.4479L59.8586 38.935ZM50.5136 47.755L50.9787 48.6403L50.9841 48.6374L50.5136 47.755ZM25.1036 51.01V50.01H24.1036V51.01H25.1036ZM25.1036 76V77H26.1036V76H25.1036ZM4.52355 76H3.52355V77H4.52355V76ZM4.52355 1.975V0.974995H3.52355V1.975H4.52355ZM50.4086 5.125L49.9553 6.0164L49.9613 6.01943L50.4086 5.125ZM59.8586 13.84L58.9883 14.3326L58.9883 14.3326L59.8586 13.84ZM25.1036 18.565V17.565H24.1036V18.565H25.1036ZM25.1036 34.63H24.1036V35.63H25.1036V34.63ZM62.0086 26.65C62.0086 30.9665 60.9989 34.8904 58.9883 38.4424L60.7288 39.4276C62.9182 35.5596 64.0086 31.2935 64.0086 26.65H62.0086ZM58.9852 38.4479C57.0615 41.8973 54.0983 44.7098 50.043 46.8726L50.9841 48.6374C55.3289 46.3202 58.5956 43.2527 60.7319 39.4221L58.9852 38.4479ZM50.0484 46.8698C46.0975 48.9457 41.1922 50.01 35.2886 50.01V52.01C41.425 52.01 46.6696 50.9043 50.9787 48.6402L50.0484 46.8698ZM35.2886 50.01H25.1036V52.01H35.2886V50.01ZM24.1036 51.01V76H26.1036V51.01H24.1036ZM25.1036 75H4.52355V77H25.1036V75ZM5.52355 76V1.975H3.52355V76H5.52355ZM4.52355 2.975H35.2886V0.974995H4.52355V2.975ZM35.2886 2.975C41.1244 2.975 45.9999 4.00515 49.9553 6.01638L50.8618 4.23361C46.5572 2.04484 41.3527 0.974995 35.2886 0.974995V2.975ZM49.9613 6.01943C54.0023 8.03991 56.9961 10.813 58.9883 14.3326L60.7288 13.3474C58.521 9.44695 55.2148 6.41008 50.8558 4.23057L49.9613 6.01943ZM58.9883 14.3326C60.9925 17.8733 62.0086 21.9693 62.0086 26.65H64.0086C64.0086 21.6707 62.9247 17.2267 60.7288 13.3474L58.9883 14.3326ZM33.2936 35.63C36.3319 35.63 38.7973 34.9363 40.5051 33.3725C42.2297 31.7934 43.0086 29.4879 43.0086 26.65H41.0086C41.0086 29.1321 40.335 30.8166 39.1545 31.8975C37.9573 32.9937 36.0652 33.63 33.2936 33.63V35.63ZM43.0086 26.65C43.0086 23.7808 42.2319 21.4506 40.5099 19.8531C38.8021 18.2688 36.3348 17.565 33.2936 17.565V19.565C36.0623 19.565 37.9525 20.2087 39.1497 21.3194C40.3328 22.4169 41.0086 24.1292 41.0086 26.65H43.0086ZM33.2936 17.565H25.1036V19.565H33.2936V17.565ZM24.1036 18.565V34.63H26.1036V18.565H24.1036ZM25.1036 35.63H33.2936V33.63H25.1036V35.63ZM108.761 76L107.881 76.4741L108.164 77H108.761V76ZM94.0615 48.7L94.942 48.2259L94.6588 47.7H94.0615V48.7ZM91.8565 48.7V47.7H90.8565V48.7H91.8565ZM91.8565 76V77H92.8565V76H91.8565ZM71.2765 76H70.2765V77H71.2765V76ZM71.2765 1.975V0.974995H70.2765V1.975H71.2765ZM118.841 5.125L118.388 6.01647L118.4 6.02245L118.841 5.125ZM128.186 13.63L127.32 14.1297L127.325 14.137L128.186 13.63ZM127.136 39.04L126.328 38.4518L126.326 38.4545L127.136 39.04ZM115.061 47.125L114.772 46.1679L113.564 46.5333L114.196 47.6255L115.061 47.125ZM131.756 76V77H133.49L132.622 75.4995L131.756 76ZM91.8565 34.63H90.8565V35.63H91.8565V34.63ZM108.341 32.635L107.653 31.91L107.653 31.91L108.341 32.635ZM108.236 21.295L107.529 22.0021L107.547 22.0198L107.566 22.0365L108.236 21.295ZM91.8565 19.195V18.195H90.8565V19.195H91.8565ZM109.642 75.5259L94.942 48.2259L93.181 49.1741L107.881 76.4741L109.642 75.5259ZM94.0615 47.7H91.8565V49.7H94.0615V47.7ZM90.8565 48.7V76H92.8565V48.7H90.8565ZM91.8565 75H71.2765V77H91.8565V75ZM72.2765 76V1.975H70.2765V76H72.2765ZM71.2765 2.975H103.721V0.974995H71.2765V2.975ZM103.721 2.975C109.557 2.975 114.433 4.00515 118.388 6.01638L119.295 4.23361C114.99 2.04484 109.786 0.974995 103.721 0.974995V2.975ZM118.4 6.02245C122.37 7.97364 125.329 10.6778 127.32 14.1297L129.053 13.1303C126.844 9.30219 123.573 6.33636 119.283 4.22755L118.4 6.02245ZM127.325 14.137C129.327 17.5409 130.336 21.3882 130.336 25.705H132.336C132.336 21.0618 131.246 16.8591 129.048 13.123L127.325 14.137ZM130.336 25.705C130.336 30.5468 128.996 34.7831 126.328 38.4518L127.945 39.6282C130.877 35.5969 132.336 30.9432 132.336 25.705H130.336ZM126.326 38.4545C123.747 42.0246 119.924 44.6087 114.772 46.1679L115.351 48.0821C120.839 46.4213 125.066 43.6154 127.947 39.6255L126.326 38.4545ZM114.196 47.6255L130.891 76.5005L132.622 75.4995L115.927 46.6245L114.196 47.6255ZM131.756 75H108.761V77H131.756V75ZM91.8565 35.63H102.041V33.63H91.8565V35.63ZM102.041 35.63C104.983 35.63 107.375 34.9322 109.03 33.36L107.653 31.91C106.508 32.9978 104.7 33.63 102.041 33.63V35.63ZM109.03 33.36C110.685 31.7883 111.441 29.5664 111.441 26.86H109.441C109.441 29.1936 108.798 30.8217 107.653 31.91L109.03 33.36ZM111.441 26.86C111.441 24.2591 110.629 22.1108 108.907 20.5535L107.566 22.0365C108.784 23.1392 109.441 24.7009 109.441 26.86H111.441ZM108.944 20.5879C107.294 18.9385 104.934 18.195 102.041 18.195V20.195C104.609 20.195 106.379 20.8515 107.529 22.0021L108.944 20.5879ZM102.041 18.195H91.8565V20.195H102.041V18.195ZM90.8565 19.195V34.63H92.8565V19.195H90.8565ZM157.075 71.905L156.583 72.7752L156.591 72.7797L157.075 71.905ZM143.215 58.36L142.35 58.8606L142.353 58.8668L142.357 58.873L143.215 58.36ZM143.215 19.195L142.354 18.6866L142.352 18.6898L143.215 19.195ZM195.295 5.65L194.806 6.52215L194.811 6.52465L195.295 5.65ZM209.05 19.195L208.185 19.6956L208.187 19.7002L209.05 19.195ZM209.05 58.36L209.913 58.8652L209.916 58.8606L209.05 58.36ZM195.295 71.905L195.78 72.7797L195.788 72.7752L195.295 71.905ZM188.575 52.48L187.831 51.8118L187.824 51.8204L188.575 52.48ZM188.575 24.865L187.824 25.5246L187.831 25.5327L187.838 25.5407L188.575 24.865ZM163.69 24.865L164.435 25.5323L164.442 25.5246L163.69 24.865ZM163.69 52.585L162.939 53.2446L162.946 53.2522L163.69 52.585ZM176.185 75.735C169.417 75.735 163.215 74.1645 157.56 71.0303L156.591 72.7797C162.556 76.0855 169.093 77.735 176.185 77.735V75.735ZM157.568 71.0348C151.909 67.8303 147.415 63.4385 144.074 57.847L142.357 58.873C145.876 64.7615 150.622 69.3997 156.583 72.7752L157.568 71.0348ZM144.081 57.8594C140.816 52.2143 139.175 45.8446 139.175 38.725H137.175C137.175 46.1654 138.894 52.8857 142.35 58.8606L144.081 57.8594ZM139.175 38.725C139.175 31.6053 140.816 25.2727 144.078 19.7002L142.352 18.6898C138.894 24.5973 137.175 31.2847 137.175 38.725H139.175ZM144.077 19.7034C147.417 14.0443 151.909 9.65686 157.56 6.52465L156.591 4.77534C150.622 8.08314 145.873 12.7257 142.354 18.6866L144.077 19.7034ZM157.56 6.52465C163.215 3.39048 169.417 1.82 176.185 1.82V-0.180002C169.093 -0.180002 162.556 1.46952 156.591 4.77534L157.56 6.52465ZM176.185 1.82C183.025 1.82 189.225 3.39132 194.806 6.52214L195.785 4.77786C189.886 1.46868 183.346 -0.180002 176.185 -0.180002V1.82ZM194.811 6.52465C200.46 9.65584 204.915 14.0408 208.185 19.6956L209.916 18.6944C206.466 12.7292 201.75 8.08416 195.78 4.77534L194.811 6.52465ZM208.187 19.7002C211.449 25.2727 213.09 31.6053 213.09 38.725H215.09C215.09 31.2847 213.372 24.5973 209.913 18.6898L208.187 19.7002ZM213.09 38.725C213.09 45.8446 211.449 52.2143 208.185 57.8594L209.916 58.8606C213.371 52.8857 215.09 46.1654 215.09 38.725H213.09ZM208.187 57.8548C204.917 63.442 200.46 67.8314 194.803 71.0348L195.788 72.7752C201.751 69.3986 206.464 64.758 209.913 58.8652L208.187 57.8548ZM194.811 71.0303C189.156 74.1645 182.953 75.735 176.185 75.735V77.735C183.277 77.735 189.815 76.0855 195.78 72.7797L194.811 71.0303ZM176.185 58.625C181.675 58.625 186.098 56.8196 189.327 53.1396L187.824 51.8204C185.033 55.0004 181.196 56.625 176.185 56.625V58.625ZM189.319 53.1481C192.602 49.4926 194.195 44.6487 194.195 38.725H192.195C192.195 44.2813 190.709 48.6074 187.831 51.8119L189.319 53.1481ZM194.195 38.725C194.195 32.6697 192.606 27.7823 189.313 24.1893L187.838 25.5407C190.705 28.6677 192.195 33.0203 192.195 38.725H194.195ZM189.327 24.2054C186.098 20.5254 181.675 18.72 176.185 18.72V20.72C181.196 20.72 185.033 22.3446 187.824 25.5246L189.327 24.2054ZM176.185 18.72C170.63 18.72 166.171 20.5224 162.939 24.2054L164.442 25.5246C167.23 22.3476 171.101 20.72 176.185 20.72V18.72ZM162.946 24.1977C159.727 27.7911 158.175 32.6753 158.175 38.725H160.175C160.175 33.0147 161.634 28.6589 164.435 25.5322L162.946 24.1977ZM158.175 38.725C158.175 44.7094 159.729 49.5867 162.939 53.2446L164.442 51.9254C161.632 48.7233 160.175 44.3605 160.175 38.725H158.175ZM162.946 53.2522C166.18 56.8623 170.637 58.625 176.185 58.625V56.625C171.094 56.625 167.221 55.0277 164.435 51.9178L162.946 53.2522ZM272.377 1.975H273.377V0.974995H272.377V1.975ZM265.552 70.12L264.856 69.4019L264.85 69.4073L265.552 70.12ZM226.807 69.7L226.121 70.4273L226.126 70.4321L226.807 69.7ZM219.352 49.435V48.435H218.352V49.435H219.352ZM239.722 49.435L240.722 49.423L240.71 48.435H239.722V49.435ZM251.797 1.975V0.974995H250.797V1.975H251.797ZM271.377 1.975V51.01H273.377V1.975H271.377ZM271.377 51.01C271.377 59.1582 269.156 65.2343 264.856 69.4019L266.248 70.8381C271.048 66.1857 273.377 59.5218 273.377 51.01H271.377ZM264.85 69.4073C260.603 73.5886 254.686 75.735 246.967 75.735V77.735C255.068 77.735 261.541 75.4714 266.253 70.8327L264.85 69.4073ZM246.967 75.735C238.761 75.735 232.304 73.4496 227.488 68.9679L226.126 70.4321C231.39 75.3304 238.373 77.735 246.967 77.735V75.735ZM227.493 68.9727C222.777 64.5226 220.352 58.0641 220.352 49.435H218.352C218.352 58.4459 220.896 65.4974 226.121 70.4273L227.493 68.9727ZM219.352 50.435H239.722V48.435H219.352V50.435ZM238.722 49.447C238.758 52.4436 239.324 54.8678 240.57 56.5635C241.859 58.317 243.769 59.15 246.127 59.15V57.15C244.285 57.15 243.028 56.5305 242.181 55.379C241.293 54.1697 240.756 52.2364 240.722 49.423L238.722 49.447ZM246.127 59.15C248.24 59.15 249.982 58.4732 251.163 56.9869C252.308 55.5445 252.797 53.4956 252.797 51.01H250.797C250.797 53.2844 250.341 54.8055 249.596 55.7431C248.887 56.6368 247.794 57.15 246.127 57.15V59.15ZM252.797 51.01V1.975H250.797V51.01H252.797ZM251.797 2.975H272.377V0.974995H251.797V2.975ZM305.24 18.46V17.46H304.24V18.46H305.24ZM305.24 30.535H304.24V31.535H305.24V30.535ZM328.865 30.535H329.865V29.535H328.865V30.535ZM328.865 46.18V47.18H329.865V46.18H328.865ZM305.24 46.18V45.18H304.24V46.18H305.24ZM305.24 59.515H304.24V60.515H305.24V59.515ZM332.015 59.515H333.015V58.515H332.015V59.515ZM332.015 76V77H333.015V76H332.015ZM284.66 76H283.66V77H284.66V76ZM284.66 1.975V0.974995H283.66V1.975H284.66ZM332.015 1.975H333.015V0.974995H332.015V1.975ZM332.015 18.46V19.46H333.015V18.46H332.015ZM304.24 18.46V30.535H306.24V18.46H304.24ZM305.24 31.535H328.865V29.535H305.24V31.535ZM327.865 30.535V46.18H329.865V30.535H327.865ZM328.865 45.18H305.24V47.18H328.865V45.18ZM304.24 46.18V59.515H306.24V46.18H304.24ZM305.24 60.515H332.015V58.515H305.24V60.515ZM331.015 59.515V76H333.015V59.515H331.015ZM332.015 75H284.66V77H332.015V75ZM285.66 76V1.975H283.66V76H285.66ZM284.66 2.975H332.015V0.974995H284.66V2.975ZM331.015 1.975V18.46H333.015V1.975H331.015ZM332.015 17.46H305.24V19.46H332.015V17.46ZM344.18 19.405L343.299 18.9322L343.296 18.9361L344.18 19.405ZM357.2 6.07L357.69 6.94161L357.698 6.93691L357.2 6.07ZM399.83 8.695L399.21 9.48012L399.216 9.48435L399.83 8.695ZM412.01 28.75V29.75H413.247L412.987 28.5399L412.01 28.75ZM389.855 28.75L388.951 29.1791L389.223 29.75H389.855V28.75ZM384.29 22.345L383.753 23.1887L383.764 23.1958L384.29 22.345ZM364.76 25.285L363.993 24.6433L363.991 24.6448L364.76 25.285ZM364.76 52.585L363.985 53.2174L363.992 53.226L363.999 53.2345L364.76 52.585ZM384.29 55.42L383.764 54.5691L383.753 54.5763L384.29 55.42ZM389.855 49.015V48.015H389.223L388.951 48.5859L389.855 49.015ZM412.01 49.015L412.987 49.2251L413.247 48.015H412.01V49.015ZM399.83 69.175L400.444 69.9644L400.449 69.9601L399.83 69.175ZM357.2 71.8L356.701 72.6669L356.709 72.6716L357.2 71.8ZM344.18 58.465L343.294 58.9294L343.297 58.9359L343.301 58.9423L344.18 58.465ZM340.665 38.83C340.665 31.6913 342.139 25.3811 345.063 19.8739L343.296 18.9361C340.2 24.7689 338.665 31.4087 338.665 38.83H340.665ZM345.061 19.8778C348.052 14.3027 352.258 9.99711 357.69 6.94157L356.709 5.19842C350.941 8.44288 346.467 13.0273 343.299 18.9322L345.061 19.8778ZM357.698 6.93691C363.128 3.81474 369.392 2.24 376.52 2.24V0.239999C369.087 0.239999 362.471 1.88525 356.701 5.20309L357.698 6.93691ZM376.52 2.24C385.571 2.24 393.113 4.66989 399.21 9.4801L400.449 7.90989C393.947 2.7801 385.949 0.239999 376.52 0.239999V2.24ZM399.216 9.48435C405.314 14.2273 409.257 20.6988 411.032 28.9601L412.987 28.5399C411.123 19.8612 406.946 12.9627 400.444 7.90564L399.216 9.48435ZM412.01 27.75H389.855V29.75H412.01V27.75ZM390.758 28.3209C389.355 25.3664 387.377 23.0762 384.815 21.4942L383.764 23.1958C385.963 24.5538 387.695 26.5336 388.951 29.1791L390.758 28.3209ZM384.827 21.5013C382.337 19.9168 379.45 19.14 376.205 19.14V21.14C379.119 21.14 381.623 21.8331 383.753 23.1887L384.827 21.5013ZM376.205 19.14C371.17 19.14 367.066 20.97 363.993 24.6433L365.527 25.9267C368.193 22.74 371.719 21.14 376.205 21.14V19.14ZM363.991 24.6448C361.002 28.2321 359.56 32.9965 359.56 38.83H361.56C361.56 33.3235 362.917 29.0579 365.528 25.9252L363.991 24.6448ZM359.56 38.83C359.56 44.7312 361.001 49.5617 363.985 53.2174L365.534 51.9526C362.919 48.7483 361.56 44.4088 361.56 38.83H359.56ZM363.999 53.2345C367.075 56.8357 371.178 58.625 376.205 58.625V56.625C371.712 56.625 368.184 55.0543 365.52 51.9355L363.999 53.2345ZM376.205 58.625C379.45 58.625 382.337 57.8481 384.827 56.2637L383.753 54.5763C381.623 55.9318 379.119 56.625 376.205 56.625V58.625ZM384.815 56.2708C387.377 54.6888 389.355 52.3986 390.758 49.4441L388.951 48.5859C387.695 51.2314 385.963 53.2112 383.764 54.5692L384.815 56.2708ZM389.855 50.015H412.01V48.015H389.855V50.015ZM411.032 48.8049C409.257 57.0669 405.313 63.5759 399.21 68.3899L400.449 69.9601C406.947 64.8341 411.123 57.9031 412.987 49.2251L411.032 48.8049ZM399.216 68.3856C393.118 73.1282 385.574 75.525 376.52 75.525V77.525C385.945 77.525 393.941 75.0218 400.444 69.9644L399.216 68.3856ZM376.52 75.525C369.388 75.525 363.121 73.9835 357.69 70.9284L356.709 72.6716C362.478 75.9165 369.091 77.525 376.52 77.525V75.525ZM357.698 70.9331C352.258 67.8052 348.05 63.495 345.058 57.9877L343.301 58.9423C346.469 64.775 350.941 69.3548 356.701 72.6669L357.698 70.9331ZM345.065 58.0006C342.14 52.4221 340.665 46.0401 340.665 38.83H338.665C338.665 46.3199 340.199 53.0279 343.294 58.9294L345.065 58.0006ZM477.51 1.975H478.51V0.974995H477.51V1.975ZM477.51 18.355V19.355H478.51V18.355H477.51ZM457.77 18.355V17.355H456.77V18.355H457.77ZM457.77 76V77H458.77V76H457.77ZM437.19 76H436.19V77H437.19V76ZM437.19 18.355H438.19V17.355H437.19V18.355ZM417.66 18.355H416.66V19.355H417.66V18.355ZM417.66 1.975V0.974995H416.66V1.975H417.66ZM476.51 1.975V18.355H478.51V1.975H476.51ZM477.51 17.355H457.77V19.355H477.51V17.355ZM456.77 18.355V76H458.77V18.355H456.77ZM457.77 75H437.19V77H457.77V75ZM438.19 76V18.355H436.19V76H438.19ZM437.19 17.355H417.66V19.355H437.19V17.355ZM418.66 18.355V1.975H416.66V18.355H418.66ZM417.66 2.975H477.51V0.974995H417.66V2.975ZM491.844 70.645L491.246 71.4462L491.252 71.4511L491.844 70.645ZM482.919 53.005V52.005H481.863L481.921 53.06L482.919 53.005ZM504.864 53.005L505.861 52.9242L505.786 52.005H504.864V53.005ZM507.174 58.675L506.507 59.4202L506.507 59.4202L507.174 58.675ZM516.939 59.095L517.547 59.8894L517.553 59.8844L516.939 59.095ZM515.784 50.065L516.29 49.2023L516.29 49.2023L515.784 50.065ZM505.914 46.075L505.598 47.0237L505.607 47.0266L505.914 46.075ZM494.154 41.455L493.69 42.3408L493.703 42.3474L493.715 42.3536L494.154 41.455ZM486.384 34.84L485.58 35.4339L485.588 35.4447L485.596 35.4553L486.384 34.84ZM486.699 11.215L487.515 11.793L487.521 11.7851L486.699 11.215ZM496.569 3.445L496.185 2.52192L496.185 2.52192L496.569 3.445ZM531.429 6.90999L530.807 7.69295L530.813 7.69763L530.819 7.70222L531.429 6.90999ZM539.724 23.815V24.815H540.773L540.723 23.767L539.724 23.815ZM517.359 23.815L516.36 23.8462L516.39 24.815H517.359V23.815ZM515.259 18.775L514.595 19.5224L514.605 19.5313L514.615 19.5399L515.259 18.775ZM506.544 18.46L507.225 19.1928L507.225 19.1928L506.544 18.46ZM506.649 26.02L505.942 26.7271L505.966 26.7506L505.991 26.7726L506.649 26.02ZM510.744 28.645L510.313 29.5471L510.329 29.5549L510.345 29.5621L510.744 28.645ZM517.884 31.375L517.549 32.3173L517.559 32.3208L517.884 31.375ZM529.434 36.205L528.962 37.0868L528.975 37.0933L528.987 37.0994L529.434 36.205ZM537.309 42.82L536.511 43.4231L536.52 43.434L536.528 43.4447L537.309 42.82ZM537.309 65.395L536.467 64.8559L536.463 64.862L536.459 64.8681L537.309 65.395ZM527.754 73.69L527.319 72.7896L527.313 72.7926L527.754 73.69ZM513.054 75.735C504.602 75.735 497.755 73.7439 492.436 69.8389L491.252 71.4511C496.993 75.6661 504.286 77.735 513.054 77.735V75.735ZM492.443 69.8438C487.177 65.9114 484.323 60.3201 483.918 52.95L481.921 53.06C482.355 60.9499 485.451 67.1186 491.246 71.4462L492.443 69.8438ZM482.919 54.005H504.864V52.005H482.919V54.005ZM503.867 53.0858C504.089 55.8158 504.914 57.995 506.507 59.4202L507.841 57.9298C506.774 56.975 506.06 55.3742 505.861 52.9242L503.867 53.0858ZM506.507 59.4202C508.052 60.8026 510.019 61.46 512.319 61.46V59.46C510.419 59.46 508.956 58.9274 507.841 57.9298L506.507 59.4202ZM512.319 61.46C514.37 61.46 516.141 60.9643 517.547 59.8894L516.332 58.3006C515.357 59.0457 514.048 59.46 512.319 59.46V61.46ZM517.553 59.8844C519.071 58.7036 519.829 57.0748 519.829 55.105H517.829C517.829 56.4952 517.327 57.5264 516.325 58.3056L517.553 59.8844ZM519.829 55.105C519.829 52.5452 518.595 50.5534 516.29 49.2023L515.278 50.9277C517.034 51.9566 517.829 53.3248 517.829 55.105H519.829ZM516.29 49.2023C514.161 47.9546 510.785 46.5978 506.222 45.1234L505.607 47.0266C510.143 48.4922 513.347 49.7954 515.278 50.9277L516.29 49.2023ZM506.23 45.1263C501.423 43.5239 497.549 41.9998 494.593 40.5564L493.715 42.3536C496.78 43.8502 500.745 45.4061 505.598 47.0237L506.23 45.1263ZM494.618 40.5692C491.816 39.1014 489.333 36.9935 487.172 34.2247L485.596 35.4553C487.915 38.4265 490.612 40.7286 493.69 42.3408L494.618 40.5692ZM487.189 34.2461C485.178 31.5214 484.129 27.9321 484.129 23.395H482.129C482.129 28.2379 483.251 32.2786 485.58 35.4339L487.189 34.2461ZM484.129 23.395C484.129 18.8087 485.273 14.9587 487.515 11.793L485.883 10.637C483.365 14.1913 482.129 18.4613 482.129 23.395H484.129ZM487.521 11.7851C489.782 8.52613 492.914 6.05145 496.954 4.36807L496.185 2.52192C491.825 4.33855 488.376 7.04386 485.878 10.6449L487.521 11.7851ZM496.954 4.36807C501.013 2.67669 505.639 1.82 510.849 1.82V-0.180002C505.419 -0.180002 500.525 0.7133 496.185 2.52192L496.954 4.36807ZM510.849 1.82C519.306 1.82 525.923 3.81274 530.807 7.69295L532.051 6.12704C526.715 1.88726 519.613 -0.180002 510.849 -0.180002V1.82ZM530.819 7.70222C535.738 11.4913 538.388 16.8383 538.725 23.863L540.723 23.767C540.361 16.2317 537.48 10.3087 532.039 6.11777L530.819 7.70222ZM539.724 22.815H517.359V24.815H539.724V22.815ZM518.359 23.7838C518.283 21.3471 517.509 19.3626 515.903 18.0101L514.615 19.5399C515.669 20.4274 516.296 21.8029 516.36 23.8462L518.359 23.7838ZM515.924 18.0276C514.445 16.7131 512.547 16.095 510.324 16.095V18.095C512.162 18.095 513.554 18.5969 514.595 19.5224L515.924 18.0276ZM510.324 16.095C508.573 16.095 507.057 16.6194 505.864 17.7272L507.225 19.1928C507.992 18.4805 508.996 18.095 510.324 18.095V16.095ZM505.864 17.7272C504.63 18.8726 504.074 20.463 504.074 22.345H506.074C506.074 20.867 506.498 19.8674 507.225 19.1928L505.864 17.7272ZM504.074 22.345C504.074 24.0276 504.717 25.5022 505.942 26.7271L507.356 25.3129C506.481 24.4378 506.074 23.4624 506.074 22.345H504.074ZM505.991 26.7726C507.191 27.823 508.636 28.7454 510.313 29.5471L511.176 27.7429C509.632 27.0046 508.347 26.177 507.308 25.2674L505.991 26.7726ZM510.345 29.5621C511.987 30.276 514.393 31.1951 517.549 32.3172L518.219 30.4328C515.075 29.3149 512.721 28.414 511.143 27.7279L510.345 29.5621ZM517.559 32.3208C522.219 33.9205 526.016 35.5105 528.962 37.0868L529.906 35.3232C526.833 33.6795 522.929 32.0495 518.209 30.4292L517.559 32.3208ZM528.987 37.0994C531.923 38.5675 534.43 40.6702 536.511 43.4231L538.107 42.2169C535.848 39.2298 533.105 36.9225 529.881 35.3106L528.987 37.0994ZM536.528 43.4447C538.598 46.0323 539.669 49.3677 539.669 53.53H541.669C541.669 49.0123 540.5 45.2077 538.09 42.1953L536.528 43.4447ZM539.669 53.53C539.669 57.7612 538.597 61.5269 536.467 64.8559L538.151 65.9341C540.501 62.2631 541.669 58.1188 541.669 53.53H539.669ZM536.459 64.8681C534.402 68.1861 531.371 70.831 527.319 72.7897L528.189 74.5903C532.537 72.489 535.876 69.6039 538.159 65.9219L536.459 64.8681ZM527.313 72.7926C523.348 74.7412 518.606 75.735 513.054 75.735V77.735C518.842 77.735 523.9 76.6988 528.195 74.5874L527.313 72.7926Z" fill="#807E7E"/>
</g>
<defs>
<filter id="filter0_d_2_129" x="0.52356" y="0.819996" width="544.146" height="83.915" filterUnits="userSpaceOnUse" color-interpolation-filters="sRGB">
<feFlood flood-opacity="0" result="BackgroundImageFix"/>
<feColorMatrix in="SourceAlpha" type="matrix" values="0 0 0 0 0 0 0 0 0 0 0 0 0 0 0 0 0 0 127 0" result="hardAlpha"/>
<feOffset dy="4"/>
<feGaussianBlur stdDeviation="2"/>
<feComposite in2="hardAlpha" operator="out"/>
<feColorMatrix type="matrix" values="0 0 0 0 0 0 0 0 0 0 0 0 0 0 0 0 0 0 0.25 0"/>
<feBlend mode="normal" in2="BackgroundImageFix" result="effect1_dropShadow_2_129"/>
<feBlend mode="normal" in="SourceGraphic" in2="effect1_dropShadow_2_129" result="shape"/>
</filter>
</defs>
</svg>
